STARTFONT 2.1
COMMENT
COMMENT Converted from OpenType font "Hack-Regular.ttf" by "otf2bdf 3.0".
COMMENT
FONT -FreeType-Hack-Medium-R-Normal--11-80-100-100-P-56-ISO10646-1
SIZE 8 100 100
FONTBOUNDINGBOX 12 14 -5 -3
STARTPROPERTIES 19
FOUNDRY "FreeType"
FAMILY_NAME "Hack"
WEIGHT_NAME "Medium"
SLANT "R"
SETWIDTH_NAME "Normal"
ADD_STYLE_NAME ""
PIXEL_SIZE 11
POINT_SIZE 80
RESOLUTION_X 100
RESOLUTION_Y 100
SPACING "P"
AVERAGE_WIDTH 56
CHARSET_REGISTRY "ISO10646"
CHARSET_ENCODING "1"
FONT_ASCENT 10
FONT_DESCENT 2
COPYRIGHT "Copyright (c) 2018 Source Foundry Authors / Copyright (c) 2003 by Bitstream, Inc. All Rights Reserved."
_OTF_FONTFILE "Hack-Regular.ttf"
_OTF_PSNAME "Hack-Regular"
ENDPROPERTIES
CHARS 1548
STARTCHAR 0000
ENCODING 0
SWIDTH 0 0
DWIDTH 0 0
BBX 0 0 0 0
BITMAP
ENDCHAR
STARTCHAR 000D
ENCODING 13
SWIDTH 630 0
DWIDTH 7 0
BBX 0 0 0 0
BITMAP
ENDCHAR
STARTCHAR 0020
ENCODING 32
SWIDTH 630 0
DWIDTH 7 0
BBX 0 0 0 0
BITMAP
ENDCHAR
STARTCHAR 0021
ENCODING 33
SWIDTH 630 0
DWIDTH 7 0
BBX 2 8 2 0
BITMAP
40
40
40
40
40
00
40
C0
ENDCHAR
STARTCHAR 0022
ENCODING 34
SWIDTH 630 0
DWIDTH 7 0
BBX 3 3 2 5
BITMAP
A0
A0
A0
ENDCHAR
STARTCHAR 0023
ENCODING 35
SWIDTH 630 0
DWIDTH 7 0
BBX 7 8 0 0
BITMAP
14
24
7E
28
28
FC
50
50
ENDCHAR
STARTCHAR 0024
ENCODING 36
SWIDTH 630 0
DWIDTH 7 0
BBX 5 9 1 -1
BITMAP
20
70
A8
A0
70
28
28
F0
20
ENDCHAR
STARTCHAR 0025
ENCODING 37
SWIDTH 630 0
DWIDTH 7 0
BBX 7 8 0 0
BITMAP
60
90
94
78
6C
92
12
0C
ENDCHAR
STARTCHAR 0026
ENCODING 38
SWIDTH 630 0
DWIDTH 7 0
BBX 7 8 0 0
BITMAP
38
40
40
60
52
8C
CC
7E
ENDCHAR
STARTCHAR 0027
ENCODING 39
SWIDTH 630 0
DWIDTH 7 0
BBX 1 3 3 5
BITMAP
80
80
80
ENDCHAR
STARTCHAR 0028
ENCODING 40
SWIDTH 630 0
DWIDTH 7 0
BBX 2 9 2 -1
BITMAP
40
80
80
80
80
80
80
80
40
ENDCHAR
STARTCHAR 0029
ENCODING 41
SWIDTH 630 0
DWIDTH 7 0
BBX 2 9 3 -1
BITMAP
80
80
40
40
40
40
40
40
80
ENDCHAR
STARTCHAR 002A
ENCODING 42
SWIDTH 630 0
DWIDTH 7 0
BBX 5 5 1 2
BITMAP
20
28
F0
60
D0
ENDCHAR
STARTCHAR 002B
ENCODING 43
SWIDTH 630 0
DWIDTH 7 0
BBX 6 6 0 1
BITMAP
10
10
10
FC
10
10
ENDCHAR
STARTCHAR 002C
ENCODING 44
SWIDTH 630 0
DWIDTH 7 0
BBX 2 4 2 -2
BITMAP
40
C0
40
C0
ENDCHAR
STARTCHAR 002D
ENCODING 45
SWIDTH 630 0
DWIDTH 7 0
BBX 5 1 1 3
BITMAP
F8
ENDCHAR
STARTCHAR 002E
ENCODING 46
SWIDTH 630 0
DWIDTH 7 0
BBX 2 2 2 0
BITMAP
40
C0
ENDCHAR
STARTCHAR 002F
ENCODING 47
SWIDTH 630 0
DWIDTH 7 0
BBX 5 9 1 -1
BITMAP
08
10
10
20
20
40
40
80
80
ENDCHAR
STARTCHAR 0030
ENCODING 48
SWIDTH 630 0
DWIDTH 7 0
BBX 5 8 1 0
BITMAP
70
98
A8
A8
A8
A8
98
70
ENDCHAR
STARTCHAR 0031
ENCODING 49
SWIDTH 630 0
DWIDTH 7 0
BBX 5 8 1 0
BITMAP
20
60
A0
20
20
20
20
F8
ENDCHAR
STARTCHAR 0032
ENCODING 50
SWIDTH 630 0
DWIDTH 7 0
BBX 5 8 1 0
BITMAP
F0
98
08
10
30
60
C0
F8
ENDCHAR
STARTCHAR 0033
ENCODING 51
SWIDTH 630 0
DWIDTH 7 0
BBX 5 8 1 0
BITMAP
F0
08
18
60
18
08
08
F0
ENDCHAR
STARTCHAR 0034
ENCODING 52
SWIDTH 630 0
DWIDTH 7 0
BBX 5 8 1 0
BITMAP
30
30
50
90
90
F8
10
10
ENDCHAR
STARTCHAR 0035
ENCODING 53
SWIDTH 630 0
DWIDTH 7 0
BBX 5 8 1 0
BITMAP
F0
80
80
F0
18
08
18
F0
ENDCHAR
STARTCHAR 0036
ENCODING 54
SWIDTH 630 0
DWIDTH 7 0
BBX 5 8 1 0
BITMAP
70
80
80
F0
88
88
88
70
ENDCHAR
STARTCHAR 0037
ENCODING 55
SWIDTH 630 0
DWIDTH 7 0
BBX 5 8 1 0
BITMAP
F8
10
10
10
20
20
60
40
ENDCHAR
STARTCHAR 0038
ENCODING 56
SWIDTH 630 0
DWIDTH 7 0
BBX 5 8 1 0
BITMAP
70
88
88
70
88
88
88
70
ENDCHAR
STARTCHAR 0039
ENCODING 57
SWIDTH 630 0
DWIDTH 7 0
BBX 5 8 1 0
BITMAP
F0
88
88
98
68
08
10
F0
ENDCHAR
STARTCHAR 003A
ENCODING 58
SWIDTH 630 0
DWIDTH 7 0
BBX 2 6 2 0
BITMAP
C0
40
00
00
C0
40
ENDCHAR
STARTCHAR 003B
ENCODING 59
SWIDTH 630 0
DWIDTH 7 0
BBX 2 8 2 -2
BITMAP
40
C0
00
00
40
C0
40
C0
ENDCHAR
STARTCHAR 003C
ENCODING 60
SWIDTH 630 0
DWIDTH 7 0
BBX 6 5 0 1
BITMAP
0C
30
C0
30
0C
ENDCHAR
STARTCHAR 003D
ENCODING 61
SWIDTH 630 0
DWIDTH 7 0
BBX 6 3 0 2
BITMAP
FC
00
FC
ENDCHAR
STARTCHAR 003E
ENCODING 62
SWIDTH 630 0
DWIDTH 7 0
BBX 6 5 0 1
BITMAP
C0
38
04
38
C0
ENDCHAR
STARTCHAR 003F
ENCODING 63
SWIDTH 630 0
DWIDTH 7 0
BBX 5 8 1 0
BITMAP
F0
98
10
20
20
00
20
60
ENDCHAR
STARTCHAR 0040
ENCODING 64
SWIDTH 630 0
DWIDTH 7 0
BBX 6 9 0 -2
BITMAP
38
44
9C
A4
A4
A4
9C
40
3C
ENDCHAR
STARTCHAR 0041
ENCODING 65
SWIDTH 630 0
DWIDTH 7 0
BBX 6 8 0 0
BITMAP
10
30
28
28
48
7C
44
84
ENDCHAR
STARTCHAR 0042
ENCODING 66
SWIDTH 630 0
DWIDTH 7 0
BBX 5 8 1 0
BITMAP
F0
88
88
F0
88
88
88
F0
ENDCHAR
STARTCHAR 0043
ENCODING 67
SWIDTH 630 0
DWIDTH 7 0
BBX 5 8 1 0
BITMAP
78
C8
80
80
80
80
C0
78
ENDCHAR
STARTCHAR 0044
ENCODING 68
SWIDTH 630 0
DWIDTH 7 0
BBX 5 8 1 0
BITMAP
F0
90
88
88
88
88
90
F0
ENDCHAR
STARTCHAR 0045
ENCODING 69
SWIDTH 630 0
DWIDTH 7 0
BBX 5 8 1 0
BITMAP
F8
80
80
F8
80
80
80
F8
ENDCHAR
STARTCHAR 0046
ENCODING 70
SWIDTH 630 0
DWIDTH 7 0
BBX 5 8 1 0
BITMAP
F8
80
80
F8
80
80
80
80
ENDCHAR
STARTCHAR 0047
ENCODING 71
SWIDTH 630 0
DWIDTH 7 0
BBX 5 8 1 0
BITMAP
78
88
80
80
98
88
88
78
ENDCHAR
STARTCHAR 0048
ENCODING 72
SWIDTH 630 0
DWIDTH 7 0
BBX 5 8 1 0
BITMAP
88
88
88
F8
88
88
88
88
ENDCHAR
STARTCHAR 0049
ENCODING 73
SWIDTH 630 0
DWIDTH 7 0
BBX 5 8 1 0
BITMAP
F8
20
20
20
20
20
20
F8
ENDCHAR
STARTCHAR 004A
ENCODING 74
SWIDTH 630 0
DWIDTH 7 0
BBX 4 8 1 0
BITMAP
70
10
10
10
10
10
90
E0
ENDCHAR
STARTCHAR 004B
ENCODING 75
SWIDTH 630 0
DWIDTH 7 0
BBX 6 8 1 0
BITMAP
8C
90
A0
E0
A0
90
98
8C
ENDCHAR
STARTCHAR 004C
ENCODING 76
SWIDTH 630 0
DWIDTH 7 0
BBX 5 8 1 0
BITMAP
80
80
80
80
80
80
80
F8
ENDCHAR
STARTCHAR 004D
ENCODING 77
SWIDTH 630 0
DWIDTH 7 0
BBX 6 8 0 0
BITMAP
C4
AC
AC
B4
94
84
84
84
ENDCHAR
STARTCHAR 004E
ENCODING 78
SWIDTH 630 0
DWIDTH 7 0
BBX 5 8 1 0
BITMAP
88
C8
C8
A8
A8
A8
98
98
ENDCHAR
STARTCHAR 004F
ENCODING 79
SWIDTH 630 0
DWIDTH 7 0
BBX 5 8 1 0
BITMAP
70
88
88
88
88
88
88
70
ENDCHAR
STARTCHAR 0050
ENCODING 80
SWIDTH 630 0
DWIDTH 7 0
BBX 5 8 1 0
BITMAP
F0
88
88
88
F0
80
80
80
ENDCHAR
STARTCHAR 0051
ENCODING 81
SWIDTH 630 0
DWIDTH 7 0
BBX 6 9 1 -1
BITMAP
70
88
88
88
88
88
88
70
1C
ENDCHAR
STARTCHAR 0052
ENCODING 82
SWIDTH 630 0
DWIDTH 7 0
BBX 6 8 1 0
BITMAP
F0
98
88
98
E0
90
88
8C
ENDCHAR
STARTCHAR 0053
ENCODING 83
SWIDTH 630 0
DWIDTH 7 0
BBX 5 8 1 0
BITMAP
70
88
80
E0
18
08
88
F0
ENDCHAR
STARTCHAR 0054
ENCODING 84
SWIDTH 630 0
DWIDTH 7 0
BBX 6 8 0 0
BITMAP
FC
10
10
10
10
10
10
10
ENDCHAR
STARTCHAR 0055
ENCODING 85
SWIDTH 630 0
DWIDTH 7 0
BBX 5 8 1 0
BITMAP
88
88
88
88
88
88
88
70
ENDCHAR
STARTCHAR 0056
ENCODING 86
SWIDTH 630 0
DWIDTH 7 0
BBX 6 8 0 0
BITMAP
C4
44
44
48
28
28
30
10
ENDCHAR
STARTCHAR 0057
ENCODING 87
SWIDTH 630 0
DWIDTH 7 0
BBX 7 8 0 0
BITMAP
82
84
94
74
6C
6C
6C
4C
ENDCHAR
STARTCHAR 0058
ENCODING 88
SWIDTH 630 0
DWIDTH 7 0
BBX 7 8 0 0
BITMAP
C4
68
28
10
30
28
44
C6
ENDCHAR
STARTCHAR 0059
ENCODING 89
SWIDTH 630 0
DWIDTH 7 0
BBX 6 8 0 0
BITMAP
C4
4C
28
30
10
10
10
10
ENDCHAR
STARTCHAR 005A
ENCODING 90
SWIDTH 630 0
DWIDTH 7 0
BBX 5 8 1 0
BITMAP
F8
10
10
20
40
40
80
F8
ENDCHAR
STARTCHAR 005B
ENCODING 91
SWIDTH 630 0
DWIDTH 7 0
BBX 3 10 2 -2
BITMAP
E0
80
80
80
80
80
80
80
80
E0
ENDCHAR
STARTCHAR 005C
ENCODING 92
SWIDTH 630 0
DWIDTH 7 0
BBX 5 9 1 -1
BITMAP
80
80
40
40
20
20
10
10
08
ENDCHAR
STARTCHAR 005D
ENCODING 93
SWIDTH 630 0
DWIDTH 7 0
BBX 3 10 2 -2
BITMAP
E0
20
20
20
20
20
20
20
20
E0
ENDCHAR
STARTCHAR 005E
ENCODING 94
SWIDTH 630 0
DWIDTH 7 0
BBX 6 3 0 5
BITMAP
30
28
C4
ENDCHAR
STARTCHAR 005F
ENCODING 95
SWIDTH 630 0
DWIDTH 7 0
BBX 5 1 1 -2
BITMAP
F8
ENDCHAR
STARTCHAR 0060
ENCODING 96
SWIDTH 630 0
DWIDTH 7 0
BBX 2 2 2 7
BITMAP
80
40
ENDCHAR
STARTCHAR 0061
ENCODING 97
SWIDTH 630 0
DWIDTH 7 0
BBX 5 6 1 0
BITMAP
F0
08
78
88
98
E8
ENDCHAR
STARTCHAR 0062
ENCODING 98
SWIDTH 630 0
DWIDTH 7 0
BBX 5 8 1 0
BITMAP
80
80
F0
88
88
88
88
F0
ENDCHAR
STARTCHAR 0063
ENCODING 99
SWIDTH 630 0
DWIDTH 7 0
BBX 5 6 1 0
BITMAP
78
80
80
80
80
78
ENDCHAR
STARTCHAR 0064
ENCODING 100
SWIDTH 630 0
DWIDTH 7 0
BBX 5 8 1 0
BITMAP
08
08
68
98
88
88
98
68
ENDCHAR
STARTCHAR 0065
ENCODING 101
SWIDTH 630 0
DWIDTH 7 0
BBX 5 6 1 0
BITMAP
70
88
F8
80
80
78
ENDCHAR
STARTCHAR 0066
ENCODING 102
SWIDTH 630 0
DWIDTH 7 0
BBX 5 8 1 0
BITMAP
38
20
F8
20
20
20
20
20
ENDCHAR
STARTCHAR 0067
ENCODING 103
SWIDTH 630 0
DWIDTH 7 0
BBX 5 8 1 -2
BITMAP
78
88
88
88
98
68
08
F0
ENDCHAR
STARTCHAR 0068
ENCODING 104
SWIDTH 630 0
DWIDTH 7 0
BBX 5 8 1 0
BITMAP
80
80
F0
88
88
88
88
88
ENDCHAR
STARTCHAR 0069
ENCODING 105
SWIDTH 630 0
DWIDTH 7 0
BBX 5 8 1 0
BITMAP
20
00
E0
20
20
20
20
38
ENDCHAR
STARTCHAR 006A
ENCODING 106
SWIDTH 630 0
DWIDTH 7 0
BBX 4 10 1 -2
BITMAP
20
00
70
10
10
10
10
10
20
E0
ENDCHAR
STARTCHAR 006B
ENCODING 107
SWIDTH 630 0
DWIDTH 7 0
BBX 5 8 1 0
BITMAP
80
80
98
B0
E0
B0
90
88
ENDCHAR
STARTCHAR 006C
ENCODING 108
SWIDTH 630 0
DWIDTH 7 0
BBX 5 8 1 0
BITMAP
E0
20
20
20
20
20
20
38
ENDCHAR
STARTCHAR 006D
ENCODING 109
SWIDTH 630 0
DWIDTH 7 0
BBX 5 6 1 0
BITMAP
F8
A8
A8
A8
A8
A8
ENDCHAR
STARTCHAR 006E
ENCODING 110
SWIDTH 630 0
DWIDTH 7 0
BBX 5 6 1 0
BITMAP
F0
88
88
88
88
88
ENDCHAR
STARTCHAR 006F
ENCODING 111
SWIDTH 630 0
DWIDTH 7 0
BBX 5 6 1 0
BITMAP
70
88
88
88
88
70
ENDCHAR
STARTCHAR 0070
ENCODING 112
SWIDTH 630 0
DWIDTH 7 0
BBX 5 8 1 -2
BITMAP
F0
88
88
88
88
F0
80
80
ENDCHAR
STARTCHAR 0071
ENCODING 113
SWIDTH 630 0
DWIDTH 7 0
BBX 5 8 1 -2
BITMAP
68
98
88
88
98
68
08
08
ENDCHAR
STARTCHAR 0072
ENCODING 114
SWIDTH 630 0
DWIDTH 7 0
BBX 4 6 2 0
BITMAP
F0
80
80
80
80
80
ENDCHAR
STARTCHAR 0073
ENCODING 115
SWIDTH 630 0
DWIDTH 7 0
BBX 5 6 1 0
BITMAP
70
80
E0
10
08
F0
ENDCHAR
STARTCHAR 0074
ENCODING 116
SWIDTH 630 0
DWIDTH 7 0
BBX 5 8 1 0
BITMAP
40
40
F8
40
40
40
40
38
ENDCHAR
STARTCHAR 0075
ENCODING 117
SWIDTH 630 0
DWIDTH 7 0
BBX 5 6 1 0
BITMAP
88
88
88
88
98
68
ENDCHAR
STARTCHAR 0076
ENCODING 118
SWIDTH 630 0
DWIDTH 7 0
BBX 5 6 1 0
BITMAP
88
88
90
50
50
20
ENDCHAR
STARTCHAR 0077
ENCODING 119
SWIDTH 630 0
DWIDTH 7 0
BBX 7 6 0 0
BITMAP
82
84
54
74
6C
68
ENDCHAR
STARTCHAR 0078
ENCODING 120
SWIDTH 630 0
DWIDTH 7 0
BBX 6 6 0 0
BITMAP
44
28
10
30
28
C4
ENDCHAR
STARTCHAR 0079
ENCODING 121
SWIDTH 630 0
DWIDTH 7 0
BBX 5 8 1 -2
BITMAP
88
88
50
50
60
20
20
C0
ENDCHAR
STARTCHAR 007A
ENCODING 122
SWIDTH 630 0
DWIDTH 7 0
BBX 5 6 1 0
BITMAP
F8
10
20
60
40
F8
ENDCHAR
STARTCHAR 007B
ENCODING 123
SWIDTH 630 0
DWIDTH 7 0
BBX 4 10 1 -1
BITMAP
30
20
20
20
C0
20
20
20
20
30
ENDCHAR
STARTCHAR 007C
ENCODING 124
SWIDTH 630 0
DWIDTH 7 0
BBX 1 11 3 -3
BITMAP
80
80
80
80
80
80
80
80
80
80
80
ENDCHAR
STARTCHAR 007D
ENCODING 125
SWIDTH 630 0
DWIDTH 7 0
BBX 5 10 1 -1
BITMAP
E0
20
20
20
18
20
20
20
20
E0
ENDCHAR
STARTCHAR 007E
ENCODING 126
SWIDTH 630 0
DWIDTH 7 0
BBX 6 3 0 2
BITMAP
64
54
8C
ENDCHAR
STARTCHAR 00A0
ENCODING 160
SWIDTH 630 0
DWIDTH 7 0
BBX 0 0 0 0
BITMAP
ENDCHAR
STARTCHAR 00A1
ENCODING 161
SWIDTH 630 0
DWIDTH 7 0
BBX 1 8 3 0
BITMAP
80
80
00
80
80
80
80
80
ENDCHAR
STARTCHAR 00A2
ENCODING 162
SWIDTH 630 0
DWIDTH 7 0
BBX 5 9 1 -1
BITMAP
10
10
78
90
90
90
D0
78
10
ENDCHAR
STARTCHAR 00A3
ENCODING 163
SWIDTH 630 0
DWIDTH 7 0
BBX 5 8 1 0
BITMAP
38
40
40
40
F0
40
40
F8
ENDCHAR
STARTCHAR 00A4
ENCODING 164
SWIDTH 630 0
DWIDTH 7 0
BBX 5 4 1 1
BITMAP
F8
50
50
F8
ENDCHAR
STARTCHAR 00A5
ENCODING 165
SWIDTH 630 0
DWIDTH 7 0
BBX 6 8 0 0
BITMAP
C4
44
28
7C
7C
10
10
10
ENDCHAR
STARTCHAR 00A6
ENCODING 166
SWIDTH 630 0
DWIDTH 7 0
BBX 1 9 3 -2
BITMAP
80
80
80
80
00
80
80
80
80
ENDCHAR
STARTCHAR 00A7
ENCODING 167
SWIDTH 630 0
DWIDTH 7 0
BBX 5 9 1 -1
BITMAP
70
80
40
B0
88
50
30
10
70
ENDCHAR
STARTCHAR 00A8
ENCODING 168
SWIDTH 630 0
DWIDTH 7 0
BBX 3 1 2 7
BITMAP
A0
ENDCHAR
STARTCHAR 00A9
ENCODING 169
SWIDTH 630 0
DWIDTH 7 0
BBX 7 7 0 0
BITMAP
38
7C
C2
C2
C2
7C
38
ENDCHAR
STARTCHAR 00AA
ENCODING 170
SWIDTH 630 0
DWIDTH 7 0
BBX 4 6 1 2
BITMAP
70
70
90
70
00
70
ENDCHAR
STARTCHAR 00AB
ENCODING 171
SWIDTH 630 0
DWIDTH 7 0
BBX 5 5 0 1
BITMAP
28
28
D0
58
28
ENDCHAR
STARTCHAR 00AC
ENCODING 172
SWIDTH 630 0
DWIDTH 7 0
BBX 6 2 0 3
BITMAP
FC
04
ENDCHAR
STARTCHAR 00AD
ENCODING 173
SWIDTH 630 0
DWIDTH 7 0
BBX 3 1 2 2
BITMAP
E0
ENDCHAR
STARTCHAR 00AE
ENCODING 174
SWIDTH 630 0
DWIDTH 7 0
BBX 7 7 0 0
BITMAP
38
74
AA
B2
AA
44
38
ENDCHAR
STARTCHAR 00AF
ENCODING 175
SWIDTH 630 0
DWIDTH 7 0
BBX 3 1 2 7
BITMAP
E0
ENDCHAR
STARTCHAR 00B0
ENCODING 176
SWIDTH 630 0
DWIDTH 7 0
BBX 3 4 2 4
BITMAP
C0
A0
A0
C0
ENDCHAR
STARTCHAR 00B1
ENCODING 177
SWIDTH 630 0
DWIDTH 7 0
BBX 6 6 0 0
BITMAP
10
10
FC
10
00
FC
ENDCHAR
STARTCHAR 00B2
ENCODING 178
SWIDTH 630 0
DWIDTH 7 0
BBX 3 5 2 6
BITMAP
C0
20
40
40
E0
ENDCHAR
STARTCHAR 00B3
ENCODING 179
SWIDTH 630 0
DWIDTH 7 0
BBX 3 5 2 6
BITMAP
E0
20
40
20
E0
ENDCHAR
STARTCHAR 00B4
ENCODING 180
SWIDTH 630 0
DWIDTH 7 0
BBX 2 2 3 7
BITMAP
40
80
ENDCHAR
STARTCHAR 00B5
ENCODING 181
SWIDTH 630 0
DWIDTH 7 0
BBX 5 8 1 -2
BITMAP
88
88
88
88
98
E8
80
80
ENDCHAR
STARTCHAR 00B6
ENCODING 182
SWIDTH 630 0
DWIDTH 7 0
BBX 5 9 1 -1
BITMAP
F8
E8
E8
E8
28
28
28
28
28
ENDCHAR
STARTCHAR 00B7
ENCODING 183
SWIDTH 630 0
DWIDTH 7 0
BBX 2 2 2 3
BITMAP
40
C0
ENDCHAR
STARTCHAR 00B8
ENCODING 184
SWIDTH 630 0
DWIDTH 7 0
BBX 2 2 2 -2
BITMAP
40
C0
ENDCHAR
STARTCHAR 00B9
ENCODING 185
SWIDTH 630 0
DWIDTH 7 0
BBX 3 5 2 6
BITMAP
C0
40
40
40
E0
ENDCHAR
STARTCHAR 00BA
ENCODING 186
SWIDTH 630 0
DWIDTH 7 0
BBX 4 6 1 2
BITMAP
60
90
90
90
60
F0
ENDCHAR
STARTCHAR 00BB
ENCODING 187
SWIDTH 630 0
DWIDTH 7 0
BBX 5 5 1 1
BITMAP
A0
D0
28
48
90
ENDCHAR
STARTCHAR 00BC
ENCODING 188
SWIDTH 630 0
DWIDTH 7 0
BBX 6 10 0 -2
BITMAP
E0
20
20
74
78
88
18
18
3C
08
ENDCHAR
STARTCHAR 00BD
ENCODING 189
SWIDTH 630 0
DWIDTH 7 0
BBX 6 10 0 -2
BITMAP
E0
20
20
74
78
98
04
04
08
1C
ENDCHAR
STARTCHAR 00BE
ENCODING 190
SWIDTH 630 0
DWIDTH 7 0
BBX 6 11 0 -2
BITMAP
60
10
60
10
64
78
88
18
18
3C
08
ENDCHAR
STARTCHAR 00BF
ENCODING 191
SWIDTH 630 0
DWIDTH 7 0
BBX 4 8 1 0
BITMAP
20
20
20
20
40
80
90
70
ENDCHAR
STARTCHAR 00C0
ENCODING 192
SWIDTH 630 0
DWIDTH 7 0
BBX 6 10 0 0
BITMAP
20
10
10
30
28
28
48
7C
44
84
ENDCHAR
STARTCHAR 00C1
ENCODING 193
SWIDTH 630 0
DWIDTH 7 0
BBX 6 10 0 0
BITMAP
18
00
10
30
28
28
48
7C
44
84
ENDCHAR
STARTCHAR 00C2
ENCODING 194
SWIDTH 630 0
DWIDTH 7 0
BBX 6 10 0 0
BITMAP
30
08
10
30
28
28
48
7C
44
84
ENDCHAR
STARTCHAR 00C3
ENCODING 195
SWIDTH 630 0
DWIDTH 7 0
BBX 6 10 0 0
BITMAP
28
58
10
30
28
28
48
7C
44
84
ENDCHAR
STARTCHAR 00C4
ENCODING 196
SWIDTH 630 0
DWIDTH 7 0
BBX 6 10 0 0
BITMAP
28
00
10
30
28
28
48
7C
44
84
ENDCHAR
STARTCHAR 00C5
ENCODING 197
SWIDTH 630 0
DWIDTH 7 0
BBX 6 10 0 0
BITMAP
38
28
30
28
28
28
48
7C
44
84
ENDCHAR
STARTCHAR 00C6
ENCODING 198
SWIDTH 630 0
DWIDTH 7 0
BBX 6 8 0 0
BITMAP
3C
30
50
5C
50
70
90
9C
ENDCHAR
STARTCHAR 00C7
ENCODING 199
SWIDTH 630 0
DWIDTH 7 0
BBX 5 10 1 -2
BITMAP
78
C8
80
80
80
80
C0
78
10
30
ENDCHAR
STARTCHAR 00C8
ENCODING 200
SWIDTH 630 0
DWIDTH 7 0
BBX 5 10 1 0
BITMAP
60
00
F8
80
80
F8
80
80
80
F8
ENDCHAR
STARTCHAR 00C9
ENCODING 201
SWIDTH 630 0
DWIDTH 7 0
BBX 5 10 1 0
BITMAP
30
00
F8
80
80
F8
80
80
80
F8
ENDCHAR
STARTCHAR 00CA
ENCODING 202
SWIDTH 630 0
DWIDTH 7 0
BBX 5 10 1 0
BITMAP
20
50
F8
80
80
F8
80
80
80
F8
ENDCHAR
STARTCHAR 00CB
ENCODING 203
SWIDTH 630 0
DWIDTH 7 0
BBX 5 10 1 0
BITMAP
50
00
F8
80
80
F8
80
80
80
F8
ENDCHAR
STARTCHAR 00CC
ENCODING 204
SWIDTH 630 0
DWIDTH 7 0
BBX 5 10 1 0
BITMAP
40
20
F8
20
20
20
20
20
20
F8
ENDCHAR
STARTCHAR 00CD
ENCODING 205
SWIDTH 630 0
DWIDTH 7 0
BBX 5 10 1 0
BITMAP
30
00
F8
20
20
20
20
20
20
F8
ENDCHAR
STARTCHAR 00CE
ENCODING 206
SWIDTH 630 0
DWIDTH 7 0
BBX 5 10 1 0
BITMAP
60
10
F8
20
20
20
20
20
20
F8
ENDCHAR
STARTCHAR 00CF
ENCODING 207
SWIDTH 630 0
DWIDTH 7 0
BBX 5 10 1 0
BITMAP
50
00
F8
20
20
20
20
20
20
F8
ENDCHAR
STARTCHAR 00D0
ENCODING 208
SWIDTH 630 0
DWIDTH 7 0
BBX 6 8 0 0
BITMAP
78
48
44
E4
44
44
48
78
ENDCHAR
STARTCHAR 00D1
ENCODING 209
SWIDTH 630 0
DWIDTH 7 0
BBX 5 10 1 0
BITMAP
50
B0
88
C8
C8
A8
A8
A8
98
98
ENDCHAR
STARTCHAR 00D2
ENCODING 210
SWIDTH 630 0
DWIDTH 7 0
BBX 5 10 1 0
BITMAP
40
20
70
88
88
88
88
88
88
70
ENDCHAR
STARTCHAR 00D3
ENCODING 211
SWIDTH 630 0
DWIDTH 7 0
BBX 5 10 1 0
BITMAP
30
20
70
88
88
88
88
88
88
70
ENDCHAR
STARTCHAR 00D4
ENCODING 212
SWIDTH 630 0
DWIDTH 7 0
BBX 5 10 1 0
BITMAP
20
50
70
88
88
88
88
88
88
70
ENDCHAR
STARTCHAR 00D5
ENCODING 213
SWIDTH 630 0
DWIDTH 7 0
BBX 5 10 1 0
BITMAP
70
00
70
88
88
88
88
88
88
70
ENDCHAR
STARTCHAR 00D6
ENCODING 214
SWIDTH 630 0
DWIDTH 7 0
BBX 5 10 1 0
BITMAP
50
00
70
88
88
88
88
88
88
70
ENDCHAR
STARTCHAR 00D7
ENCODING 215
SWIDTH 630 0
DWIDTH 7 0
BBX 5 5 1 1
BITMAP
88
50
20
50
88
ENDCHAR
STARTCHAR 00D8
ENCODING 216
SWIDTH 630 0
DWIDTH 7 0
BBX 7 8 0 0
BITMAP
3E
4C
4C
54
64
64
44
B8
ENDCHAR
STARTCHAR 00D9
ENCODING 217
SWIDTH 630 0
DWIDTH 7 0
BBX 5 10 1 0
BITMAP
40
20
88
88
88
88
88
88
88
70
ENDCHAR
STARTCHAR 00DA
ENCODING 218
SWIDTH 630 0
DWIDTH 7 0
BBX 5 10 1 0
BITMAP
30
00
88
88
88
88
88
88
88
70
ENDCHAR
STARTCHAR 00DB
ENCODING 219
SWIDTH 630 0
DWIDTH 7 0
BBX 5 10 1 0
BITMAP
60
10
88
88
88
88
88
88
88
70
ENDCHAR
STARTCHAR 00DC
ENCODING 220
SWIDTH 630 0
DWIDTH 7 0
BBX 5 10 1 0
BITMAP
50
00
88
88
88
88
88
88
88
70
ENDCHAR
STARTCHAR 00DD
ENCODING 221
SWIDTH 630 0
DWIDTH 7 0
BBX 6 10 0 0
BITMAP
18
00
C4
4C
28
30
10
10
10
10
ENDCHAR
STARTCHAR 00DE
ENCODING 222
SWIDTH 630 0
DWIDTH 7 0
BBX 5 8 1 0
BITMAP
80
80
F8
88
88
F8
80
80
ENDCHAR
STARTCHAR 00DF
ENCODING 223
SWIDTH 630 0
DWIDTH 7 0
BBX 5 8 1 0
BITMAP
70
88
B0
A0
B0
88
88
F8
ENDCHAR
STARTCHAR 00E0
ENCODING 224
SWIDTH 630 0
DWIDTH 7 0
BBX 5 9 1 0
BITMAP
40
20
00
F0
08
78
88
98
E8
ENDCHAR
STARTCHAR 00E1
ENCODING 225
SWIDTH 630 0
DWIDTH 7 0
BBX 5 9 1 0
BITMAP
10
20
00
F0
08
78
88
98
E8
ENDCHAR
STARTCHAR 00E2
ENCODING 226
SWIDTH 630 0
DWIDTH 7 0
BBX 5 9 1 0
BITMAP
20
50
00
F0
08
78
88
98
E8
ENDCHAR
STARTCHAR 00E3
ENCODING 227
SWIDTH 630 0
DWIDTH 7 0
BBX 5 9 1 0
BITMAP
50
B0
00
F0
08
78
88
98
E8
ENDCHAR
STARTCHAR 00E4
ENCODING 228
SWIDTH 630 0
DWIDTH 7 0
BBX 5 8 1 0
BITMAP
50
00
F0
08
78
88
98
E8
ENDCHAR
STARTCHAR 00E5
ENCODING 229
SWIDTH 630 0
DWIDTH 7 0
BBX 5 10 1 0
BITMAP
60
50
60
00
F0
08
78
88
98
E8
ENDCHAR
STARTCHAR 00E6
ENCODING 230
SWIDTH 630 0
DWIDTH 7 0
BBX 7 6 0 0
BITMAP
6C
12
7E
90
90
6C
ENDCHAR
STARTCHAR 00E7
ENCODING 231
SWIDTH 630 0
DWIDTH 7 0
BBX 5 8 1 -2
BITMAP
78
80
80
80
80
78
10
30
ENDCHAR
STARTCHAR 00E8
ENCODING 232
SWIDTH 630 0
DWIDTH 7 0
BBX 5 9 1 0
BITMAP
40
20
00
70
88
F8
80
88
78
ENDCHAR
STARTCHAR 00E9
ENCODING 233
SWIDTH 630 0
DWIDTH 7 0
BBX 5 9 1 0
BITMAP
10
20
00
70
88
F8
80
80
78
ENDCHAR
STARTCHAR 00EA
ENCODING 234
SWIDTH 630 0
DWIDTH 7 0
BBX 5 9 1 0
BITMAP
20
50
00
70
88
F8
80
80
78
ENDCHAR
STARTCHAR 00EB
ENCODING 235
SWIDTH 630 0
DWIDTH 7 0
BBX 5 8 1 0
BITMAP
50
00
70
88
F8
80
80
78
ENDCHAR
STARTCHAR 00EC
ENCODING 236
SWIDTH 630 0
DWIDTH 7 0
BBX 5 9 1 0
BITMAP
80
40
20
E0
20
20
20
20
38
ENDCHAR
STARTCHAR 00ED
ENCODING 237
SWIDTH 630 0
DWIDTH 7 0
BBX 5 9 1 0
BITMAP
10
10
20
E0
20
20
20
20
38
ENDCHAR
STARTCHAR 00EE
ENCODING 238
SWIDTH 630 0
DWIDTH 7 0
BBX 5 9 1 0
BITMAP
20
60
90
E0
20
20
20
20
38
ENDCHAR
STARTCHAR 00EF
ENCODING 239
SWIDTH 630 0
DWIDTH 7 0
BBX 5 8 1 0
BITMAP
50
00
E0
20
20
20
20
38
ENDCHAR
STARTCHAR 00F0
ENCODING 240
SWIDTH 630 0
DWIDTH 7 0
BBX 5 8 1 0
BITMAP
50
A0
70
88
88
88
88
70
ENDCHAR
STARTCHAR 00F1
ENCODING 241
SWIDTH 630 0
DWIDTH 7 0
BBX 5 8 1 0
BITMAP
70
00
F0
88
88
88
88
88
ENDCHAR
STARTCHAR 00F2
ENCODING 242
SWIDTH 630 0
DWIDTH 7 0
BBX 5 9 1 0
BITMAP
40
20
00
70
88
88
88
88
70
ENDCHAR
STARTCHAR 00F3
ENCODING 243
SWIDTH 630 0
DWIDTH 7 0
BBX 5 9 1 0
BITMAP
10
20
00
70
88
88
88
88
70
ENDCHAR
STARTCHAR 00F4
ENCODING 244
SWIDTH 630 0
DWIDTH 7 0
BBX 5 9 1 0
BITMAP
20
50
00
70
88
88
88
88
70
ENDCHAR
STARTCHAR 00F5
ENCODING 245
SWIDTH 630 0
DWIDTH 7 0
BBX 5 8 1 0
BITMAP
70
00
70
88
88
88
88
70
ENDCHAR
STARTCHAR 00F6
ENCODING 246
SWIDTH 630 0
DWIDTH 7 0
BBX 5 8 1 0
BITMAP
50
00
70
88
88
88
88
70
ENDCHAR
STARTCHAR 00F7
ENCODING 247
SWIDTH 630 0
DWIDTH 7 0
BBX 6 5 0 1
BITMAP
10
00
FC
00
10
ENDCHAR
STARTCHAR 00F8
ENCODING 248
SWIDTH 630 0
DWIDTH 7 0
BBX 6 6 0 0
BITMAP
3C
4C
54
64
44
F8
ENDCHAR
STARTCHAR 00F9
ENCODING 249
SWIDTH 630 0
DWIDTH 7 0
BBX 5 9 1 0
BITMAP
40
20
00
88
88
88
88
98
68
ENDCHAR
STARTCHAR 00FA
ENCODING 250
SWIDTH 630 0
DWIDTH 7 0
BBX 5 9 1 0
BITMAP
10
20
00
88
88
88
88
98
68
ENDCHAR
STARTCHAR 00FB
ENCODING 251
SWIDTH 630 0
DWIDTH 7 0
BBX 5 9 1 0
BITMAP
20
50
00
88
88
88
88
98
68
ENDCHAR
STARTCHAR 00FC
ENCODING 252
SWIDTH 630 0
DWIDTH 7 0
BBX 5 8 1 0
BITMAP
50
00
88
88
88
88
98
68
ENDCHAR
STARTCHAR 00FD
ENCODING 253
SWIDTH 630 0
DWIDTH 7 0
BBX 5 11 1 -2
BITMAP
10
20
00
88
88
50
50
60
20
20
C0
ENDCHAR
STARTCHAR 00FE
ENCODING 254
SWIDTH 630 0
DWIDTH 7 0
BBX 5 10 1 -2
BITMAP
80
80
F0
88
88
88
88
F0
80
80
ENDCHAR
STARTCHAR 00FF
ENCODING 255
SWIDTH 630 0
DWIDTH 7 0
BBX 5 10 1 -2
BITMAP
50
00
88
88
50
50
60
20
20
C0
ENDCHAR
STARTCHAR 0100
ENCODING 256
SWIDTH 630 0
DWIDTH 7 0
BBX 6 10 0 0
BITMAP
38
00
10
30
28
28
48
7C
44
84
ENDCHAR
STARTCHAR 0101
ENCODING 257
SWIDTH 630 0
DWIDTH 7 0
BBX 5 8 1 0
BITMAP
70
00
F0
08
78
88
98
E8
ENDCHAR
STARTCHAR 0102
ENCODING 258
SWIDTH 630 0
DWIDTH 7 0
BBX 6 9 0 0
BITMAP
38
10
30
28
28
48
7C
44
84
ENDCHAR
STARTCHAR 0103
ENCODING 259
SWIDTH 630 0
DWIDTH 7 0
BBX 5 8 1 0
BITMAP
70
00
F0
08
78
88
98
E8
ENDCHAR
STARTCHAR 0104
ENCODING 260
SWIDTH 630 0
DWIDTH 7 0
BBX 7 10 0 -2
BITMAP
10
30
28
28
48
7C
44
84
04
06
ENDCHAR
STARTCHAR 0105
ENCODING 261
SWIDTH 630 0
DWIDTH 7 0
BBX 6 8 1 -2
BITMAP
F0
08
78
88
98
E8
10
0C
ENDCHAR
STARTCHAR 0106
ENCODING 262
SWIDTH 630 0
DWIDTH 7 0
BBX 5 10 1 0
BITMAP
10
20
78
C8
80
80
80
80
C0
78
ENDCHAR
STARTCHAR 0107
ENCODING 263
SWIDTH 630 0
DWIDTH 7 0
BBX 5 9 1 0
BITMAP
18
20
00
78
80
80
80
80
78
ENDCHAR
STARTCHAR 0108
ENCODING 264
SWIDTH 630 0
DWIDTH 7 0
BBX 5 10 1 0
BITMAP
30
50
78
C8
80
80
80
80
C0
78
ENDCHAR
STARTCHAR 0109
ENCODING 265
SWIDTH 630 0
DWIDTH 7 0
BBX 5 9 1 0
BITMAP
20
50
00
78
80
80
80
80
78
ENDCHAR
STARTCHAR 010A
ENCODING 266
SWIDTH 630 0
DWIDTH 7 0
BBX 5 10 1 0
BITMAP
20
00
78
C8
80
80
80
80
C0
78
ENDCHAR
STARTCHAR 010B
ENCODING 267
SWIDTH 630 0
DWIDTH 7 0
BBX 5 8 1 0
BITMAP
20
00
78
80
80
80
80
78
ENDCHAR
STARTCHAR 010C
ENCODING 268
SWIDTH 630 0
DWIDTH 7 0
BBX 5 10 1 0
BITMAP
50
20
78
C8
80
80
80
80
C0
78
ENDCHAR
STARTCHAR 010D
ENCODING 269
SWIDTH 630 0
DWIDTH 7 0
BBX 5 9 1 0
BITMAP
50
20
00
78
80
80
80
80
78
ENDCHAR
STARTCHAR 010E
ENCODING 270
SWIDTH 630 0
DWIDTH 7 0
BBX 5 10 1 0
BITMAP
F0
00
F0
90
88
88
88
88
90
F0
ENDCHAR
STARTCHAR 010F
ENCODING 271
SWIDTH 630 0
DWIDTH 7 0
BBX 6 8 1 0
BITMAP
14
14
F0
90
90
90
90
E8
ENDCHAR
STARTCHAR 0110
ENCODING 272
SWIDTH 630 0
DWIDTH 7 0
BBX 6 8 0 0
BITMAP
78
48
44
E4
44
44
48
78
ENDCHAR
STARTCHAR 0111
ENCODING 273
SWIDTH 630 0
DWIDTH 7 0
BBX 6 8 1 0
BITMAP
3C
08
68
98
88
88
98
68
ENDCHAR
STARTCHAR 0112
ENCODING 274
SWIDTH 630 0
DWIDTH 7 0
BBX 5 10 1 0
BITMAP
70
00
F8
80
80
F8
80
80
80
F8
ENDCHAR
STARTCHAR 0113
ENCODING 275
SWIDTH 630 0
DWIDTH 7 0
BBX 5 8 1 0
BITMAP
70
00
70
88
F8
80
80
78
ENDCHAR
STARTCHAR 0114
ENCODING 276
SWIDTH 630 0
DWIDTH 7 0
BBX 5 10 1 0
BITMAP
50
70
F8
80
80
F8
80
80
80
F8
ENDCHAR
STARTCHAR 0115
ENCODING 277
SWIDTH 630 0
DWIDTH 7 0
BBX 5 8 1 0
BITMAP
70
00
70
88
F8
80
80
78
ENDCHAR
STARTCHAR 0116
ENCODING 278
SWIDTH 630 0
DWIDTH 7 0
BBX 5 10 1 0
BITMAP
20
00
F8
80
80
F8
80
80
80
F8
ENDCHAR
STARTCHAR 0117
ENCODING 279
SWIDTH 630 0
DWIDTH 7 0
BBX 5 8 1 0
BITMAP
20
00
70
88
F8
80
80
78
ENDCHAR
STARTCHAR 0118
ENCODING 280
SWIDTH 630 0
DWIDTH 7 0
BBX 5 10 1 -2
BITMAP
F8
80
80
F8
80
80
80
F8
10
18
ENDCHAR
STARTCHAR 0119
ENCODING 281
SWIDTH 630 0
DWIDTH 7 0
BBX 5 8 1 -2
BITMAP
70
88
F8
80
80
78
10
18
ENDCHAR
STARTCHAR 011A
ENCODING 282
SWIDTH 630 0
DWIDTH 7 0
BBX 5 10 1 0
BITMAP
50
20
F8
80
80
F8
80
80
80
F8
ENDCHAR
STARTCHAR 011B
ENCODING 283
SWIDTH 630 0
DWIDTH 7 0
BBX 5 9 1 0
BITMAP
50
20
00
70
88
F8
80
88
78
ENDCHAR
STARTCHAR 011C
ENCODING 284
SWIDTH 630 0
DWIDTH 7 0
BBX 5 10 1 0
BITMAP
30
50
78
88
80
80
98
88
88
78
ENDCHAR
STARTCHAR 011D
ENCODING 285
SWIDTH 630 0
DWIDTH 7 0
BBX 5 11 1 -2
BITMAP
20
50
00
78
88
88
88
88
78
08
F0
ENDCHAR
STARTCHAR 011E
ENCODING 286
SWIDTH 630 0
DWIDTH 7 0
BBX 5 9 1 0
BITMAP
70
78
88
80
80
98
88
88
78
ENDCHAR
STARTCHAR 011F
ENCODING 287
SWIDTH 630 0
DWIDTH 7 0
BBX 5 10 1 -2
BITMAP
70
00
68
98
88
88
98
68
08
F0
ENDCHAR
STARTCHAR 0120
ENCODING 288
SWIDTH 630 0
DWIDTH 7 0
BBX 5 10 1 0
BITMAP
20
00
78
88
80
80
98
88
88
78
ENDCHAR
STARTCHAR 0121
ENCODING 289
SWIDTH 630 0
DWIDTH 7 0
BBX 5 10 1 -2
BITMAP
20
00
78
88
88
88
88
78
08
F0
ENDCHAR
STARTCHAR 0122
ENCODING 290
SWIDTH 630 0
DWIDTH 7 0
BBX 5 11 1 -3
BITMAP
78
88
80
80
98
88
88
78
00
30
20
ENDCHAR
STARTCHAR 0123
ENCODING 291
SWIDTH 630 0
DWIDTH 7 0
BBX 5 11 1 -2
BITMAP
10
20
00
78
88
88
88
88
78
08
F0
ENDCHAR
STARTCHAR 0124
ENCODING 292
SWIDTH 630 0
DWIDTH 7 0
BBX 5 10 1 0
BITMAP
60
10
88
88
88
F8
88
88
88
88
ENDCHAR
STARTCHAR 0125
ENCODING 293
SWIDTH 630 0
DWIDTH 7 0
BBX 5 10 1 0
BITMAP
30
48
80
80
F0
88
88
88
88
88
ENDCHAR
STARTCHAR 0126
ENCODING 294
SWIDTH 630 0
DWIDTH 7 0
BBX 7 8 0 0
BITMAP
44
FE
44
7C
44
44
44
44
ENDCHAR
STARTCHAR 0127
ENCODING 295
SWIDTH 630 0
DWIDTH 7 0
BBX 6 8 0 0
BITMAP
F0
40
78
44
44
44
44
44
ENDCHAR
STARTCHAR 0128
ENCODING 296
SWIDTH 630 0
DWIDTH 7 0
BBX 5 10 1 0
BITMAP
50
B0
F8
20
20
20
20
20
20
F8
ENDCHAR
STARTCHAR 0129
ENCODING 297
SWIDTH 630 0
DWIDTH 7 0
BBX 5 8 1 0
BITMAP
50
B0
E0
20
20
20
20
38
ENDCHAR
STARTCHAR 012A
ENCODING 298
SWIDTH 630 0
DWIDTH 7 0
BBX 5 10 1 0
BITMAP
70
00
F8
20
20
20
20
20
20
F8
ENDCHAR
STARTCHAR 012B
ENCODING 299
SWIDTH 630 0
DWIDTH 7 0
BBX 5 8 1 0
BITMAP
F0
00
E0
20
20
20
20
38
ENDCHAR
STARTCHAR 012C
ENCODING 300
SWIDTH 630 0
DWIDTH 7 0
BBX 5 10 1 0
BITMAP
50
60
F8
20
20
20
20
20
20
F8
ENDCHAR
STARTCHAR 012D
ENCODING 301
SWIDTH 630 0
DWIDTH 7 0
BBX 5 8 1 0
BITMAP
70
00
E0
20
20
20
20
38
ENDCHAR
STARTCHAR 012E
ENCODING 302
SWIDTH 630 0
DWIDTH 7 0
BBX 5 10 1 -2
BITMAP
F8
20
20
20
20
20
20
F8
20
30
ENDCHAR
STARTCHAR 012F
ENCODING 303
SWIDTH 630 0
DWIDTH 7 0
BBX 5 10 1 -2
BITMAP
20
00
E0
20
20
20
20
38
10
18
ENDCHAR
STARTCHAR 0130
ENCODING 304
SWIDTH 630 0
DWIDTH 7 0
BBX 5 10 1 0
BITMAP
20
00
F8
20
20
20
20
20
20
F8
ENDCHAR
STARTCHAR 0131
ENCODING 305
SWIDTH 630 0
DWIDTH 7 0
BBX 5 6 1 0
BITMAP
E0
20
20
20
20
38
ENDCHAR
STARTCHAR 0132
ENCODING 306
SWIDTH 630 0
DWIDTH 7 0
BBX 5 8 1 0
BITMAP
B8
88
88
88
88
88
08
F0
ENDCHAR
STARTCHAR 0133
ENCODING 307
SWIDTH 630 0
DWIDTH 7 0
BBX 5 10 1 -2
BITMAP
88
00
B8
88
88
88
88
88
08
70
ENDCHAR
STARTCHAR 0134
ENCODING 308
SWIDTH 630 0
DWIDTH 7 0
BBX 5 10 1 0
BITMAP
18
20
70
10
10
10
10
10
90
E0
ENDCHAR
STARTCHAR 0135
ENCODING 309
SWIDTH 630 0
DWIDTH 7 0
BBX 5 11 1 -2
BITMAP
30
68
00
70
10
10
10
10
10
20
E0
ENDCHAR
STARTCHAR 0136
ENCODING 310
SWIDTH 630 0
DWIDTH 7 0
BBX 6 11 1 -3
BITMAP
8C
90
A0
E0
A0
90
98
8C
00
30
20
ENDCHAR
STARTCHAR 0137
ENCODING 311
SWIDTH 630 0
DWIDTH 7 0
BBX 5 11 1 -3
BITMAP
80
80
98
B0
E0
B0
90
88
00
30
20
ENDCHAR
STARTCHAR 0138
ENCODING 312
SWIDTH 630 0
DWIDTH 7 0
BBX 5 6 1 0
BITMAP
98
A0
E0
A0
90
88
ENDCHAR
STARTCHAR 0139
ENCODING 313
SWIDTH 630 0
DWIDTH 7 0
BBX 5 10 1 0
BITMAP
40
80
80
80
80
80
80
80
80
F8
ENDCHAR
STARTCHAR 013A
ENCODING 314
SWIDTH 630 0
DWIDTH 7 0
BBX 5 10 1 0
BITMAP
20
40
C0
40
40
40
40
40
20
38
ENDCHAR
STARTCHAR 013B
ENCODING 315
SWIDTH 630 0
DWIDTH 7 0
BBX 5 11 1 -3
BITMAP
80
80
80
80
80
80
80
F8
00
30
20
ENDCHAR
STARTCHAR 013C
ENCODING 316
SWIDTH 630 0
DWIDTH 7 0
BBX 5 11 1 -3
BITMAP
C0
40
40
40
40
40
20
38
00
20
40
ENDCHAR
STARTCHAR 013D
ENCODING 317
SWIDTH 630 0
DWIDTH 7 0
BBX 5 8 1 0
BITMAP
90
90
80
80
80
80
80
F8
ENDCHAR
STARTCHAR 013E
ENCODING 318
SWIDTH 630 0
DWIDTH 7 0
BBX 5 8 1 0
BITMAP
C8
48
40
40
40
40
20
38
ENDCHAR
STARTCHAR 013F
ENCODING 319
SWIDTH 630 0
DWIDTH 7 0
BBX 5 8 1 0
BITMAP
80
80
80
80
90
80
80
F8
ENDCHAR
STARTCHAR 0140
ENCODING 320
SWIDTH 630 0
DWIDTH 7 0
BBX 5 8 1 0
BITMAP
E0
20
20
20
28
20
20
38
ENDCHAR
STARTCHAR 0141
ENCODING 321
SWIDTH 630 0
DWIDTH 7 0
BBX 6 8 0 0
BITMAP
40
40
50
60
40
C0
40
7C
ENDCHAR
STARTCHAR 0142
ENCODING 322
SWIDTH 630 0
DWIDTH 7 0
BBX 6 8 0 0
BITMAP
60
20
2C
30
60
A0
10
1C
ENDCHAR
STARTCHAR 0143
ENCODING 323
SWIDTH 630 0
DWIDTH 7 0
BBX 5 10 1 0
BITMAP
10
20
88
C8
C8
A8
A8
A8
98
98
ENDCHAR
STARTCHAR 0144
ENCODING 324
SWIDTH 630 0
DWIDTH 7 0
BBX 5 9 1 0
BITMAP
10
20
00
F0
88
88
88
88
88
ENDCHAR
STARTCHAR 0145
ENCODING 325
SWIDTH 630 0
DWIDTH 7 0
BBX 5 11 1 -3
BITMAP
88
C8
C8
A8
A8
A8
98
98
00
20
40
ENDCHAR
STARTCHAR 0146
ENCODING 326
SWIDTH 630 0
DWIDTH 7 0
BBX 5 9 1 -3
BITMAP
F0
88
88
88
88
88
00
20
60
ENDCHAR
STARTCHAR 0147
ENCODING 327
SWIDTH 630 0
DWIDTH 7 0
BBX 5 10 1 0
BITMAP
50
20
88
C8
C8
A8
A8
A8
98
98
ENDCHAR
STARTCHAR 0148
ENCODING 328
SWIDTH 630 0
DWIDTH 7 0
BBX 5 9 1 0
BITMAP
50
20
00
F0
88
88
88
88
88
ENDCHAR
STARTCHAR 0149
ENCODING 329
SWIDTH 630 0
DWIDTH 7 0
BBX 7 8 0 0
BITMAP
40
C0
BC
26
22
22
22
22
ENDCHAR
STARTCHAR 014A
ENCODING 330
SWIDTH 630 0
DWIDTH 7 0
BBX 5 10 1 -2
BITMAP
F0
88
88
88
88
88
88
88
08
30
ENDCHAR
STARTCHAR 014B
ENCODING 331
SWIDTH 630 0
DWIDTH 7 0
BBX 5 8 1 -2
BITMAP
F0
88
88
88
88
88
08
30
ENDCHAR
STARTCHAR 014C
ENCODING 332
SWIDTH 630 0
DWIDTH 7 0
BBX 5 10 1 0
BITMAP
70
00
70
88
88
88
88
88
88
70
ENDCHAR
STARTCHAR 014D
ENCODING 333
SWIDTH 630 0
DWIDTH 7 0
BBX 5 8 1 0
BITMAP
70
00
70
88
88
88
88
70
ENDCHAR
STARTCHAR 014E
ENCODING 334
SWIDTH 630 0
DWIDTH 7 0
BBX 5 9 1 0
BITMAP
70
70
88
88
88
88
88
88
70
ENDCHAR
STARTCHAR 014F
ENCODING 335
SWIDTH 630 0
DWIDTH 7 0
BBX 5 8 1 0
BITMAP
70
00
70
88
88
88
88
70
ENDCHAR
STARTCHAR 0150
ENCODING 336
SWIDTH 630 0
DWIDTH 7 0
BBX 5 10 1 0
BITMAP
78
00
70
88
88
88
88
88
88
70
ENDCHAR
STARTCHAR 0151
ENCODING 337
SWIDTH 630 0
DWIDTH 7 0
BBX 5 9 1 0
BITMAP
38
50
00
70
88
88
88
88
70
ENDCHAR
STARTCHAR 0152
ENCODING 338
SWIDTH 630 0
DWIDTH 7 0
BBX 7 8 0 0
BITMAP
7E
48
C8
8C
88
C8
48
7E
ENDCHAR
STARTCHAR 0153
ENCODING 339
SWIDTH 630 0
DWIDTH 7 0
BBX 7 6 0 0
BITMAP
6C
92
9E
90
90
6C
ENDCHAR
STARTCHAR 0154
ENCODING 340
SWIDTH 630 0
DWIDTH 7 0
BBX 6 10 1 0
BITMAP
20
40
F0
98
88
98
E0
90
88
8C
ENDCHAR
STARTCHAR 0155
ENCODING 341
SWIDTH 630 0
DWIDTH 7 0
BBX 4 9 2 0
BITMAP
30
40
00
F0
80
80
80
80
80
ENDCHAR
STARTCHAR 0156
ENCODING 342
SWIDTH 630 0
DWIDTH 7 0
BBX 6 11 1 -3
BITMAP
F0
98
88
98
E0
90
88
8C
00
30
20
ENDCHAR
STARTCHAR 0157
ENCODING 343
SWIDTH 630 0
DWIDTH 7 0
BBX 5 9 1 -3
BITMAP
78
40
40
40
40
40
00
40
80
ENDCHAR
STARTCHAR 0158
ENCODING 344
SWIDTH 630 0
DWIDTH 7 0
BBX 6 10 1 0
BITMAP
F0
00
F0
98
88
98
E0
90
88
8C
ENDCHAR
STARTCHAR 0159
ENCODING 345
SWIDTH 630 0
DWIDTH 7 0
BBX 4 9 2 0
BITMAP
A0
40
00
F0
80
80
80
80
80
ENDCHAR
STARTCHAR 015A
ENCODING 346
SWIDTH 630 0
DWIDTH 7 0
BBX 5 10 1 0
BITMAP
30
20
70
88
80
E0
18
08
88
F0
ENDCHAR
STARTCHAR 015B
ENCODING 347
SWIDTH 630 0
DWIDTH 7 0
BBX 5 9 1 0
BITMAP
10
20
00
70
80
E0
10
08
F0
ENDCHAR
STARTCHAR 015C
ENCODING 348
SWIDTH 630 0
DWIDTH 7 0
BBX 5 10 1 0
BITMAP
20
50
70
88
80
E0
18
08
88
F0
ENDCHAR
STARTCHAR 015D
ENCODING 349
SWIDTH 630 0
DWIDTH 7 0
BBX 5 9 1 0
BITMAP
20
50
00
70
80
E0
10
08
F0
ENDCHAR
STARTCHAR 015E
ENCODING 350
SWIDTH 630 0
DWIDTH 7 0
BBX 5 10 1 -2
BITMAP
70
88
80
E0
18
08
88
F0
20
60
ENDCHAR
STARTCHAR 015F
ENCODING 351
SWIDTH 630 0
DWIDTH 7 0
BBX 5 8 1 -2
BITMAP
70
80
E0
10
08
F0
20
60
ENDCHAR
STARTCHAR 0160
ENCODING 352
SWIDTH 630 0
DWIDTH 7 0
BBX 5 10 1 0
BITMAP
50
20
70
88
80
E0
18
08
88
F0
ENDCHAR
STARTCHAR 0161
ENCODING 353
SWIDTH 630 0
DWIDTH 7 0
BBX 5 9 1 0
BITMAP
50
20
00
70
80
E0
10
08
F0
ENDCHAR
STARTCHAR 0162
ENCODING 354
SWIDTH 630 0
DWIDTH 7 0
BBX 6 10 0 -2
BITMAP
FC
10
10
10
10
10
10
10
10
30
ENDCHAR
STARTCHAR 0163
ENCODING 355
SWIDTH 630 0
DWIDTH 7 0
BBX 5 10 1 -2
BITMAP
40
40
F8
40
40
40
40
38
10
70
ENDCHAR
STARTCHAR 0164
ENCODING 356
SWIDTH 630 0
DWIDTH 7 0
BBX 6 10 0 0
BITMAP
28
10
FC
10
10
10
10
10
10
10
ENDCHAR
STARTCHAR 0165
ENCODING 357
SWIDTH 630 0
DWIDTH 7 0
BBX 5 9 1 0
BITMAP
18
50
40
F8
40
40
40
40
38
ENDCHAR
STARTCHAR 0166
ENCODING 358
SWIDTH 630 0
DWIDTH 7 0
BBX 6 8 0 0
BITMAP
FC
10
10
10
78
10
10
10
ENDCHAR
STARTCHAR 0167
ENCODING 359
SWIDTH 630 0
DWIDTH 7 0
BBX 5 8 1 0
BITMAP
40
40
F8
40
F0
40
40
38
ENDCHAR
STARTCHAR 0168
ENCODING 360
SWIDTH 630 0
DWIDTH 7 0
BBX 5 10 1 0
BITMAP
70
00
88
88
88
88
88
88
88
70
ENDCHAR
STARTCHAR 0169
ENCODING 361
SWIDTH 630 0
DWIDTH 7 0
BBX 5 8 1 0
BITMAP
70
00
88
88
88
88
98
68
ENDCHAR
STARTCHAR 016A
ENCODING 362
SWIDTH 630 0
DWIDTH 7 0
BBX 5 10 1 0
BITMAP
70
00
88
88
88
88
88
88
88
70
ENDCHAR
STARTCHAR 016B
ENCODING 363
SWIDTH 630 0
DWIDTH 7 0
BBX 5 8 1 0
BITMAP
70
00
88
88
88
88
98
68
ENDCHAR
STARTCHAR 016C
ENCODING 364
SWIDTH 630 0
DWIDTH 7 0
BBX 5 9 1 0
BITMAP
70
88
88
88
88
88
88
88
70
ENDCHAR
STARTCHAR 016D
ENCODING 365
SWIDTH 630 0
DWIDTH 7 0
BBX 5 8 1 0
BITMAP
70
00
88
88
88
88
98
68
ENDCHAR
STARTCHAR 016E
ENCODING 366
SWIDTH 630 0
DWIDTH 7 0
BBX 5 10 1 0
BITMAP
70
50
E8
88
88
88
88
88
88
70
ENDCHAR
STARTCHAR 016F
ENCODING 367
SWIDTH 630 0
DWIDTH 7 0
BBX 5 10 1 0
BITMAP
60
50
50
20
88
88
88
88
98
68
ENDCHAR
STARTCHAR 0170
ENCODING 368
SWIDTH 630 0
DWIDTH 7 0
BBX 5 10 1 0
BITMAP
78
00
88
88
88
88
88
88
88
70
ENDCHAR
STARTCHAR 0171
ENCODING 369
SWIDTH 630 0
DWIDTH 7 0
BBX 5 9 1 0
BITMAP
38
50
00
88
88
88
88
98
68
ENDCHAR
STARTCHAR 0172
ENCODING 370
SWIDTH 630 0
DWIDTH 7 0
BBX 5 10 1 -2
BITMAP
88
88
88
88
88
88
88
70
40
20
ENDCHAR
STARTCHAR 0173
ENCODING 371
SWIDTH 630 0
DWIDTH 7 0
BBX 6 8 1 -2
BITMAP
88
88
88
88
98
68
10
0C
ENDCHAR
STARTCHAR 0174
ENCODING 372
SWIDTH 630 0
DWIDTH 7 0
BBX 7 10 0 0
BITMAP
30
08
82
84
94
74
6C
6C
6C
4C
ENDCHAR
STARTCHAR 0175
ENCODING 373
SWIDTH 630 0
DWIDTH 7 0
BBX 7 9 0 0
BITMAP
10
30
48
82
84
54
74
6C
68
ENDCHAR
STARTCHAR 0176
ENCODING 374
SWIDTH 630 0
DWIDTH 7 0
BBX 6 10 0 0
BITMAP
30
08
C4
4C
28
30
10
10
10
10
ENDCHAR
STARTCHAR 0177
ENCODING 375
SWIDTH 630 0
DWIDTH 7 0
BBX 5 11 1 -2
BITMAP
20
50
00
88
88
50
50
60
20
20
C0
ENDCHAR
STARTCHAR 0178
ENCODING 376
SWIDTH 630 0
DWIDTH 7 0
BBX 6 10 0 0
BITMAP
28
00
C4
4C
28
30
10
10
10
10
ENDCHAR
STARTCHAR 0179
ENCODING 377
SWIDTH 630 0
DWIDTH 7 0
BBX 5 10 1 0
BITMAP
30
40
F8
10
10
20
40
40
80
F8
ENDCHAR
STARTCHAR 017A
ENCODING 378
SWIDTH 630 0
DWIDTH 7 0
BBX 5 9 1 0
BITMAP
08
10
20
F8
10
20
60
40
F8
ENDCHAR
STARTCHAR 017B
ENCODING 379
SWIDTH 630 0
DWIDTH 7 0
BBX 5 10 1 0
BITMAP
20
00
F8
10
10
20
40
40
80
F8
ENDCHAR
STARTCHAR 017C
ENCODING 380
SWIDTH 630 0
DWIDTH 7 0
BBX 5 8 1 0
BITMAP
20
00
F8
10
20
60
40
F8
ENDCHAR
STARTCHAR 017D
ENCODING 381
SWIDTH 630 0
DWIDTH 7 0
BBX 5 10 1 0
BITMAP
F0
00
F8
10
10
20
40
40
80
F8
ENDCHAR
STARTCHAR 017E
ENCODING 382
SWIDTH 630 0
DWIDTH 7 0
BBX 5 9 1 0
BITMAP
90
60
20
F8
10
20
60
40
F8
ENDCHAR
STARTCHAR 017F
ENCODING 383
SWIDTH 630 0
DWIDTH 7 0
BBX 5 9 1 -1
BITMAP
38
20
E0
20
20
20
20
20
20
ENDCHAR
STARTCHAR 0192
ENCODING 402
SWIDTH 630 0
DWIDTH 7 0
BBX 7 10 0 -2
BITMAP
0E
10
10
3C
10
10
10
20
20
E0
ENDCHAR
STARTCHAR 01A0
ENCODING 416
SWIDTH 630 0
DWIDTH 7 0
BBX 6 8 0 0
BITMAP
74
CC
88
88
88
88
C8
70
ENDCHAR
STARTCHAR 01A1
ENCODING 417
SWIDTH 630 0
DWIDTH 7 0
BBX 7 6 0 0
BITMAP
72
CC
88
88
C8
70
ENDCHAR
STARTCHAR 01A4
ENCODING 420
SWIDTH 630 0
DWIDTH 7 0
BBX 7 8 0 0
BITMAP
FC
A6
22
24
3C
20
20
20
ENDCHAR
STARTCHAR 01AF
ENCODING 431
SWIDTH 630 0
DWIDTH 7 0
BBX 7 8 0 0
BITMAP
8A
8C
88
88
88
88
88
70
ENDCHAR
STARTCHAR 01B0
ENCODING 432
SWIDTH 630 0
DWIDTH 7 0
BBX 6 6 0 0
BITMAP
8C
8C
88
88
88
78
ENDCHAR
STARTCHAR 01E6
ENCODING 486
SWIDTH 630 0
DWIDTH 7 0
BBX 5 10 1 0
BITMAP
50
20
78
88
80
80
98
88
88
78
ENDCHAR
STARTCHAR 01E7
ENCODING 487
SWIDTH 630 0
DWIDTH 7 0
BBX 5 11 1 -2
BITMAP
50
20
00
78
88
88
88
88
78
08
F0
ENDCHAR
STARTCHAR 01FE
ENCODING 510
SWIDTH 630 0
DWIDTH 7 0
BBX 7 10 0 0
BITMAP
18
10
3E
4C
4C
54
64
64
44
B8
ENDCHAR
STARTCHAR 01FF
ENCODING 511
SWIDTH 630 0
DWIDTH 7 0
BBX 6 9 0 0
BITMAP
08
10
00
3C
4C
54
64
44
F8
ENDCHAR
STARTCHAR 0218
ENCODING 536
SWIDTH 630 0
DWIDTH 7 0
BBX 5 11 1 -3
BITMAP
70
88
80
E0
18
08
88
F0
00
20
40
ENDCHAR
STARTCHAR 0219
ENCODING 537
SWIDTH 630 0
DWIDTH 7 0
BBX 5 9 1 -3
BITMAP
70
80
E0
10
08
F0
00
20
40
ENDCHAR
STARTCHAR 021A
ENCODING 538
SWIDTH 630 0
DWIDTH 7 0
BBX 6 10 0 -2
BITMAP
FC
10
10
10
10
10
10
10
10
30
ENDCHAR
STARTCHAR 021B
ENCODING 539
SWIDTH 630 0
DWIDTH 7 0
BBX 5 10 1 -2
BITMAP
40
40
F8
40
40
40
40
38
10
30
ENDCHAR
STARTCHAR 02C6
ENCODING 710
SWIDTH 630 0
DWIDTH 7 0
BBX 3 2 2 7
BITMAP
40
A0
ENDCHAR
STARTCHAR 02C7
ENCODING 711
SWIDTH 630 0
DWIDTH 7 0
BBX 3 2 2 7
BITMAP
A0
40
ENDCHAR
STARTCHAR 02D8
ENCODING 728
SWIDTH 630 0
DWIDTH 7 0
BBX 3 2 2 7
BITMAP
A0
E0
ENDCHAR
STARTCHAR 02D9
ENCODING 729
SWIDTH 630 0
DWIDTH 7 0
BBX 1 1 3 7
BITMAP
80
ENDCHAR
STARTCHAR 02DA
ENCODING 730
SWIDTH 630 0
DWIDTH 7 0
BBX 3 3 2 6
BITMAP
C0
A0
C0
ENDCHAR
STARTCHAR 02DB
ENCODING 731
SWIDTH 630 0
DWIDTH 7 0
BBX 2 2 2 -2
BITMAP
C0
C0
ENDCHAR
STARTCHAR 02DC
ENCODING 732
SWIDTH 630 0
DWIDTH 7 0
BBX 3 2 2 7
BITMAP
A0
E0
ENDCHAR
STARTCHAR 02DD
ENCODING 733
SWIDTH 630 0
DWIDTH 7 0
BBX 4 2 2 7
BITMAP
70
A0
ENDCHAR
STARTCHAR 0300
ENCODING 768
SWIDTH 0 0
DWIDTH 0 0
BBX 2 2 -5 7
BITMAP
80
40
ENDCHAR
STARTCHAR 0301
ENCODING 769
SWIDTH 0 0
DWIDTH 0 0
BBX 2 2 -4 7
BITMAP
40
80
ENDCHAR
STARTCHAR 0303
ENCODING 771
SWIDTH 0 0
DWIDTH 0 0
BBX 3 2 -5 7
BITMAP
E0
A0
ENDCHAR
STARTCHAR 0309
ENCODING 777
SWIDTH 0 0
DWIDTH 0 0
BBX 2 3 -4 6
BITMAP
C0
40
80
ENDCHAR
STARTCHAR 0323
ENCODING 803
SWIDTH 0 0
DWIDTH 0 0
BBX 1 1 -4 -2
BITMAP
80
ENDCHAR
STARTCHAR 0384
ENCODING 900
SWIDTH 630 0
DWIDTH 7 0
BBX 2 2 3 7
BITMAP
40
80
ENDCHAR
STARTCHAR 0385
ENCODING 901
SWIDTH 630 0
DWIDTH 7 0
BBX 4 3 1 7
BITMAP
10
20
90
ENDCHAR
STARTCHAR 0386
ENCODING 902
SWIDTH 630 0
DWIDTH 7 0
BBX 6 8 0 0
BITMAP
50
B0
28
28
48
7C
44
84
ENDCHAR
STARTCHAR 0388
ENCODING 904
SWIDTH 630 0
DWIDTH 7 0
BBX 8 8 -1 0
BITMAP
5F
90
10
1E
10
10
10
1F
ENDCHAR
STARTCHAR 0389
ENCODING 905
SWIDTH 630 0
DWIDTH 7 0
BBX 9 8 -2 0
BITMAP
3980
D980
1980
1F80
1980
1980
1980
1980
ENDCHAR
STARTCHAR 038A
ENCODING 906
SWIDTH 630 0
DWIDTH 7 0
BBX 7 8 -1 0
BITMAP
5E
8C
0C
0C
0C
0C
0C
1E
ENDCHAR
STARTCHAR 038C
ENCODING 908
SWIDTH 630 0
DWIDTH 7 0
BBX 7 8 -1 0
BITMAP
7C
B2
22
22
22
22
32
1C
ENDCHAR
STARTCHAR 038E
ENCODING 910
SWIDTH 630 0
DWIDTH 7 0
BBX 10 8 -3 0
BITMAP
39C0
45C0
8600
0200
0200
0200
0200
0200
ENDCHAR
STARTCHAR 038F
ENCODING 911
SWIDTH 630 0
DWIDTH 7 0
BBX 8 8 -1 0
BITMAP
7C
A2
22
22
22
22
12
37
ENDCHAR
STARTCHAR 0390
ENCODING 912
SWIDTH 630 0
DWIDTH 7 0
BBX 4 10 1 0
BITMAP
10
20
90
00
60
20
20
20
20
30
ENDCHAR
STARTCHAR 0391
ENCODING 913
SWIDTH 630 0
DWIDTH 7 0
BBX 6 8 0 0
BITMAP
10
30
28
28
48
7C
44
84
ENDCHAR
STARTCHAR 0392
ENCODING 914
SWIDTH 630 0
DWIDTH 7 0
BBX 5 8 1 0
BITMAP
F0
88
88
F0
88
88
88
F0
ENDCHAR
STARTCHAR 0393
ENCODING 915
SWIDTH 630 0
DWIDTH 7 0
BBX 5 8 1 0
BITMAP
F8
80
80
80
80
80
80
80
ENDCHAR
STARTCHAR 0394
ENCODING 916
SWIDTH 630 0
DWIDTH 7 0
BBX 6 8 0 0
BITMAP
10
30
28
28
48
44
44
FC
ENDCHAR
STARTCHAR 0395
ENCODING 917
SWIDTH 630 0
DWIDTH 7 0
BBX 5 8 1 0
BITMAP
F8
80
80
F8
80
80
80
F8
ENDCHAR
STARTCHAR 0396
ENCODING 918
SWIDTH 630 0
DWIDTH 7 0
BBX 5 8 1 0
BITMAP
F8
10
10
20
40
40
80
F8
ENDCHAR
STARTCHAR 0397
ENCODING 919
SWIDTH 630 0
DWIDTH 7 0
BBX 5 8 1 0
BITMAP
88
88
88
F8
88
88
88
88
ENDCHAR
STARTCHAR 0398
ENCODING 920
SWIDTH 630 0
DWIDTH 7 0
BBX 6 7 0 0
BITMAP
38
44
84
BC
84
44
38
ENDCHAR
STARTCHAR 0399
ENCODING 921
SWIDTH 630 0
DWIDTH 7 0
BBX 5 8 1 0
BITMAP
F8
20
20
20
20
20
20
F8
ENDCHAR
STARTCHAR 039A
ENCODING 922
SWIDTH 630 0
DWIDTH 7 0
BBX 6 8 1 0
BITMAP
8C
90
A0
E0
A0
90
98
8C
ENDCHAR
STARTCHAR 039B
ENCODING 923
SWIDTH 630 0
DWIDTH 7 0
BBX 6 8 0 0
BITMAP
10
30
28
28
48
44
44
84
ENDCHAR
STARTCHAR 039C
ENCODING 924
SWIDTH 630 0
DWIDTH 7 0
BBX 6 8 0 0
BITMAP
C4
AC
AC
B4
94
84
84
84
ENDCHAR
STARTCHAR 039D
ENCODING 925
SWIDTH 630 0
DWIDTH 7 0
BBX 5 8 1 0
BITMAP
88
C8
C8
A8
A8
A8
98
98
ENDCHAR
STARTCHAR 039E
ENCODING 926
SWIDTH 630 0
DWIDTH 7 0
BBX 5 8 1 0
BITMAP
F8
00
00
70
00
00
00
F8
ENDCHAR
STARTCHAR 039F
ENCODING 927
SWIDTH 630 0
DWIDTH 7 0
BBX 5 8 1 0
BITMAP
70
88
88
88
88
88
88
70
ENDCHAR
STARTCHAR 03A0
ENCODING 928
SWIDTH 630 0
DWIDTH 7 0
BBX 5 8 1 0
BITMAP
F8
88
88
88
88
88
88
88
ENDCHAR
STARTCHAR 03A1
ENCODING 929
SWIDTH 630 0
DWIDTH 7 0
BBX 5 8 1 0
BITMAP
F0
88
88
88
F0
80
80
80
ENDCHAR
STARTCHAR 03A3
ENCODING 931
SWIDTH 630 0
DWIDTH 7 0
BBX 5 8 1 0
BITMAP
F8
80
40
20
20
40
80
F8
ENDCHAR
STARTCHAR 03A4
ENCODING 932
SWIDTH 630 0
DWIDTH 7 0
BBX 6 8 0 0
BITMAP
FC
10
10
10
10
10
10
10
ENDCHAR
STARTCHAR 03A5
ENCODING 933
SWIDTH 630 0
DWIDTH 7 0
BBX 7 8 0 0
BITMAP
CE
2C
30
10
10
10
10
10
ENDCHAR
STARTCHAR 03A6
ENCODING 934
SWIDTH 630 0
DWIDTH 7 0
BBX 5 8 1 0
BITMAP
70
20
F8
A8
A8
F8
20
70
ENDCHAR
STARTCHAR 03A7
ENCODING 935
SWIDTH 630 0
DWIDTH 7 0
BBX 7 8 0 0
BITMAP
C4
68
28
10
30
28
44
C6
ENDCHAR
STARTCHAR 03A8
ENCODING 936
SWIDTH 630 0
DWIDTH 7 0
BBX 5 8 1 0
BITMAP
A8
A8
A8
A8
B8
70
20
70
ENDCHAR
STARTCHAR 03A9
ENCODING 937
SWIDTH 630 0
DWIDTH 7 0
BBX 6 8 0 0
BITMAP
38
44
44
C4
44
44
48
EC
ENDCHAR
STARTCHAR 03AA
ENCODING 938
SWIDTH 630 0
DWIDTH 7 0
BBX 5 10 1 0
BITMAP
50
00
F8
20
20
20
20
20
20
F8
ENDCHAR
STARTCHAR 03AB
ENCODING 939
SWIDTH 630 0
DWIDTH 7 0
BBX 7 10 0 0
BITMAP
28
00
CE
2C
30
10
10
10
10
10
ENDCHAR
STARTCHAR 03AC
ENCODING 940
SWIDTH 630 0
DWIDTH 7 0
BBX 6 9 0 0
BITMAP
08
10
00
74
4C
88
88
48
74
ENDCHAR
STARTCHAR 03AD
ENCODING 941
SWIDTH 630 0
DWIDTH 7 0
BBX 5 9 1 0
BITMAP
10
20
00
78
80
70
80
80
78
ENDCHAR
STARTCHAR 03AE
ENCODING 942
SWIDTH 630 0
DWIDTH 7 0
BBX 5 11 1 -2
BITMAP
10
20
00
F0
88
88
88
88
88
08
08
ENDCHAR
STARTCHAR 03AF
ENCODING 943
SWIDTH 630 0
DWIDTH 7 0
BBX 3 9 2 0
BITMAP
20
40
80
C0
40
40
40
40
60
ENDCHAR
STARTCHAR 03B0
ENCODING 944
SWIDTH 630 0
DWIDTH 7 0
BBX 6 10 0 0
BITMAP
08
10
48
00
CC
44
44
44
44
38
ENDCHAR
STARTCHAR 03B1
ENCODING 945
SWIDTH 630 0
DWIDTH 7 0
BBX 6 6 0 0
BITMAP
74
4C
88
88
48
74
ENDCHAR
STARTCHAR 03B2
ENCODING 946
SWIDTH 630 0
DWIDTH 7 0
BBX 5 10 1 -2
BITMAP
70
90
90
B0
88
88
88
F0
80
80
ENDCHAR
STARTCHAR 03B3
ENCODING 947
SWIDTH 630 0
DWIDTH 7 0
BBX 6 8 0 -2
BITMAP
C4
44
28
28
18
10
10
10
ENDCHAR
STARTCHAR 03B4
ENCODING 948
SWIDTH 630 0
DWIDTH 7 0
BBX 5 8 1 0
BITMAP
70
80
70
88
88
88
88
70
ENDCHAR
STARTCHAR 03B5
ENCODING 949
SWIDTH 630 0
DWIDTH 7 0
BBX 5 6 1 0
BITMAP
78
80
70
80
80
78
ENDCHAR
STARTCHAR 03B6
ENCODING 950
SWIDTH 630 0
DWIDTH 7 0
BBX 5 10 1 -2
BITMAP
F8
30
40
80
80
80
80
70
08
10
ENDCHAR
STARTCHAR 03B7
ENCODING 951
SWIDTH 630 0
DWIDTH 7 0
BBX 5 8 1 -2
BITMAP
F0
88
88
88
88
88
08
08
ENDCHAR
STARTCHAR 03B8
ENCODING 952
SWIDTH 630 0
DWIDTH 7 0
BBX 5 8 1 0
BITMAP
70
98
88
F8
88
88
98
70
ENDCHAR
STARTCHAR 03B9
ENCODING 953
SWIDTH 630 0
DWIDTH 7 0
BBX 3 6 2 0
BITMAP
C0
40
40
40
40
60
ENDCHAR
STARTCHAR 03BA
ENCODING 954
SWIDTH 630 0
DWIDTH 7 0
BBX 5 6 1 0
BITMAP
98
A0
E0
A0
90
88
ENDCHAR
STARTCHAR 03BB
ENCODING 955
SWIDTH 630 0
DWIDTH 7 0
BBX 6 8 0 0
BITMAP
60
10
10
18
28
28
44
C4
ENDCHAR
STARTCHAR 03BC
ENCODING 956
SWIDTH 630 0
DWIDTH 7 0
BBX 5 8 1 -2
BITMAP
88
88
88
88
88
F8
80
80
ENDCHAR
STARTCHAR 03BD
ENCODING 957
SWIDTH 630 0
DWIDTH 7 0
BBX 5 6 1 0
BITMAP
90
88
88
58
50
60
ENDCHAR
STARTCHAR 03BE
ENCODING 958
SWIDTH 630 0
DWIDTH 7 0
BBX 5 10 1 -2
BITMAP
F8
80
80
70
C0
80
80
70
08
18
ENDCHAR
STARTCHAR 03BF
ENCODING 959
SWIDTH 630 0
DWIDTH 7 0
BBX 5 6 1 0
BITMAP
70
88
88
88
88
70
ENDCHAR
STARTCHAR 03C0
ENCODING 960
SWIDTH 630 0
DWIDTH 7 0
BBX 6 6 0 0
BITMAP
FC
48
48
48
48
44
ENDCHAR
STARTCHAR 03C1
ENCODING 961
SWIDTH 630 0
DWIDTH 7 0
BBX 5 8 1 -2
BITMAP
70
88
88
88
88
F0
80
80
ENDCHAR
STARTCHAR 03C2
ENCODING 962
SWIDTH 630 0
DWIDTH 7 0
BBX 5 8 1 -2
BITMAP
78
80
80
80
80
70
08
10
ENDCHAR
STARTCHAR 03C3
ENCODING 963
SWIDTH 630 0
DWIDTH 7 0
BBX 5 6 1 0
BITMAP
78
90
88
88
98
70
ENDCHAR
STARTCHAR 03C4
ENCODING 964
SWIDTH 630 0
DWIDTH 7 0
BBX 5 6 1 0
BITMAP
F8
20
20
20
20
30
ENDCHAR
STARTCHAR 03C5
ENCODING 965
SWIDTH 630 0
DWIDTH 7 0
BBX 6 6 0 0
BITMAP
CC
44
44
44
44
38
ENDCHAR
STARTCHAR 03C6
ENCODING 966
SWIDTH 630 0
DWIDTH 7 0
BBX 6 8 0 -2
BITMAP
78
54
94
94
54
78
10
10
ENDCHAR
STARTCHAR 03C7
ENCODING 967
SWIDTH 630 0
DWIDTH 7 0
BBX 6 8 0 -2
BITMAP
C4
28
28
10
10
30
28
4C
ENDCHAR
STARTCHAR 03C8
ENCODING 968
SWIDTH 630 0
DWIDTH 7 0
BBX 5 8 1 -2
BITMAP
A8
A8
A8
A8
A8
70
20
20
ENDCHAR
STARTCHAR 03C9
ENCODING 969
SWIDTH 630 0
DWIDTH 7 0
BBX 6 6 0 0
BITMAP
44
44
94
94
54
6C
ENDCHAR
STARTCHAR 03CA
ENCODING 970
SWIDTH 630 0
DWIDTH 7 0
BBX 3 8 2 0
BITMAP
A0
00
C0
40
40
40
40
60
ENDCHAR
STARTCHAR 03CB
ENCODING 971
SWIDTH 630 0
DWIDTH 7 0
BBX 6 8 0 0
BITMAP
28
00
CC
44
44
44
44
38
ENDCHAR
STARTCHAR 03CC
ENCODING 972
SWIDTH 630 0
DWIDTH 7 0
BBX 5 9 1 0
BITMAP
10
20
00
70
88
88
88
88
70
ENDCHAR
STARTCHAR 03CD
ENCODING 973
SWIDTH 630 0
DWIDTH 7 0
BBX 6 9 0 0
BITMAP
08
10
20
CC
44
44
44
44
38
ENDCHAR
STARTCHAR 03CE
ENCODING 974
SWIDTH 630 0
DWIDTH 7 0
BBX 6 9 0 0
BITMAP
08
10
00
44
44
94
94
54
6C
ENDCHAR
STARTCHAR 03F4
ENCODING 1012
SWIDTH 630 0
DWIDTH 7 0
BBX 5 8 1 0
BITMAP
70
88
88
F8
88
88
98
70
ENDCHAR
STARTCHAR 03F6
ENCODING 1014
SWIDTH 630 0
DWIDTH 7 0
BBX 5 6 1 0
BITMAP
E0
10
F8
18
10
E0
ENDCHAR
STARTCHAR 0400
ENCODING 1024
SWIDTH 630 0
DWIDTH 7 0
BBX 5 10 1 0
BITMAP
40
20
F8
80
80
F8
80
80
80
F8
ENDCHAR
STARTCHAR 0401
ENCODING 1025
SWIDTH 630 0
DWIDTH 7 0
BBX 5 10 1 0
BITMAP
50
00
F8
80
80
F8
80
80
80
F8
ENDCHAR
STARTCHAR 0402
ENCODING 1026
SWIDTH 630 0
DWIDTH 7 0
BBX 6 11 0 -3
BITMAP
F0
40
40
40
7C
44
44
44
04
04
1C
ENDCHAR
STARTCHAR 0403
ENCODING 1027
SWIDTH 630 0
DWIDTH 7 0
BBX 5 10 1 0
BITMAP
10
20
F8
80
80
80
80
80
80
80
ENDCHAR
STARTCHAR 0404
ENCODING 1028
SWIDTH 630 0
DWIDTH 7 0
BBX 5 8 1 0
BITMAP
78
80
80
F0
80
80
C8
78
ENDCHAR
STARTCHAR 0405
ENCODING 1029
SWIDTH 630 0
DWIDTH 7 0
BBX 5 8 1 0
BITMAP
70
88
80
E0
18
08
88
F0
ENDCHAR
STARTCHAR 0406
ENCODING 1030
SWIDTH 630 0
DWIDTH 7 0
BBX 5 8 1 0
BITMAP
F8
20
20
20
20
20
20
F8
ENDCHAR
STARTCHAR 0407
ENCODING 1031
SWIDTH 630 0
DWIDTH 7 0
BBX 5 10 1 0
BITMAP
50
00
F8
20
20
20
20
20
20
F8
ENDCHAR
STARTCHAR 0408
ENCODING 1032
SWIDTH 630 0
DWIDTH 7 0
BBX 4 8 1 0
BITMAP
70
10
10
10
10
10
90
E0
ENDCHAR
STARTCHAR 0409
ENCODING 1033
SWIDTH 630 0
DWIDTH 7 0
BBX 7 8 0 0
BITMAP
70
50
50
5C
56
52
56
DC
ENDCHAR
STARTCHAR 040A
ENCODING 1034
SWIDTH 630 0
DWIDTH 7 0
BBX 7 8 0 0
BITMAP
90
90
90
FC
96
92
96
9C
ENDCHAR
STARTCHAR 040B
ENCODING 1035
SWIDTH 630 0
DWIDTH 7 0
BBX 6 8 0 0
BITMAP
F0
40
40
7C
44
44
44
44
ENDCHAR
STARTCHAR 040C
ENCODING 1036
SWIDTH 630 0
DWIDTH 7 0
BBX 6 10 1 0
BITMAP
10
20
8C
90
A0
E0
A0
90
98
8C
ENDCHAR
STARTCHAR 040D
ENCODING 1037
SWIDTH 630 0
DWIDTH 7 0
BBX 5 10 1 0
BITMAP
40
20
98
98
A8
A8
A8
C8
C8
88
ENDCHAR
STARTCHAR 040E
ENCODING 1038
SWIDTH 630 0
DWIDTH 7 0
BBX 5 9 1 0
BITMAP
70
88
88
50
50
70
20
20
C0
ENDCHAR
STARTCHAR 040F
ENCODING 1039
SWIDTH 630 0
DWIDTH 7 0
BBX 5 9 1 -1
BITMAP
88
88
88
88
88
88
88
F8
20
ENDCHAR
STARTCHAR 0410
ENCODING 1040
SWIDTH 630 0
DWIDTH 7 0
BBX 6 8 0 0
BITMAP
10
30
28
28
48
7C
44
84
ENDCHAR
STARTCHAR 0411
ENCODING 1041
SWIDTH 630 0
DWIDTH 7 0
BBX 5 8 1 0
BITMAP
F8
80
80
F0
88
88
88
F0
ENDCHAR
STARTCHAR 0412
ENCODING 1042
SWIDTH 630 0
DWIDTH 7 0
BBX 5 8 1 0
BITMAP
F0
88
88
F0
88
88
88
F0
ENDCHAR
STARTCHAR 0413
ENCODING 1043
SWIDTH 630 0
DWIDTH 7 0
BBX 5 8 1 0
BITMAP
F8
80
80
80
80
80
80
80
ENDCHAR
STARTCHAR 0414
ENCODING 1044
SWIDTH 630 0
DWIDTH 7 0
BBX 7 10 0 -2
BITMAP
7C
44
44
44
44
44
44
FE
82
82
ENDCHAR
STARTCHAR 0415
ENCODING 1045
SWIDTH 630 0
DWIDTH 7 0
BBX 5 8 1 0
BITMAP
F8
80
80
F8
80
80
80
F8
ENDCHAR
STARTCHAR 0416
ENCODING 1046
SWIDTH 630 0
DWIDTH 7 0
BBX 7 8 0 0
BITMAP
D6
54
78
38
78
54
54
96
ENDCHAR
STARTCHAR 0417
ENCODING 1047
SWIDTH 630 0
DWIDTH 7 0
BBX 5 8 1 0
BITMAP
F0
18
18
60
18
08
08
F0
ENDCHAR
STARTCHAR 0418
ENCODING 1048
SWIDTH 630 0
DWIDTH 7 0
BBX 5 8 1 0
BITMAP
98
98
A8
A8
A8
C8
C8
88
ENDCHAR
STARTCHAR 0419
ENCODING 1049
SWIDTH 630 0
DWIDTH 7 0
BBX 5 9 1 0
BITMAP
70
98
98
A8
A8
A8
C8
C8
88
ENDCHAR
STARTCHAR 041A
ENCODING 1050
SWIDTH 630 0
DWIDTH 7 0
BBX 6 8 1 0
BITMAP
8C
90
A0
E0
A0
90
98
8C
ENDCHAR
STARTCHAR 041B
ENCODING 1051
SWIDTH 630 0
DWIDTH 7 0
BBX 6 8 0 0
BITMAP
3C
24
24
24
24
64
44
C4
ENDCHAR
STARTCHAR 041C
ENCODING 1052
SWIDTH 630 0
DWIDTH 7 0
BBX 6 8 0 0
BITMAP
C4
AC
AC
B4
94
84
84
84
ENDCHAR
STARTCHAR 041D
ENCODING 1053
SWIDTH 630 0
DWIDTH 7 0
BBX 5 8 1 0
BITMAP
88
88
88
F8
88
88
88
88
ENDCHAR
STARTCHAR 041E
ENCODING 1054
SWIDTH 630 0
DWIDTH 7 0
BBX 5 8 1 0
BITMAP
70
88
88
88
88
88
88
70
ENDCHAR
STARTCHAR 041F
ENCODING 1055
SWIDTH 630 0
DWIDTH 7 0
BBX 5 8 1 0
BITMAP
F8
88
88
88
88
88
88
88
ENDCHAR
STARTCHAR 0420
ENCODING 1056
SWIDTH 630 0
DWIDTH 7 0
BBX 5 8 1 0
BITMAP
F0
88
88
88
F0
80
80
80
ENDCHAR
STARTCHAR 0421
ENCODING 1057
SWIDTH 630 0
DWIDTH 7 0
BBX 5 8 1 0
BITMAP
78
C8
80
80
80
80
C0
78
ENDCHAR
STARTCHAR 0422
ENCODING 1058
SWIDTH 630 0
DWIDTH 7 0
BBX 6 8 0 0
BITMAP
FC
10
10
10
10
10
10
10
ENDCHAR
STARTCHAR 0423
ENCODING 1059
SWIDTH 630 0
DWIDTH 7 0
BBX 5 8 1 0
BITMAP
88
88
50
50
70
20
20
C0
ENDCHAR
STARTCHAR 0424
ENCODING 1060
SWIDTH 630 0
DWIDTH 7 0
BBX 6 8 0 0
BITMAP
10
7C
54
D4
D4
54
7C
10
ENDCHAR
STARTCHAR 0425
ENCODING 1061
SWIDTH 630 0
DWIDTH 7 0
BBX 7 8 0 0
BITMAP
C4
68
28
10
30
28
44
C6
ENDCHAR
STARTCHAR 0426
ENCODING 1062
SWIDTH 630 0
DWIDTH 7 0
BBX 5 10 1 -2
BITMAP
88
88
88
88
88
88
88
F8
08
08
ENDCHAR
STARTCHAR 0427
ENCODING 1063
SWIDTH 630 0
DWIDTH 7 0
BBX 5 8 1 0
BITMAP
88
88
88
88
F8
08
08
08
ENDCHAR
STARTCHAR 0428
ENCODING 1064
SWIDTH 630 0
DWIDTH 7 0
BBX 5 8 1 0
BITMAP
A8
A8
A8
A8
A8
A8
A8
F8
ENDCHAR
STARTCHAR 0429
ENCODING 1065
SWIDTH 630 0
DWIDTH 7 0
BBX 6 10 1 -2
BITMAP
A8
A8
A8
A8
A8
A8
A8
FC
04
04
ENDCHAR
STARTCHAR 042A
ENCODING 1066
SWIDTH 630 0
DWIDTH 7 0
BBX 6 8 0 0
BITMAP
E0
20
20
38
24
24
24
38
ENDCHAR
STARTCHAR 042B
ENCODING 1067
SWIDTH 630 0
DWIDTH 7 0
BBX 6 8 0 0
BITMAP
84
84
84
E4
94
94
94
F4
ENDCHAR
STARTCHAR 042C
ENCODING 1068
SWIDTH 630 0
DWIDTH 7 0
BBX 5 8 1 0
BITMAP
80
80
80
F0
88
88
88
F0
ENDCHAR
STARTCHAR 042D
ENCODING 1069
SWIDTH 630 0
DWIDTH 7 0
BBX 5 8 1 0
BITMAP
F0
10
08
F8
08
08
90
F0
ENDCHAR
STARTCHAR 042E
ENCODING 1070
SWIDTH 630 0
DWIDTH 7 0
BBX 6 8 0 0
BITMAP
DC
E4
E4
E4
E4
E4
D4
DC
ENDCHAR
STARTCHAR 042F
ENCODING 1071
SWIDTH 630 0
DWIDTH 7 0
BBX 6 8 0 0
BITMAP
3C
44
44
44
3C
24
44
C4
ENDCHAR
STARTCHAR 0430
ENCODING 1072
SWIDTH 630 0
DWIDTH 7 0
BBX 5 6 1 0
BITMAP
F0
08
78
88
98
E8
ENDCHAR
STARTCHAR 0431
ENCODING 1073
SWIDTH 630 0
DWIDTH 7 0
BBX 5 8 1 0
BITMAP
70
80
F0
88
88
88
88
70
ENDCHAR
STARTCHAR 0432
ENCODING 1074
SWIDTH 630 0
DWIDTH 7 0
BBX 5 6 1 0
BITMAP
F0
90
F0
88
88
F0
ENDCHAR
STARTCHAR 0433
ENCODING 1075
SWIDTH 630 0
DWIDTH 7 0
BBX 4 6 2 0
BITMAP
F0
80
80
80
80
80
ENDCHAR
STARTCHAR 0434
ENCODING 1076
SWIDTH 630 0
DWIDTH 7 0
BBX 5 7 1 -1
BITMAP
F0
90
90
90
90
F8
88
ENDCHAR
STARTCHAR 0435
ENCODING 1077
SWIDTH 630 0
DWIDTH 7 0
BBX 5 6 1 0
BITMAP
70
88
F8
80
80
78
ENDCHAR
STARTCHAR 0436
ENCODING 1078
SWIDTH 630 0
DWIDTH 7 0
BBX 6 6 0 0
BITMAP
D4
58
38
58
54
94
ENDCHAR
STARTCHAR 0437
ENCODING 1079
SWIDTH 630 0
DWIDTH 7 0
BBX 5 6 1 0
BITMAP
F0
08
70
08
08
F0
ENDCHAR
STARTCHAR 0438
ENCODING 1080
SWIDTH 630 0
DWIDTH 7 0
BBX 5 6 1 0
BITMAP
98
98
A8
A8
C8
88
ENDCHAR
STARTCHAR 0439
ENCODING 1081
SWIDTH 630 0
DWIDTH 7 0
BBX 5 9 1 0
BITMAP
90
70
00
98
98
A8
A8
C8
88
ENDCHAR
STARTCHAR 043A
ENCODING 1082
SWIDTH 630 0
DWIDTH 7 0
BBX 6 6 1 0
BITMAP
98
B0
E0
B0
90
8C
ENDCHAR
STARTCHAR 043B
ENCODING 1083
SWIDTH 630 0
DWIDTH 7 0
BBX 6 6 0 0
BITMAP
3C
24
24
24
44
C4
ENDCHAR
STARTCHAR 043C
ENCODING 1084
SWIDTH 630 0
DWIDTH 7 0
BBX 6 6 0 0
BITMAP
C4
C4
AC
BC
94
84
ENDCHAR
STARTCHAR 043D
ENCODING 1085
SWIDTH 630 0
DWIDTH 7 0
BBX 5 6 1 0
BITMAP
88
88
F8
88
88
88
ENDCHAR
STARTCHAR 043E
ENCODING 1086
SWIDTH 630 0
DWIDTH 7 0
BBX 5 6 1 0
BITMAP
70
88
88
88
88
70
ENDCHAR
STARTCHAR 043F
ENCODING 1087
SWIDTH 630 0
DWIDTH 7 0
BBX 5 6 1 0
BITMAP
F8
88
88
88
88
88
ENDCHAR
STARTCHAR 0440
ENCODING 1088
SWIDTH 630 0
DWIDTH 7 0
BBX 5 8 1 -2
BITMAP
F0
88
88
88
88
F0
80
80
ENDCHAR
STARTCHAR 0441
ENCODING 1089
SWIDTH 630 0
DWIDTH 7 0
BBX 5 6 1 0
BITMAP
78
80
80
80
80
78
ENDCHAR
STARTCHAR 0442
ENCODING 1090
SWIDTH 630 0
DWIDTH 7 0
BBX 5 6 1 0
BITMAP
F8
20
20
20
20
20
ENDCHAR
STARTCHAR 0443
ENCODING 1091
SWIDTH 630 0
DWIDTH 7 0
BBX 5 8 1 -2
BITMAP
88
88
50
50
60
20
20
C0
ENDCHAR
STARTCHAR 0444
ENCODING 1092
SWIDTH 630 0
DWIDTH 7 0
BBX 5 11 1 -2
BITMAP
20
20
20
F8
A8
A8
A8
A8
70
20
20
ENDCHAR
STARTCHAR 0445
ENCODING 1093
SWIDTH 630 0
DWIDTH 7 0
BBX 6 6 0 0
BITMAP
44
28
10
30
28
C4
ENDCHAR
STARTCHAR 0446
ENCODING 1094
SWIDTH 630 0
DWIDTH 7 0
BBX 5 7 1 -1
BITMAP
88
88
88
88
88
F8
08
ENDCHAR
STARTCHAR 0447
ENCODING 1095
SWIDTH 630 0
DWIDTH 7 0
BBX 5 6 1 0
BITMAP
88
88
88
F8
08
08
ENDCHAR
STARTCHAR 0448
ENCODING 1096
SWIDTH 630 0
DWIDTH 7 0
BBX 5 6 1 0
BITMAP
A8
A8
A8
A8
A8
F8
ENDCHAR
STARTCHAR 0449
ENCODING 1097
SWIDTH 630 0
DWIDTH 7 0
BBX 6 7 1 -1
BITMAP
A8
A8
A8
A8
A8
FC
04
ENDCHAR
STARTCHAR 044A
ENCODING 1098
SWIDTH 630 0
DWIDTH 7 0
BBX 6 6 0 0
BITMAP
E0
20
3C
24
24
3C
ENDCHAR
STARTCHAR 044B
ENCODING 1099
SWIDTH 630 0
DWIDTH 7 0
BBX 5 6 1 0
BITMAP
88
88
E8
A8
A8
E8
ENDCHAR
STARTCHAR 044C
ENCODING 1100
SWIDTH 630 0
DWIDTH 7 0
BBX 5 6 1 0
BITMAP
80
80
F0
88
88
F0
ENDCHAR
STARTCHAR 044D
ENCODING 1101
SWIDTH 630 0
DWIDTH 7 0
BBX 5 6 1 0
BITMAP
F0
08
78
08
98
F0
ENDCHAR
STARTCHAR 044E
ENCODING 1102
SWIDTH 630 0
DWIDTH 7 0
BBX 6 6 1 0
BITMAP
B8
A8
CC
CC
A8
B8
ENDCHAR
STARTCHAR 044F
ENCODING 1103
SWIDTH 630 0
DWIDTH 7 0
BBX 4 6 1 0
BITMAP
70
90
90
70
50
90
ENDCHAR
STARTCHAR 0450
ENCODING 1104
SWIDTH 630 0
DWIDTH 7 0
BBX 5 9 1 0
BITMAP
C0
20
00
70
88
F8
80
88
78
ENDCHAR
STARTCHAR 0451
ENCODING 1105
SWIDTH 630 0
DWIDTH 7 0
BBX 5 8 1 0
BITMAP
50
00
70
88
F8
80
80
78
ENDCHAR
STARTCHAR 0452
ENCODING 1106
SWIDTH 630 0
DWIDTH 7 0
BBX 6 10 0 -2
BITMAP
40
40
F8
40
5C
64
44
44
04
08
ENDCHAR
STARTCHAR 0453
ENCODING 1107
SWIDTH 630 0
DWIDTH 7 0
BBX 4 9 2 0
BITMAP
10
20
40
F0
80
80
80
80
80
ENDCHAR
STARTCHAR 0454
ENCODING 1108
SWIDTH 630 0
DWIDTH 7 0
BBX 5 6 1 0
BITMAP
78
80
F0
80
88
78
ENDCHAR
STARTCHAR 0455
ENCODING 1109
SWIDTH 630 0
DWIDTH 7 0
BBX 5 6 1 0
BITMAP
70
80
E0
10
08
F0
ENDCHAR
STARTCHAR 0456
ENCODING 1110
SWIDTH 630 0
DWIDTH 7 0
BBX 5 8 1 0
BITMAP
20
00
E0
20
20
20
20
38
ENDCHAR
STARTCHAR 0457
ENCODING 1111
SWIDTH 630 0
DWIDTH 7 0
BBX 5 8 1 0
BITMAP
A0
00
E0
20
20
20
20
38
ENDCHAR
STARTCHAR 0458
ENCODING 1112
SWIDTH 630 0
DWIDTH 7 0
BBX 4 10 1 -2
BITMAP
30
00
70
10
10
10
10
10
20
E0
ENDCHAR
STARTCHAR 0459
ENCODING 1113
SWIDTH 630 0
DWIDTH 7 0
BBX 7 6 0 0
BITMAP
70
50
4C
52
52
CC
ENDCHAR
STARTCHAR 045A
ENCODING 1114
SWIDTH 630 0
DWIDTH 7 0
BBX 6 6 1 0
BITMAP
A0
A0
F8
AC
A4
B8
ENDCHAR
STARTCHAR 045B
ENCODING 1115
SWIDTH 630 0
DWIDTH 7 0
BBX 6 8 0 0
BITMAP
40
40
F8
40
58
64
44
44
ENDCHAR
STARTCHAR 045C
ENCODING 1116
SWIDTH 630 0
DWIDTH 7 0
BBX 6 9 1 0
BITMAP
10
10
20
98
B0
E0
B0
90
8C
ENDCHAR
STARTCHAR 045D
ENCODING 1117
SWIDTH 630 0
DWIDTH 7 0
BBX 5 9 1 0
BITMAP
40
20
10
98
98
A8
A8
C8
88
ENDCHAR
STARTCHAR 045E
ENCODING 1118
SWIDTH 630 0
DWIDTH 7 0
BBX 5 11 1 -2
BITMAP
50
70
00
88
88
50
50
60
20
20
C0
ENDCHAR
STARTCHAR 045F
ENCODING 1119
SWIDTH 630 0
DWIDTH 7 0
BBX 5 7 1 -1
BITMAP
88
88
88
88
88
F8
20
ENDCHAR
STARTCHAR 0462
ENCODING 1122
SWIDTH 630 0
DWIDTH 7 0
BBX 6 8 0 0
BITMAP
20
F8
20
38
24
24
24
38
ENDCHAR
STARTCHAR 0463
ENCODING 1123
SWIDTH 630 0
DWIDTH 7 0
BBX 6 8 0 0
BITMAP
20
20
F8
20
3C
24
24
3C
ENDCHAR
STARTCHAR 0472
ENCODING 1138
SWIDTH 630 0
DWIDTH 7 0
BBX 5 8 1 0
BITMAP
70
88
88
F8
88
88
98
70
ENDCHAR
STARTCHAR 0473
ENCODING 1139
SWIDTH 630 0
DWIDTH 7 0
BBX 5 6 1 0
BITMAP
70
88
88
F8
88
70
ENDCHAR
STARTCHAR 0490
ENCODING 1168
SWIDTH 630 0
DWIDTH 7 0
BBX 5 10 1 0
BITMAP
08
08
F8
80
80
80
80
80
80
80
ENDCHAR
STARTCHAR 0491
ENCODING 1169
SWIDTH 630 0
DWIDTH 7 0
BBX 4 8 2 0
BITMAP
10
10
F0
80
80
80
80
80
ENDCHAR
STARTCHAR 0492
ENCODING 1170
SWIDTH 630 0
DWIDTH 7 0
BBX 5 8 1 0
BITMAP
F8
80
80
F0
80
80
80
80
ENDCHAR
STARTCHAR 0493
ENCODING 1171
SWIDTH 630 0
DWIDTH 7 0
BBX 5 6 1 0
BITMAP
78
40
F0
40
40
40
ENDCHAR
STARTCHAR 0494
ENCODING 1172
SWIDTH 630 0
DWIDTH 7 0
BBX 5 10 1 -2
BITMAP
F8
80
80
F0
88
88
88
88
08
30
ENDCHAR
STARTCHAR 0495
ENCODING 1173
SWIDTH 630 0
DWIDTH 7 0
BBX 5 8 1 -2
BITMAP
F0
80
F0
88
88
88
08
30
ENDCHAR
STARTCHAR 0496
ENCODING 1174
SWIDTH 630 0
DWIDTH 7 0
BBX 7 10 0 -2
BITMAP
D6
54
78
38
78
54
54
96
02
02
ENDCHAR
STARTCHAR 0497
ENCODING 1175
SWIDTH 630 0
DWIDTH 7 0
BBX 7 7 0 -1
BITMAP
D4
58
38
54
54
96
02
ENDCHAR
STARTCHAR 0498
ENCODING 1176
SWIDTH 630 0
DWIDTH 7 0
BBX 5 10 1 -2
BITMAP
F0
18
18
60
18
08
08
F0
20
60
ENDCHAR
STARTCHAR 0499
ENCODING 1177
SWIDTH 630 0
DWIDTH 7 0
BBX 5 8 1 -2
BITMAP
F0
08
70
08
08
F0
20
60
ENDCHAR
STARTCHAR 049A
ENCODING 1178
SWIDTH 630 0
DWIDTH 7 0
BBX 6 10 1 -2
BITMAP
8C
90
A0
E0
A0
90
98
8C
0C
0C
ENDCHAR
STARTCHAR 049B
ENCODING 1179
SWIDTH 630 0
DWIDTH 7 0
BBX 5 7 1 -1
BITMAP
98
A0
E0
B0
90
88
08
ENDCHAR
STARTCHAR 04A2
ENCODING 1186
SWIDTH 630 0
DWIDTH 7 0
BBX 7 10 0 -2
BITMAP
8C
8C
8C
FC
8C
8C
8C
8E
02
02
ENDCHAR
STARTCHAR 04A3
ENCODING 1187
SWIDTH 630 0
DWIDTH 7 0
BBX 6 7 1 -1
BITMAP
88
88
F8
88
88
8C
04
ENDCHAR
STARTCHAR 04A4
ENCODING 1188
SWIDTH 630 0
DWIDTH 7 0
BBX 6 8 1 0
BITMAP
9C
90
90
F0
90
90
90
90
ENDCHAR
STARTCHAR 04A5
ENCODING 1189
SWIDTH 630 0
DWIDTH 7 0
BBX 6 6 1 0
BITMAP
9C
90
F0
90
90
90
ENDCHAR
STARTCHAR 04AA
ENCODING 1194
SWIDTH 630 0
DWIDTH 7 0
BBX 5 10 1 -2
BITMAP
78
C8
80
80
80
80
C0
78
10
30
ENDCHAR
STARTCHAR 04AB
ENCODING 1195
SWIDTH 630 0
DWIDTH 7 0
BBX 5 8 1 -2
BITMAP
78
80
80
80
80
78
10
30
ENDCHAR
STARTCHAR 04AC
ENCODING 1196
SWIDTH 630 0
DWIDTH 7 0
BBX 6 10 0 -2
BITMAP
FC
10
10
10
10
10
10
18
08
08
ENDCHAR
STARTCHAR 04AD
ENCODING 1197
SWIDTH 630 0
DWIDTH 7 0
BBX 5 7 1 -1
BITMAP
F8
20
20
20
20
30
10
ENDCHAR
STARTCHAR 04AE
ENCODING 1198
SWIDTH 630 0
DWIDTH 7 0
BBX 6 8 0 0
BITMAP
C4
4C
28
30
10
10
10
10
ENDCHAR
STARTCHAR 04AF
ENCODING 1199
SWIDTH 630 0
DWIDTH 7 0
BBX 5 8 1 -2
BITMAP
88
88
50
50
60
20
20
20
ENDCHAR
STARTCHAR 04B0
ENCODING 1200
SWIDTH 630 0
DWIDTH 7 0
BBX 6 8 0 0
BITMAP
C4
44
28
38
10
78
10
10
ENDCHAR
STARTCHAR 04B1
ENCODING 1201
SWIDTH 630 0
DWIDTH 7 0
BBX 5 8 1 -2
BITMAP
88
88
50
50
60
20
70
20
ENDCHAR
STARTCHAR 04B2
ENCODING 1202
SWIDTH 630 0
DWIDTH 7 0
BBX 7 10 0 -2
BITMAP
C4
68
28
10
30
28
44
C6
06
06
ENDCHAR
STARTCHAR 04B3
ENCODING 1203
SWIDTH 630 0
DWIDTH 7 0
BBX 5 7 1 -1
BITMAP
88
50
20
60
50
88
08
ENDCHAR
STARTCHAR 04BA
ENCODING 1210
SWIDTH 630 0
DWIDTH 7 0
BBX 5 8 1 0
BITMAP
80
80
80
F0
88
88
88
88
ENDCHAR
STARTCHAR 04BB
ENCODING 1211
SWIDTH 630 0
DWIDTH 7 0
BBX 5 8 1 0
BITMAP
80
80
F0
88
88
88
88
88
ENDCHAR
STARTCHAR 04C0
ENCODING 1216
SWIDTH 630 0
DWIDTH 7 0
BBX 5 8 1 0
BITMAP
F8
20
20
20
20
20
20
F8
ENDCHAR
STARTCHAR 04C1
ENCODING 1217
SWIDTH 630 0
DWIDTH 7 0
BBX 7 9 0 0
BITMAP
38
D6
54
78
38
78
54
54
96
ENDCHAR
STARTCHAR 04C2
ENCODING 1218
SWIDTH 630 0
DWIDTH 7 0
BBX 6 9 0 0
BITMAP
28
30
00
D4
58
38
58
54
94
ENDCHAR
STARTCHAR 04C3
ENCODING 1219
SWIDTH 630 0
DWIDTH 7 0
BBX 6 10 1 -2
BITMAP
8C
90
A0
F0
98
88
88
88
18
30
ENDCHAR
STARTCHAR 04C4
ENCODING 1220
SWIDTH 630 0
DWIDTH 7 0
BBX 5 8 1 -2
BITMAP
98
A0
F0
88
88
88
08
30
ENDCHAR
STARTCHAR 04C7
ENCODING 1223
SWIDTH 630 0
DWIDTH 7 0
BBX 5 10 1 -2
BITMAP
88
88
88
F8
88
88
88
88
08
30
ENDCHAR
STARTCHAR 04C8
ENCODING 1224
SWIDTH 630 0
DWIDTH 7 0
BBX 5 8 1 -2
BITMAP
88
88
F8
88
88
88
08
30
ENDCHAR
STARTCHAR 04CB
ENCODING 1227
SWIDTH 630 0
DWIDTH 7 0
BBX 5 10 1 -2
BITMAP
88
88
88
98
E8
08
08
18
10
10
ENDCHAR
STARTCHAR 04CC
ENCODING 1228
SWIDTH 630 0
DWIDTH 7 0
BBX 5 7 1 -1
BITMAP
88
88
98
68
08
18
10
ENDCHAR
STARTCHAR 04CF
ENCODING 1231
SWIDTH 630 0
DWIDTH 7 0
BBX 1 8 2 0
BITMAP
80
80
80
80
80
80
80
80
ENDCHAR
STARTCHAR 04D0
ENCODING 1232
SWIDTH 630 0
DWIDTH 7 0
BBX 6 9 0 0
BITMAP
38
10
30
28
28
48
7C
44
84
ENDCHAR
STARTCHAR 04D1
ENCODING 1233
SWIDTH 630 0
DWIDTH 7 0
BBX 5 9 1 0
BITMAP
90
70
00
F0
08
78
88
98
F8
ENDCHAR
STARTCHAR 04D2
ENCODING 1234
SWIDTH 630 0
DWIDTH 7 0
BBX 6 10 0 0
BITMAP
28
00
10
30
28
28
48
7C
44
84
ENDCHAR
STARTCHAR 04D3
ENCODING 1235
SWIDTH 630 0
DWIDTH 7 0
BBX 5 8 1 0
BITMAP
50
00
F0
08
78
88
98
F8
ENDCHAR
STARTCHAR 04D4
ENCODING 1236
SWIDTH 630 0
DWIDTH 7 0
BBX 6 8 0 0
BITMAP
3C
30
50
5C
50
70
90
9C
ENDCHAR
STARTCHAR 04D5
ENCODING 1237
SWIDTH 630 0
DWIDTH 7 0
BBX 7 6 0 0
BITMAP
6C
12
7E
90
90
6C
ENDCHAR
STARTCHAR 04D6
ENCODING 1238
SWIDTH 630 0
DWIDTH 7 0
BBX 5 9 1 0
BITMAP
70
F8
80
80
F8
80
80
80
F8
ENDCHAR
STARTCHAR 04D7
ENCODING 1239
SWIDTH 630 0
DWIDTH 7 0
BBX 5 9 1 0
BITMAP
50
70
00
70
88
F8
80
80
78
ENDCHAR
STARTCHAR 04D8
ENCODING 1240
SWIDTH 630 0
DWIDTH 7 0
BBX 5 8 1 0
BITMAP
70
08
08
F8
88
88
98
70
ENDCHAR
STARTCHAR 04D9
ENCODING 1241
SWIDTH 630 0
DWIDTH 7 0
BBX 5 6 1 0
BITMAP
F0
08
08
F8
88
70
ENDCHAR
STARTCHAR 04DA
ENCODING 1242
SWIDTH 630 0
DWIDTH 7 0
BBX 5 10 1 0
BITMAP
50
00
70
08
08
F8
88
88
98
70
ENDCHAR
STARTCHAR 04DB
ENCODING 1243
SWIDTH 630 0
DWIDTH 7 0
BBX 5 8 1 0
BITMAP
50
00
F0
08
08
F8
88
70
ENDCHAR
STARTCHAR 04DC
ENCODING 1244
SWIDTH 630 0
DWIDTH 7 0
BBX 7 10 0 0
BITMAP
28
00
D6
54
78
38
78
54
54
96
ENDCHAR
STARTCHAR 04DD
ENCODING 1245
SWIDTH 630 0
DWIDTH 7 0
BBX 6 8 0 0
BITMAP
28
00
D4
58
38
58
54
94
ENDCHAR
STARTCHAR 04DE
ENCODING 1246
SWIDTH 630 0
DWIDTH 7 0
BBX 5 10 1 0
BITMAP
50
00
F0
18
18
60
18
08
08
F0
ENDCHAR
STARTCHAR 04DF
ENCODING 1247
SWIDTH 630 0
DWIDTH 7 0
BBX 5 8 1 0
BITMAP
50
00
F0
08
70
08
08
F0
ENDCHAR
STARTCHAR 04E0
ENCODING 1248
SWIDTH 630 0
DWIDTH 7 0
BBX 7 8 0 0
BITMAP
7C
08
10
18
04
06
C4
78
ENDCHAR
STARTCHAR 04E1
ENCODING 1249
SWIDTH 630 0
DWIDTH 7 0
BBX 5 8 1 -2
BITMAP
F8
10
20
70
08
08
08
F0
ENDCHAR
STARTCHAR 04E2
ENCODING 1250
SWIDTH 630 0
DWIDTH 7 0
BBX 5 10 1 0
BITMAP
70
00
98
98
A8
A8
A8
C8
C8
88
ENDCHAR
STARTCHAR 04E3
ENCODING 1251
SWIDTH 630 0
DWIDTH 7 0
BBX 5 8 1 0
BITMAP
70
00
98
98
A8
A8
C8
88
ENDCHAR
STARTCHAR 04E4
ENCODING 1252
SWIDTH 630 0
DWIDTH 7 0
BBX 5 10 1 0
BITMAP
50
00
98
98
A8
A8
A8
C8
C8
88
ENDCHAR
STARTCHAR 04E5
ENCODING 1253
SWIDTH 630 0
DWIDTH 7 0
BBX 5 8 1 0
BITMAP
50
00
98
98
A8
A8
C8
88
ENDCHAR
STARTCHAR 04E6
ENCODING 1254
SWIDTH 630 0
DWIDTH 7 0
BBX 5 10 1 0
BITMAP
50
00
70
88
88
88
88
88
88
70
ENDCHAR
STARTCHAR 04E7
ENCODING 1255
SWIDTH 630 0
DWIDTH 7 0
BBX 5 8 1 0
BITMAP
50
00
70
88
88
88
88
70
ENDCHAR
STARTCHAR 04E8
ENCODING 1256
SWIDTH 630 0
DWIDTH 7 0
BBX 5 8 1 0
BITMAP
70
88
88
F8
88
88
98
70
ENDCHAR
STARTCHAR 04E9
ENCODING 1257
SWIDTH 630 0
DWIDTH 7 0
BBX 5 6 1 0
BITMAP
70
88
88
F8
88
70
ENDCHAR
STARTCHAR 04EA
ENCODING 1258
SWIDTH 630 0
DWIDTH 7 0
BBX 5 10 1 0
BITMAP
50
00
70
88
88
F8
88
88
98
70
ENDCHAR
STARTCHAR 04EB
ENCODING 1259
SWIDTH 630 0
DWIDTH 7 0
BBX 5 8 1 0
BITMAP
50
00
70
88
88
F8
88
70
ENDCHAR
STARTCHAR 04EC
ENCODING 1260
SWIDTH 630 0
DWIDTH 7 0
BBX 5 10 1 0
BITMAP
50
00
F0
10
08
F8
08
08
90
F0
ENDCHAR
STARTCHAR 04ED
ENCODING 1261
SWIDTH 630 0
DWIDTH 7 0
BBX 5 8 1 0
BITMAP
50
00
F0
08
78
08
98
F0
ENDCHAR
STARTCHAR 04EE
ENCODING 1262
SWIDTH 630 0
DWIDTH 7 0
BBX 5 10 1 0
BITMAP
70
00
88
88
50
50
70
20
20
C0
ENDCHAR
STARTCHAR 04EF
ENCODING 1263
SWIDTH 630 0
DWIDTH 7 0
BBX 5 10 1 -2
BITMAP
70
00
88
88
50
50
60
20
20
C0
ENDCHAR
STARTCHAR 04F0
ENCODING 1264
SWIDTH 630 0
DWIDTH 7 0
BBX 5 10 1 0
BITMAP
50
00
88
88
50
50
70
20
20
C0
ENDCHAR
STARTCHAR 04F1
ENCODING 1265
SWIDTH 630 0
DWIDTH 7 0
BBX 5 10 1 -2
BITMAP
50
00
88
88
50
50
60
20
20
C0
ENDCHAR
STARTCHAR 04F2
ENCODING 1266
SWIDTH 630 0
DWIDTH 7 0
BBX 5 10 1 0
BITMAP
78
00
88
88
50
50
70
20
20
C0
ENDCHAR
STARTCHAR 04F3
ENCODING 1267
SWIDTH 630 0
DWIDTH 7 0
BBX 5 11 1 -2
BITMAP
38
50
00
88
88
50
50
60
20
20
C0
ENDCHAR
STARTCHAR 04F4
ENCODING 1268
SWIDTH 630 0
DWIDTH 7 0
BBX 5 10 1 0
BITMAP
50
00
88
88
88
88
F8
08
08
08
ENDCHAR
STARTCHAR 04F5
ENCODING 1269
SWIDTH 630 0
DWIDTH 7 0
BBX 5 8 1 0
BITMAP
50
00
88
88
88
F8
08
08
ENDCHAR
STARTCHAR 04F6
ENCODING 1270
SWIDTH 630 0
DWIDTH 7 0
BBX 5 10 1 -2
BITMAP
F8
80
80
80
80
80
80
C0
40
40
ENDCHAR
STARTCHAR 04F7
ENCODING 1271
SWIDTH 630 0
DWIDTH 7 0
BBX 4 7 2 -1
BITMAP
F0
80
80
80
80
C0
40
ENDCHAR
STARTCHAR 04F8
ENCODING 1272
SWIDTH 630 0
DWIDTH 7 0
BBX 6 10 0 0
BITMAP
28
00
C4
C4
C4
F4
D4
D4
D4
F4
ENDCHAR
STARTCHAR 04F9
ENCODING 1273
SWIDTH 630 0
DWIDTH 7 0
BBX 5 8 1 0
BITMAP
50
00
88
88
E8
A8
A8
E8
ENDCHAR
STARTCHAR 0510
ENCODING 1296
SWIDTH 630 0
DWIDTH 7 0
BBX 5 8 1 0
BITMAP
78
80
80
60
80
80
80
78
ENDCHAR
STARTCHAR 0511
ENCODING 1297
SWIDTH 630 0
DWIDTH 7 0
BBX 5 6 1 0
BITMAP
78
80
70
80
80
78
ENDCHAR
STARTCHAR 051A
ENCODING 1306
SWIDTH 630 0
DWIDTH 7 0
BBX 6 9 1 -1
BITMAP
70
88
88
88
88
88
88
70
1C
ENDCHAR
STARTCHAR 051B
ENCODING 1307
SWIDTH 630 0
DWIDTH 7 0
BBX 5 8 1 -2
BITMAP
68
98
88
88
98
68
08
08
ENDCHAR
STARTCHAR 051C
ENCODING 1308
SWIDTH 630 0
DWIDTH 7 0
BBX 7 8 0 0
BITMAP
82
84
94
74
6C
6C
6C
4C
ENDCHAR
STARTCHAR 051D
ENCODING 1309
SWIDTH 630 0
DWIDTH 7 0
BBX 7 6 0 0
BITMAP
82
84
54
74
6C
68
ENDCHAR
STARTCHAR 0531
ENCODING 1329
SWIDTH 630 0
DWIDTH 7 0
BBX 5 8 1 0
BITMAP
88
88
88
88
88
A8
B8
F8
ENDCHAR
STARTCHAR 0532
ENCODING 1330
SWIDTH 630 0
DWIDTH 7 0
BBX 5 8 1 0
BITMAP
70
98
88
88
80
F8
80
80
ENDCHAR
STARTCHAR 0533
ENCODING 1331
SWIDTH 630 0
DWIDTH 7 0
BBX 6 8 0 0
BITMAP
78
48
CC
CC
4C
7C
0C
0C
ENDCHAR
STARTCHAR 0534
ENCODING 1332
SWIDTH 630 0
DWIDTH 7 0
BBX 6 8 0 0
BITMAP
78
C8
88
88
08
0C
08
08
ENDCHAR
STARTCHAR 0535
ENCODING 1333
SWIDTH 630 0
DWIDTH 7 0
BBX 5 8 1 0
BITMAP
80
80
F8
80
80
88
88
70
ENDCHAR
STARTCHAR 0536
ENCODING 1334
SWIDTH 630 0
DWIDTH 7 0
BBX 5 8 1 0
BITMAP
70
88
88
08
08
18
B0
F8
ENDCHAR
STARTCHAR 0537
ENCODING 1335
SWIDTH 630 0
DWIDTH 7 0
BBX 5 8 1 0
BITMAP
80
80
F8
80
80
80
80
F0
ENDCHAR
STARTCHAR 0538
ENCODING 1336
SWIDTH 630 0
DWIDTH 7 0
BBX 5 8 1 0
BITMAP
70
88
88
80
80
80
80
F8
ENDCHAR
STARTCHAR 0539
ENCODING 1337
SWIDTH 630 0
DWIDTH 7 0
BBX 7 8 0 0
BITMAP
78
44
84
9E
A4
A4
A4
98
ENDCHAR
STARTCHAR 053A
ENCODING 1338
SWIDTH 630 0
DWIDTH 7 0
BBX 6 8 0 0
BITMAP
08
08
7C
48
88
88
48
78
ENDCHAR
STARTCHAR 053B
ENCODING 1339
SWIDTH 630 0
DWIDTH 7 0
BBX 5 8 1 0
BITMAP
80
80
F0
88
88
80
80
80
ENDCHAR
STARTCHAR 053C
ENCODING 1340
SWIDTH 630 0
DWIDTH 7 0
BBX 5 8 1 0
BITMAP
80
80
80
80
80
80
80
F8
ENDCHAR
STARTCHAR 053D
ENCODING 1341
SWIDTH 630 0
DWIDTH 7 0
BBX 5 8 1 0
BITMAP
80
80
E8
E8
E8
E8
A8
B8
ENDCHAR
STARTCHAR 053E
ENCODING 1342
SWIDTH 630 0
DWIDTH 7 0
BBX 6 8 0 0
BITMAP
9C
F0
4C
44
44
44
44
38
ENDCHAR
STARTCHAR 053F
ENCODING 1343
SWIDTH 630 0
DWIDTH 7 0
BBX 5 8 1 0
BITMAP
80
80
88
88
88
78
08
08
ENDCHAR
STARTCHAR 0540
ENCODING 1344
SWIDTH 630 0
DWIDTH 7 0
BBX 6 8 0 0
BITMAP
08
0C
18
20
40
C0
38
04
ENDCHAR
STARTCHAR 0541
ENCODING 1345
SWIDTH 630 0
DWIDTH 7 0
BBX 5 8 1 0
BITMAP
70
88
88
08
08
E8
90
E8
ENDCHAR
STARTCHAR 0542
ENCODING 1346
SWIDTH 630 0
DWIDTH 7 0
BBX 6 8 0 0
BITMAP
78
C8
88
08
08
08
08
0C
ENDCHAR
STARTCHAR 0543
ENCODING 1347
SWIDTH 630 0
DWIDTH 7 0
BBX 6 8 0 0
BITMAP
44
28
30
30
58
48
C4
7C
ENDCHAR
STARTCHAR 0544
ENCODING 1348
SWIDTH 630 0
DWIDTH 7 0
BBX 7 8 0 0
BITMAP
CE
CC
CC
CC
CC
CC
48
78
ENDCHAR
STARTCHAR 0545
ENCODING 1349
SWIDTH 630 0
DWIDTH 7 0
BBX 6 8 0 0
BITMAP
38
44
04
F8
04
44
44
38
ENDCHAR
STARTCHAR 0546
ENCODING 1350
SWIDTH 630 0
DWIDTH 7 0
BBX 6 8 0 0
BITMAP
C0
40
40
40
40
44
64
3C
ENDCHAR
STARTCHAR 0547
ENCODING 1351
SWIDTH 630 0
DWIDTH 7 0
BBX 5 8 1 0
BITMAP
E0
78
88
80
80
88
88
70
ENDCHAR
STARTCHAR 0548
ENCODING 1352
SWIDTH 630 0
DWIDTH 7 0
BBX 5 8 1 0
BITMAP
70
88
88
88
88
88
88
88
ENDCHAR
STARTCHAR 0549
ENCODING 1353
SWIDTH 630 0
DWIDTH 7 0
BBX 5 8 1 0
BITMAP
70
88
88
08
08
08
F0
30
ENDCHAR
STARTCHAR 054A
ENCODING 1354
SWIDTH 630 0
DWIDTH 7 0
BBX 6 8 0 0
BITMAP
78
D4
94
14
14
04
04
04
ENDCHAR
STARTCHAR 054B
ENCODING 1355
SWIDTH 630 0
DWIDTH 7 0
BBX 5 8 1 0
BITMAP
70
88
88
88
68
38
B0
F8
ENDCHAR
STARTCHAR 054C
ENCODING 1356
SWIDTH 630 0
DWIDTH 7 0
BBX 6 8 1 0
BITMAP
F0
90
88
88
88
8C
88
88
ENDCHAR
STARTCHAR 054D
ENCODING 1357
SWIDTH 630 0
DWIDTH 7 0
BBX 5 8 1 0
BITMAP
88
88
88
88
88
88
88
70
ENDCHAR
STARTCHAR 054E
ENCODING 1358
SWIDTH 630 0
DWIDTH 7 0
BBX 7 8 0 0
BITMAP
08
08
88
88
88
78
08
0E
ENDCHAR
STARTCHAR 054F
ENCODING 1359
SWIDTH 630 0
DWIDTH 7 0
BBX 5 8 1 0
BITMAP
70
88
80
60
18
08
88
70
ENDCHAR
STARTCHAR 0550
ENCODING 1360
SWIDTH 630 0
DWIDTH 7 0
BBX 5 8 1 0
BITMAP
70
88
88
80
80
80
80
80
ENDCHAR
STARTCHAR 0551
ENCODING 1361
SWIDTH 630 0
DWIDTH 7 0
BBX 6 8 0 0
BITMAP
38
44
44
F8
04
44
44
38
ENDCHAR
STARTCHAR 0552
ENCODING 1362
SWIDTH 630 0
DWIDTH 7 0
BBX 5 8 1 0
BITMAP
80
80
F8
80
80
80
80
80
ENDCHAR
STARTCHAR 0553
ENCODING 1363
SWIDTH 630 0
DWIDTH 7 0
BBX 6 8 0 0
BITMAP
10
7C
54
94
94
54
78
10
ENDCHAR
STARTCHAR 0554
ENCODING 1364
SWIDTH 630 0
DWIDTH 7 0
BBX 6 8 0 0
BITMAP
3C
64
44
64
58
40
FC
40
ENDCHAR
STARTCHAR 0555
ENCODING 1365
SWIDTH 630 0
DWIDTH 7 0
BBX 5 8 1 0
BITMAP
70
88
88
88
88
88
98
70
ENDCHAR
STARTCHAR 0556
ENCODING 1366
SWIDTH 630 0
DWIDTH 7 0
BBX 6 8 0 0
BITMAP
70
50
7C
14
14
94
54
7C
ENDCHAR
STARTCHAR 0559
ENCODING 1369
SWIDTH 630 0
DWIDTH 7 0
BBX 1 3 3 5
BITMAP
80
80
80
ENDCHAR
STARTCHAR 055A
ENCODING 1370
SWIDTH 630 0
DWIDTH 7 0
BBX 1 2 3 5
BITMAP
80
80
ENDCHAR
STARTCHAR 055B
ENCODING 1371
SWIDTH 630 0
DWIDTH 7 0
BBX 3 2 2 7
BITMAP
60
80
ENDCHAR
STARTCHAR 055C
ENCODING 1372
SWIDTH 630 0
DWIDTH 7 0
BBX 4 3 1 7
BITMAP
10
70
80
ENDCHAR
STARTCHAR 055D
ENCODING 1373
SWIDTH 630 0
DWIDTH 7 0
BBX 3 2 2 7
BITMAP
C0
60
ENDCHAR
STARTCHAR 055E
ENCODING 1374
SWIDTH 630 0
DWIDTH 7 0
BBX 5 3 1 6
BITMAP
70
88
B0
ENDCHAR
STARTCHAR 055F
ENCODING 1375
SWIDTH 630 0
DWIDTH 7 0
BBX 5 2 1 6
BITMAP
80
F8
ENDCHAR
STARTCHAR 0561
ENCODING 1377
SWIDTH 630 0
DWIDTH 7 0
BBX 5 6 1 0
BITMAP
A8
A8
A8
A8
A8
F8
ENDCHAR
STARTCHAR 0562
ENCODING 1378
SWIDTH 630 0
DWIDTH 7 0
BBX 5 8 1 -2
BITMAP
F0
88
88
88
80
F8
80
80
ENDCHAR
STARTCHAR 0563
ENCODING 1379
SWIDTH 630 0
DWIDTH 7 0
BBX 6 8 0 -2
BITMAP
78
48
88
88
48
7C
08
08
ENDCHAR
STARTCHAR 0564
ENCODING 1380
SWIDTH 630 0
DWIDTH 7 0
BBX 5 8 1 -2
BITMAP
F0
88
88
88
88
88
08
08
ENDCHAR
STARTCHAR 0565
ENCODING 1381
SWIDTH 630 0
DWIDTH 7 0
BBX 5 8 1 0
BITMAP
80
80
F8
80
88
88
98
E8
ENDCHAR
STARTCHAR 0566
ENCODING 1382
SWIDTH 630 0
DWIDTH 7 0
BBX 5 8 1 -2
BITMAP
E8
98
88
88
98
E8
08
08
ENDCHAR
STARTCHAR 0567
ENCODING 1383
SWIDTH 630 0
DWIDTH 7 0
BBX 5 8 1 0
BITMAP
80
80
F8
80
80
80
80
F0
ENDCHAR
STARTCHAR 0568
ENCODING 1384
SWIDTH 630 0
DWIDTH 7 0
BBX 5 8 1 -2
BITMAP
F0
98
88
88
88
88
80
F8
ENDCHAR
STARTCHAR 0569
ENCODING 1385
SWIDTH 630 0
DWIDTH 7 0
BBX 6 8 1 -2
BITMAP
F0
88
88
BC
C8
B0
80
80
ENDCHAR
STARTCHAR 056A
ENCODING 1386
SWIDTH 630 0
DWIDTH 7 0
BBX 5 8 1 0
BITMAP
10
10
F8
90
90
90
90
F0
ENDCHAR
STARTCHAR 056B
ENCODING 1387
SWIDTH 630 0
DWIDTH 7 0
BBX 5 10 1 -2
BITMAP
80
80
F0
88
88
88
88
88
80
80
ENDCHAR
STARTCHAR 056C
ENCODING 1388
SWIDTH 630 0
DWIDTH 7 0
BBX 3 8 2 -2
BITMAP
80
80
80
80
80
80
80
E0
ENDCHAR
STARTCHAR 056D
ENCODING 1389
SWIDTH 630 0
DWIDTH 7 0
BBX 5 10 1 -2
BITMAP
80
80
E8
A8
A8
A8
A8
B8
80
80
ENDCHAR
STARTCHAR 056E
ENCODING 1390
SWIDTH 630 0
DWIDTH 7 0
BBX 5 8 1 0
BITMAP
40
E0
78
88
88
88
88
70
ENDCHAR
STARTCHAR 056F
ENCODING 1391
SWIDTH 630 0
DWIDTH 7 0
BBX 5 10 1 -2
BITMAP
80
80
88
88
88
88
98
68
08
08
ENDCHAR
STARTCHAR 0570
ENCODING 1392
SWIDTH 630 0
DWIDTH 7 0
BBX 5 8 1 0
BITMAP
80
80
F0
88
88
88
88
88
ENDCHAR
STARTCHAR 0571
ENCODING 1393
SWIDTH 630 0
DWIDTH 7 0
BBX 5 8 1 0
BITMAP
40
50
20
50
88
88
98
68
ENDCHAR
STARTCHAR 0572
ENCODING 1394
SWIDTH 630 0
DWIDTH 7 0
BBX 6 8 1 -2
BITMAP
F0
88
88
88
88
88
08
0C
ENDCHAR
STARTCHAR 0573
ENCODING 1395
SWIDTH 630 0
DWIDTH 7 0
BBX 5 8 1 0
BITMAP
38
60
F0
98
88
88
98
68
ENDCHAR
STARTCHAR 0574
ENCODING 1396
SWIDTH 630 0
DWIDTH 7 0
BBX 5 8 1 0
BITMAP
18
10
90
90
90
90
90
F0
ENDCHAR
STARTCHAR 0575
ENCODING 1397
SWIDTH 630 0
DWIDTH 7 0
BBX 3 8 1 -2
BITMAP
20
20
20
20
20
20
20
E0
ENDCHAR
STARTCHAR 0576
ENCODING 1398
SWIDTH 630 0
DWIDTH 7 0
BBX 6 8 0 0
BITMAP
C0
40
44
44
44
44
4C
34
ENDCHAR
STARTCHAR 0577
ENCODING 1399
SWIDTH 630 0
DWIDTH 7 0
BBX 5 8 1 -2
BITMAP
70
88
08
10
20
40
80
F0
ENDCHAR
STARTCHAR 0578
ENCODING 1400
SWIDTH 630 0
DWIDTH 7 0
BBX 5 6 1 0
BITMAP
F0
88
88
88
88
88
ENDCHAR
STARTCHAR 0579
ENCODING 1401
SWIDTH 630 0
DWIDTH 7 0
BBX 4 9 1 -2
BITMAP
20
40
40
70
20
40
40
80
F0
ENDCHAR
STARTCHAR 057A
ENCODING 1402
SWIDTH 630 0
DWIDTH 7 0
BBX 5 8 1 -2
BITMAP
A8
A8
A8
A8
A8
F8
08
08
ENDCHAR
STARTCHAR 057B
ENCODING 1403
SWIDTH 630 0
DWIDTH 7 0
BBX 5 8 1 -2
BITMAP
70
88
88
50
60
40
80
F8
ENDCHAR
STARTCHAR 057C
ENCODING 1404
SWIDTH 630 0
DWIDTH 7 0
BBX 5 6 1 0
BITMAP
F0
88
88
88
90
B8
ENDCHAR
STARTCHAR 057D
ENCODING 1405
SWIDTH 630 0
DWIDTH 7 0
BBX 5 6 1 0
BITMAP
88
88
88
88
98
68
ENDCHAR
STARTCHAR 057E
ENCODING 1406
SWIDTH 630 0
DWIDTH 7 0
BBX 6 10 1 -2
BITMAP
08
08
88
88
88
88
98
68
08
0C
ENDCHAR
STARTCHAR 057F
ENCODING 1407
SWIDTH 630 0
DWIDTH 7 0
BBX 5 6 1 0
BITMAP
B8
A8
A8
A8
A8
E8
ENDCHAR
STARTCHAR 0580
ENCODING 1408
SWIDTH 630 0
DWIDTH 7 0
BBX 5 8 1 -2
BITMAP
F0
88
88
88
88
88
80
80
ENDCHAR
STARTCHAR 0581
ENCODING 1409
SWIDTH 630 0
DWIDTH 7 0
BBX 5 8 1 -2
BITMAP
78
88
88
88
98
68
08
F0
ENDCHAR
STARTCHAR 0582
ENCODING 1410
SWIDTH 630 0
DWIDTH 7 0
BBX 4 6 2 0
BITMAP
80
80
80
80
80
F0
ENDCHAR
STARTCHAR 0583
ENCODING 1411
SWIDTH 630 0
DWIDTH 7 0
BBX 5 10 1 -2
BITMAP
20
20
B8
A8
A8
A8
A8
E8
20
20
ENDCHAR
STARTCHAR 0584
ENCODING 1412
SWIDTH 630 0
DWIDTH 7 0
BBX 6 8 0 -2
BITMAP
78
44
44
44
44
78
40
FC
ENDCHAR
STARTCHAR 0585
ENCODING 1413
SWIDTH 630 0
DWIDTH 7 0
BBX 5 6 1 0
BITMAP
70
88
88
88
88
70
ENDCHAR
STARTCHAR 0586
ENCODING 1414
SWIDTH 630 0
DWIDTH 7 0
BBX 6 10 0 -2
BITMAP
70
90
78
14
14
14
94
78
10
10
ENDCHAR
STARTCHAR 0587
ENCODING 1415
SWIDTH 630 0
DWIDTH 7 0
BBX 6 8 1 0
BITMAP
80
80
90
90
90
90
90
FC
ENDCHAR
STARTCHAR 0589
ENCODING 1417
SWIDTH 630 0
DWIDTH 7 0
BBX 1 4 3 0
BITMAP
80
00
00
80
ENDCHAR
STARTCHAR 058A
ENCODING 1418
SWIDTH 630 0
DWIDTH 7 0
BBX 3 1 2 2
BITMAP
E0
ENDCHAR
STARTCHAR 0E3F
ENCODING 3647
SWIDTH 630 0
DWIDTH 7 0
BBX 5 9 1 -1
BITMAP
20
F0
A8
A8
F0
A8
A8
F8
20
ENDCHAR
STARTCHAR 10D0
ENCODING 4304
SWIDTH 630 0
DWIDTH 7 0
BBX 5 7 1 0
BITMAP
40
60
30
88
88
88
70
ENDCHAR
STARTCHAR 10D1
ENCODING 4305
SWIDTH 630 0
DWIDTH 7 0
BBX 5 9 1 0
BITMAP
C0
20
20
70
98
88
88
88
70
ENDCHAR
STARTCHAR 10D2
ENCODING 4306
SWIDTH 630 0
DWIDTH 7 0
BBX 5 8 1 -2
BITMAP
F0
90
90
70
88
88
88
70
ENDCHAR
STARTCHAR 10D3
ENCODING 4307
SWIDTH 630 0
DWIDTH 7 0
BBX 6 8 0 -2
BITMAP
7C
94
94
94
54
5C
30
48
ENDCHAR
STARTCHAR 10D4
ENCODING 4308
SWIDTH 630 0
DWIDTH 7 0
BBX 5 8 1 -2
BITMAP
70
88
88
48
48
88
88
70
ENDCHAR
STARTCHAR 10D5
ENCODING 4309
SWIDTH 630 0
DWIDTH 7 0
BBX 5 8 1 -2
BITMAP
70
88
88
30
88
88
88
70
ENDCHAR
STARTCHAR 10D6
ENCODING 4310
SWIDTH 630 0
DWIDTH 7 0
BBX 5 9 1 0
BITMAP
E0
90
90
70
88
88
88
88
70
ENDCHAR
STARTCHAR 10D7
ENCODING 4311
SWIDTH 630 0
DWIDTH 7 0
BBX 6 6 0 0
BITMAP
6C
94
94
94
94
6C
ENDCHAR
STARTCHAR 10D8
ENCODING 4312
SWIDTH 630 0
DWIDTH 7 0
BBX 5 6 1 0
BITMAP
70
88
88
88
88
50
ENDCHAR
STARTCHAR 10D9
ENCODING 4313
SWIDTH 630 0
DWIDTH 7 0
BBX 5 8 1 -2
BITMAP
70
08
08
30
88
88
88
70
ENDCHAR
STARTCHAR 10DA
ENCODING 4314
SWIDTH 630 0
DWIDTH 7 0
BBX 5 8 1 -2
BITMAP
70
88
88
88
90
40
E0
10
ENDCHAR
STARTCHAR 10DB
ENCODING 4315
SWIDTH 630 0
DWIDTH 7 0
BBX 5 9 1 0
BITMAP
F0
88
08
78
98
88
88
88
70
ENDCHAR
STARTCHAR 10DC
ENCODING 4316
SWIDTH 630 0
DWIDTH 7 0
BBX 5 9 1 0
BITMAP
F0
80
80
F0
88
88
88
88
70
ENDCHAR
STARTCHAR 10DD
ENCODING 4317
SWIDTH 630 0
DWIDTH 7 0
BBX 6 6 0 0
BITMAP
7C
94
94
94
84
4C
ENDCHAR
STARTCHAR 10DE
ENCODING 4318
SWIDTH 630 0
DWIDTH 7 0
BBX 5 9 1 0
BITMAP
C0
30
18
10
30
88
88
88
70
ENDCHAR
STARTCHAR 10DF
ENCODING 4319
SWIDTH 630 0
DWIDTH 7 0
BBX 5 8 1 -2
BITMAP
78
C8
28
28
C8
08
88
F0
ENDCHAR
STARTCHAR 10E0
ENCODING 4320
SWIDTH 630 0
DWIDTH 7 0
BBX 6 9 0 0
BITMAP
18
20
40
7C
94
94
94
44
6C
ENDCHAR
STARTCHAR 10E1
ENCODING 4321
SWIDTH 630 0
DWIDTH 7 0
BBX 5 9 1 0
BITMAP
80
80
90
A0
90
88
88
88
70
ENDCHAR
STARTCHAR 10E2
ENCODING 4322
SWIDTH 630 0
DWIDTH 7 0
BBX 6 10 0 -2
BITMAP
10
30
58
54
94
84
84
84
44
38
ENDCHAR
STARTCHAR 10E3
ENCODING 4323
SWIDTH 630 0
DWIDTH 7 0
BBX 6 8 0 -2
BITMAP
FC
14
14
04
64
44
44
38
ENDCHAR
STARTCHAR 10E4
ENCODING 4324
SWIDTH 630 0
DWIDTH 7 0
BBX 6 8 0 -2
BITMAP
6C
94
94
94
64
04
44
3C
ENDCHAR
STARTCHAR 10E5
ENCODING 4325
SWIDTH 630 0
DWIDTH 7 0
BBX 5 11 1 -2
BITMAP
08
08
08
68
98
88
48
88
88
90
F0
ENDCHAR
STARTCHAR 10E6
ENCODING 4326
SWIDTH 630 0
DWIDTH 7 0
BBX 6 8 0 -2
BITMAP
7C
94
94
84
44
40
70
08
ENDCHAR
STARTCHAR 10E7
ENCODING 4327
SWIDTH 630 0
DWIDTH 7 0
BBX 5 8 1 -2
BITMAP
68
88
88
88
78
08
88
70
ENDCHAR
STARTCHAR 10E8
ENCODING 4328
SWIDTH 630 0
DWIDTH 7 0
BBX 6 9 0 0
BITMAP
78
A4
04
3C
44
44
44
44
38
ENDCHAR
STARTCHAR 10E9
ENCODING 4329
SWIDTH 630 0
DWIDTH 7 0
BBX 5 9 1 0
BITMAP
F0
90
90
F0
88
88
88
98
B0
ENDCHAR
STARTCHAR 10EA
ENCODING 4330
SWIDTH 630 0
DWIDTH 7 0
BBX 6 8 0 -2
BITMAP
58
44
44
98
84
44
44
38
ENDCHAR
STARTCHAR 10EB
ENCODING 4331
SWIDTH 630 0
DWIDTH 7 0
BBX 5 9 1 0
BITMAP
08
08
08
78
98
88
88
90
70
ENDCHAR
STARTCHAR 10EC
ENCODING 4332
SWIDTH 630 0
DWIDTH 7 0
BBX 5 9 1 0
BITMAP
D8
A8
80
F0
98
88
88
98
70
ENDCHAR
STARTCHAR 10ED
ENCODING 4333
SWIDTH 630 0
DWIDTH 7 0
BBX 5 11 1 -2
BITMAP
20
20
20
E0
98
E0
30
98
88
88
70
ENDCHAR
STARTCHAR 10EE
ENCODING 4334
SWIDTH 630 0
DWIDTH 7 0
BBX 5 9 1 0
BITMAP
80
80
80
F0
88
88
88
88
70
ENDCHAR
STARTCHAR 10EF
ENCODING 4335
SWIDTH 630 0
DWIDTH 7 0
BBX 5 10 1 -2
BITMAP
20
A0
70
28
20
10
88
88
88
70
ENDCHAR
STARTCHAR 10F0
ENCODING 4336
SWIDTH 630 0
DWIDTH 7 0
BBX 5 9 1 0
BITMAP
40
30
08
30
08
30
88
88
70
ENDCHAR
STARTCHAR 10F1
ENCODING 4337
SWIDTH 630 0
DWIDTH 7 0
BBX 5 11 1 -2
BITMAP
20
18
88
B0
88
B0
88
B0
88
88
70
ENDCHAR
STARTCHAR 10F2
ENCODING 4338
SWIDTH 630 0
DWIDTH 7 0
BBX 5 7 1 -1
BITMAP
70
88
88
88
98
70
D8
ENDCHAR
STARTCHAR 10F3
ENCODING 4339
SWIDTH 630 0
DWIDTH 7 0
BBX 5 8 1 -2
BITMAP
F8
88
10
60
18
88
88
70
ENDCHAR
STARTCHAR 10F4
ENCODING 4340
SWIDTH 630 0
DWIDTH 7 0
BBX 5 11 1 -2
BITMAP
C0
80
88
78
08
10
60
18
08
88
70
ENDCHAR
STARTCHAR 10F5
ENCODING 4341
SWIDTH 630 0
DWIDTH 7 0
BBX 5 9 1 0
BITMAP
F0
90
88
78
08
F8
88
90
F0
ENDCHAR
STARTCHAR 10F6
ENCODING 4342
SWIDTH 630 0
DWIDTH 7 0
BBX 6 8 0 -2
BITMAP
6C
94
94
94
94
5C
10
20
ENDCHAR
STARTCHAR 10F7
ENCODING 4343
SWIDTH 630 0
DWIDTH 7 0
BBX 5 8 1 -2
BITMAP
70
90
10
60
88
88
88
F0
ENDCHAR
STARTCHAR 10F8
ENCODING 4344
SWIDTH 630 0
DWIDTH 7 0
BBX 5 8 1 -2
BITMAP
B0
88
88
88
F0
80
88
70
ENDCHAR
STARTCHAR 10F9
ENCODING 4345
SWIDTH 630 0
DWIDTH 7 0
BBX 5 8 1 -2
BITMAP
70
88
88
88
70
40
90
70
ENDCHAR
STARTCHAR 10FA
ENCODING 4346
SWIDTH 630 0
DWIDTH 7 0
BBX 5 7 1 -1
BITMAP
70
88
88
88
90
60
90
ENDCHAR
STARTCHAR 10FB
ENCODING 4347
SWIDTH 630 0
DWIDTH 7 0
BBX 3 6 2 0
BITMAP
80
00
00
20
00
80
ENDCHAR
STARTCHAR 10FC
ENCODING 4348
SWIDTH 630 0
DWIDTH 7 0
BBX 2 5 2 4
BITMAP
C0
C0
C0
C0
40
ENDCHAR
STARTCHAR 1E80
ENCODING 7808
SWIDTH 630 0
DWIDTH 7 0
BBX 7 10 0 0
BITMAP
20
10
82
84
94
74
6C
6C
6C
4C
ENDCHAR
STARTCHAR 1E81
ENCODING 7809
SWIDTH 630 0
DWIDTH 7 0
BBX 7 9 0 0
BITMAP
60
30
00
82
84
54
74
6C
68
ENDCHAR
STARTCHAR 1E82
ENCODING 7810
SWIDTH 630 0
DWIDTH 7 0
BBX 7 10 0 0
BITMAP
18
00
82
84
94
74
6C
6C
6C
4C
ENDCHAR
STARTCHAR 1E83
ENCODING 7811
SWIDTH 630 0
DWIDTH 7 0
BBX 7 9 0 0
BITMAP
0C
10
00
82
84
54
74
6C
68
ENDCHAR
STARTCHAR 1E84
ENCODING 7812
SWIDTH 630 0
DWIDTH 7 0
BBX 7 10 0 0
BITMAP
28
00
82
84
94
74
6C
6C
6C
4C
ENDCHAR
STARTCHAR 1E85
ENCODING 7813
SWIDTH 630 0
DWIDTH 7 0
BBX 7 8 0 0
BITMAP
28
00
82
84
54
74
6C
68
ENDCHAR
STARTCHAR 1EBC
ENCODING 7868
SWIDTH 630 0
DWIDTH 7 0
BBX 5 10 1 0
BITMAP
70
50
F8
80
80
F8
80
80
80
F8
ENDCHAR
STARTCHAR 1EBD
ENCODING 7869
SWIDTH 630 0
DWIDTH 7 0
BBX 5 8 1 0
BITMAP
70
00
70
88
F8
80
80
78
ENDCHAR
STARTCHAR 1EF2
ENCODING 7922
SWIDTH 630 0
DWIDTH 7 0
BBX 6 10 0 0
BITMAP
20
10
C4
4C
28
30
10
10
10
10
ENDCHAR
STARTCHAR 1EF3
ENCODING 7923
SWIDTH 630 0
DWIDTH 7 0
BBX 5 11 1 -2
BITMAP
C0
20
00
88
88
50
50
60
20
20
C0
ENDCHAR
STARTCHAR 1EF8
ENCODING 7928
SWIDTH 630 0
DWIDTH 7 0
BBX 6 10 0 0
BITMAP
28
58
C4
4C
28
30
10
10
10
10
ENDCHAR
STARTCHAR 1EF9
ENCODING 7929
SWIDTH 630 0
DWIDTH 7 0
BBX 5 10 1 -2
BITMAP
70
00
88
88
50
50
60
20
20
C0
ENDCHAR
STARTCHAR 2000
ENCODING 8192
SWIDTH 630 0
DWIDTH 7 0
BBX 0 0 0 0
BITMAP
ENDCHAR
STARTCHAR 2001
ENCODING 8193
SWIDTH 630 0
DWIDTH 7 0
BBX 0 0 0 0
BITMAP
ENDCHAR
STARTCHAR 2002
ENCODING 8194
SWIDTH 630 0
DWIDTH 7 0
BBX 0 0 0 0
BITMAP
ENDCHAR
STARTCHAR 2003
ENCODING 8195
SWIDTH 630 0
DWIDTH 7 0
BBX 0 0 0 0
BITMAP
ENDCHAR
STARTCHAR 2004
ENCODING 8196
SWIDTH 630 0
DWIDTH 7 0
BBX 0 0 0 0
BITMAP
ENDCHAR
STARTCHAR 2005
ENCODING 8197
SWIDTH 630 0
DWIDTH 7 0
BBX 0 0 0 0
BITMAP
ENDCHAR
STARTCHAR 2006
ENCODING 8198
SWIDTH 630 0
DWIDTH 7 0
BBX 0 0 0 0
BITMAP
ENDCHAR
STARTCHAR 2007
ENCODING 8199
SWIDTH 630 0
DWIDTH 7 0
BBX 0 0 0 0
BITMAP
ENDCHAR
STARTCHAR 2008
ENCODING 8200
SWIDTH 630 0
DWIDTH 7 0
BBX 0 0 0 0
BITMAP
ENDCHAR
STARTCHAR 2009
ENCODING 8201
SWIDTH 630 0
DWIDTH 7 0
BBX 0 0 0 0
BITMAP
ENDCHAR
STARTCHAR 200A
ENCODING 8202
SWIDTH 630 0
DWIDTH 7 0
BBX 0 0 0 0
BITMAP
ENDCHAR
STARTCHAR 2010
ENCODING 8208
SWIDTH 630 0
DWIDTH 7 0
BBX 3 1 2 2
BITMAP
E0
ENDCHAR
STARTCHAR 2011
ENCODING 8209
SWIDTH 630 0
DWIDTH 7 0
BBX 3 1 2 2
BITMAP
E0
ENDCHAR
STARTCHAR 2012
ENCODING 8210
SWIDTH 630 0
DWIDTH 7 0
BBX 5 1 1 2
BITMAP
F8
ENDCHAR
STARTCHAR 2013
ENCODING 8211
SWIDTH 630 0
DWIDTH 7 0
BBX 3 1 2 2
BITMAP
E0
ENDCHAR
STARTCHAR 2014
ENCODING 8212
SWIDTH 630 0
DWIDTH 7 0
BBX 7 1 0 2
BITMAP
FE
ENDCHAR
STARTCHAR 2015
ENCODING 8213
SWIDTH 630 0
DWIDTH 7 0
BBX 7 1 0 2
BITMAP
FE
ENDCHAR
STARTCHAR 2016
ENCODING 8214
SWIDTH 630 0
DWIDTH 7 0
BBX 3 11 2 -3
BITMAP
A0
A0
A0
A0
A0
A0
A0
A0
A0
A0
A0
ENDCHAR
STARTCHAR 2017
ENCODING 8215
SWIDTH 630 0
DWIDTH 7 0
BBX 7 2 0 -3
BITMAP
FE
FE
ENDCHAR
STARTCHAR 2018
ENCODING 8216
SWIDTH 630 0
DWIDTH 7 0
BBX 1 3 3 5
BITMAP
80
80
80
ENDCHAR
STARTCHAR 2019
ENCODING 8217
SWIDTH 630 0
DWIDTH 7 0
BBX 1 3 3 5
BITMAP
80
80
80
ENDCHAR
STARTCHAR 201A
ENCODING 8218
SWIDTH 630 0
DWIDTH 7 0
BBX 2 3 2 -1
BITMAP
40
40
80
ENDCHAR
STARTCHAR 201B
ENCODING 8219
SWIDTH 630 0
DWIDTH 7 0
BBX 1 3 3 5
BITMAP
80
80
80
ENDCHAR
STARTCHAR 201C
ENCODING 8220
SWIDTH 630 0
DWIDTH 7 0
BBX 5 3 1 5
BITMAP
58
D0
D0
ENDCHAR
STARTCHAR 201D
ENCODING 8221
SWIDTH 630 0
DWIDTH 7 0
BBX 5 3 1 5
BITMAP
58
50
90
ENDCHAR
STARTCHAR 201E
ENCODING 8222
SWIDTH 630 0
DWIDTH 7 0
BBX 5 3 1 -1
BITMAP
58
50
90
ENDCHAR
STARTCHAR 201F
ENCODING 8223
SWIDTH 630 0
DWIDTH 7 0
BBX 5 3 1 5
BITMAP
D0
D0
58
ENDCHAR
STARTCHAR 2020
ENCODING 8224
SWIDTH 630 0
DWIDTH 7 0
BBX 5 9 1 -1
BITMAP
20
20
F8
20
20
20
20
20
20
ENDCHAR
STARTCHAR 2021
ENCODING 8225
SWIDTH 630 0
DWIDTH 7 0
BBX 5 9 1 -1
BITMAP
20
20
F8
20
20
20
F8
20
20
ENDCHAR
STARTCHAR 2022
ENCODING 8226
SWIDTH 630 0
DWIDTH 7 0
BBX 3 3 2 2
BITMAP
E0
E0
E0
ENDCHAR
STARTCHAR 2023
ENCODING 8227
SWIDTH 630 0
DWIDTH 7 0
BBX 3 4 2 2
BITMAP
80
E0
C0
80
ENDCHAR
STARTCHAR 2024
ENCODING 8228
SWIDTH 630 0
DWIDTH 7 0
BBX 1 2 3 0
BITMAP
80
80
ENDCHAR
STARTCHAR 2025
ENCODING 8229
SWIDTH 630 0
DWIDTH 7 0
BBX 4 2 1 0
BITMAP
D0
D0
ENDCHAR
STARTCHAR 2026
ENCODING 8230
SWIDTH 630 0
DWIDTH 7 0
BBX 6 2 0 0
BITMAP
D4
D4
ENDCHAR
STARTCHAR 2027
ENCODING 8231
SWIDTH 630 0
DWIDTH 7 0
BBX 2 2 2 3
BITMAP
40
C0
ENDCHAR
STARTCHAR 202F
ENCODING 8239
SWIDTH 630 0
DWIDTH 7 0
BBX 0 0 0 0
BITMAP
ENDCHAR
STARTCHAR 2030
ENCODING 8240
SWIDTH 630 0
DWIDTH 7 0
BBX 7 8 0 0
BITMAP
60
A0
A4
78
C0
6C
92
6C
ENDCHAR
STARTCHAR 2031
ENCODING 8241
SWIDTH 630 0
DWIDTH 7 0
BBX 7 8 0 0
BITMAP
60
A0
A4
78
C0
FC
AA
FC
ENDCHAR
STARTCHAR 2032
ENCODING 8242
SWIDTH 630 0
DWIDTH 7 0
BBX 2 2 2 6
BITMAP
40
80
ENDCHAR
STARTCHAR 2033
ENCODING 8243
SWIDTH 630 0
DWIDTH 7 0
BBX 3 2 2 6
BITMAP
E0
C0
ENDCHAR
STARTCHAR 2034
ENCODING 8244
SWIDTH 630 0
DWIDTH 7 0
BBX 5 2 1 6
BITMAP
E8
D0
ENDCHAR
STARTCHAR 2035
ENCODING 8245
SWIDTH 630 0
DWIDTH 7 0
BBX 2 2 2 6
BITMAP
C0
40
ENDCHAR
STARTCHAR 2036
ENCODING 8246
SWIDTH 630 0
DWIDTH 7 0
BBX 3 2 2 6
BITMAP
E0
60
ENDCHAR
STARTCHAR 2037
ENCODING 8247
SWIDTH 630 0
DWIDTH 7 0
BBX 5 2 1 6
BITMAP
F0
68
ENDCHAR
STARTCHAR 2039
ENCODING 8249
SWIDTH 630 0
DWIDTH 7 0
BBX 3 5 1 1
BITMAP
20
20
C0
40
20
ENDCHAR
STARTCHAR 203A
ENCODING 8250
SWIDTH 630 0
DWIDTH 7 0
BBX 2 5 3 1
BITMAP
80
80
40
40
80
ENDCHAR
STARTCHAR 203C
ENCODING 8252
SWIDTH 630 0
DWIDTH 7 0
BBX 5 8 1 0
BITMAP
D8
D8
58
50
50
00
D8
D8
ENDCHAR
STARTCHAR 203D
ENCODING 8253
SWIDTH 630 0
DWIDTH 7 0
BBX 5 8 1 0
BITMAP
70
B8
38
30
20
20
20
60
ENDCHAR
STARTCHAR 203E
ENCODING 8254
SWIDTH 630 0
DWIDTH 7 0
BBX 7 1 0 7
BITMAP
FE
ENDCHAR
STARTCHAR 203F
ENCODING 8255
SWIDTH 630 0
DWIDTH 7 0
BBX 7 2 0 -3
BITMAP
82
7C
ENDCHAR
STARTCHAR 2044
ENCODING 8260
SWIDTH 630 0
DWIDTH 7 0
BBX 5 9 1 1
BITMAP
08
10
10
20
20
40
40
80
80
ENDCHAR
STARTCHAR 2045
ENCODING 8261
SWIDTH 630 0
DWIDTH 7 0
BBX 2 10 3 -2
BITMAP
C0
80
80
80
C0
80
80
80
80
C0
ENDCHAR
STARTCHAR 2046
ENCODING 8262
SWIDTH 630 0
DWIDTH 7 0
BBX 2 10 2 -2
BITMAP
C0
40
40
40
C0
40
40
40
40
C0
ENDCHAR
STARTCHAR 2047
ENCODING 8263
SWIDTH 630 0
DWIDTH 7 0
BBX 7 8 0 0
BITMAP
FC
26
24
4C
48
00
48
4C
ENDCHAR
STARTCHAR 2048
ENCODING 8264
SWIDTH 630 0
DWIDTH 7 0
BBX 6 8 0 0
BITMAP
EC
AC
2C
4C
48
00
4C
4C
ENDCHAR
STARTCHAR 2049
ENCODING 8265
SWIDTH 630 0
DWIDTH 7 0
BBX 6 8 1 0
BITMAP
B8
8C
88
98
90
00
90
98
ENDCHAR
STARTCHAR 204B
ENCODING 8267
SWIDTH 630 0
DWIDTH 7 0
BBX 5 9 1 -1
BITMAP
F0
B8
B8
B8
A0
A0
A0
A0
A0
ENDCHAR
STARTCHAR 205F
ENCODING 8287
SWIDTH 630 0
DWIDTH 7 0
BBX 0 0 0 0
BITMAP
ENDCHAR
STARTCHAR 2070
ENCODING 8304
SWIDTH 630 0
DWIDTH 7 0
BBX 3 5 2 6
BITMAP
C0
A0
E0
A0
C0
ENDCHAR
STARTCHAR 2074
ENCODING 8308
SWIDTH 630 0
DWIDTH 7 0
BBX 4 5 1 6
BITMAP
20
60
60
F0
20
ENDCHAR
STARTCHAR 2075
ENCODING 8309
SWIDTH 630 0
DWIDTH 7 0
BBX 3 5 2 6
BITMAP
C0
80
C0
20
E0
ENDCHAR
STARTCHAR 2076
ENCODING 8310
SWIDTH 630 0
DWIDTH 7 0
BBX 3 5 2 6
BITMAP
E0
80
E0
A0
E0
ENDCHAR
STARTCHAR 2077
ENCODING 8311
SWIDTH 630 0
DWIDTH 7 0
BBX 3 5 2 6
BITMAP
E0
20
40
40
80
ENDCHAR
STARTCHAR 2078
ENCODING 8312
SWIDTH 630 0
DWIDTH 7 0
BBX 3 5 2 6
BITMAP
E0
A0
40
A0
E0
ENDCHAR
STARTCHAR 2079
ENCODING 8313
SWIDTH 630 0
DWIDTH 7 0
BBX 3 5 2 6
BITMAP
C0
A0
A0
E0
C0
ENDCHAR
STARTCHAR 207A
ENCODING 8314
SWIDTH 630 0
DWIDTH 7 0
BBX 3 3 2 4
BITMAP
40
E0
40
ENDCHAR
STARTCHAR 207B
ENCODING 8315
SWIDTH 630 0
DWIDTH 7 0
BBX 3 1 2 5
BITMAP
E0
ENDCHAR
STARTCHAR 207C
ENCODING 8316
SWIDTH 630 0
DWIDTH 7 0
BBX 3 2 2 5
BITMAP
E0
E0
ENDCHAR
STARTCHAR 207D
ENCODING 8317
SWIDTH 630 0
DWIDTH 7 0
BBX 1 6 3 3
BITMAP
80
80
80
80
80
80
ENDCHAR
STARTCHAR 207E
ENCODING 8318
SWIDTH 630 0
DWIDTH 7 0
BBX 1 6 3 3
BITMAP
80
80
80
80
80
80
ENDCHAR
STARTCHAR 208A
ENCODING 8330
SWIDTH 630 0
DWIDTH 7 0
BBX 3 3 2 0
BITMAP
40
E0
40
ENDCHAR
STARTCHAR 208B
ENCODING 8331
SWIDTH 630 0
DWIDTH 7 0
BBX 3 1 2 1
BITMAP
E0
ENDCHAR
STARTCHAR 208C
ENCODING 8332
SWIDTH 630 0
DWIDTH 7 0
BBX 3 2 2 1
BITMAP
E0
E0
ENDCHAR
STARTCHAR 208D
ENCODING 8333
SWIDTH 630 0
DWIDTH 7 0
BBX 1 5 3 -1
BITMAP
80
80
80
80
80
ENDCHAR
STARTCHAR 208E
ENCODING 8334
SWIDTH 630 0
DWIDTH 7 0
BBX 1 5 3 -1
BITMAP
80
80
80
80
80
ENDCHAR
STARTCHAR 20A0
ENCODING 8352
SWIDTH 630 0
DWIDTH 7 0
BBX 7 8 0 0
BITMAP
70
90
8E
88
8E
78
08
0E
ENDCHAR
STARTCHAR 20A1
ENCODING 8353
SWIDTH 630 0
DWIDTH 7 0
BBX 5 8 1 0
BITMAP
78
A8
B0
B0
D0
E0
E8
F8
ENDCHAR
STARTCHAR 20A2
ENCODING 8354
SWIDTH 630 0
DWIDTH 7 0
BBX 5 8 1 0
BITMAP
78
88
80
B8
A0
A0
A8
78
ENDCHAR
STARTCHAR 20A3
ENCODING 8355
SWIDTH 630 0
DWIDTH 7 0
BBX 6 8 0 0
BITMAP
7C
40
40
7C
40
40
F0
40
ENDCHAR
STARTCHAR 20A4
ENCODING 8356
SWIDTH 630 0
DWIDTH 7 0
BBX 5 8 1 0
BITMAP
38
40
40
F0
40
F0
40
F8
ENDCHAR
STARTCHAR 20A5
ENCODING 8357
SWIDTH 630 0
DWIDTH 7 0
BBX 5 8 1 -1
BITMAP
10
F8
A8
A8
A8
E8
E8
40
ENDCHAR
STARTCHAR 20A6
ENCODING 8358
SWIDTH 630 0
DWIDTH 7 0
BBX 7 8 0 0
BITMAP
64
64
64
FE
FE
5C
4C
4C
ENDCHAR
STARTCHAR 20A7
ENCODING 8359
SWIDTH 630 0
DWIDTH 7 0
BBX 7 8 0 0
BITMAP
D0
A0
B6
A8
DC
92
92
9C
ENDCHAR
STARTCHAR 20A8
ENCODING 8360
SWIDTH 630 0
DWIDTH 7 0
BBX 7 8 0 0
BITMAP
E0
A0
9C
A8
E8
A6
92
9C
ENDCHAR
STARTCHAR 20A9
ENCODING 8361
SWIDTH 630 0
DWIDTH 7 0
BBX 7 8 0 0
BITMAP
92
FE
FE
74
6C
6C
6C
4C
ENDCHAR
STARTCHAR 20AA
ENCODING 8362
SWIDTH 630 0
DWIDTH 7 0
BBX 6 8 0 0
BITMAP
F4
8C
8C
AC
AC
A4
A4
9C
ENDCHAR
STARTCHAR 20AB
ENCODING 8363
SWIDTH 630 0
DWIDTH 7 0
BBX 6 10 1 -2
BITMAP
1C
08
78
48
88
88
48
78
00
78
ENDCHAR
STARTCHAR 20AC
ENCODING 8364
SWIDTH 630 0
DWIDTH 7 0
BBX 6 8 0 0
BITMAP
3C
24
40
F8
F0
40
24
3C
ENDCHAR
STARTCHAR 20AD
ENCODING 8365
SWIDTH 630 0
DWIDTH 7 0
BBX 6 8 0 0
BITMAP
44
48
50
F8
70
50
48
44
ENDCHAR
STARTCHAR 20AE
ENCODING 8366
SWIDTH 630 0
DWIDTH 7 0
BBX 6 8 0 0
BITMAP
FC
14
18
3C
50
70
10
10
ENDCHAR
STARTCHAR 20AF
ENCODING 8367
SWIDTH 630 0
DWIDTH 7 0
BBX 7 10 0 -2
BITMAP
60
50
48
48
4C
56
DA
A4
08
08
ENDCHAR
STARTCHAR 20B0
ENCODING 8368
SWIDTH 630 0
DWIDTH 7 0
BBX 6 8 0 0
BITMAP
1C
14
14
68
B4
04
04
08
ENDCHAR
STARTCHAR 20B1
ENCODING 8369
SWIDTH 630 0
DWIDTH 7 0
BBX 6 8 1 0
BITMAP
F8
FC
88
FC
F8
80
80
80
ENDCHAR
STARTCHAR 20B2
ENCODING 8370
SWIDTH 630 0
DWIDTH 7 0
BBX 6 9 0 0
BITMAP
10
3C
54
D0
90
94
D4
54
3C
ENDCHAR
STARTCHAR 20B3
ENCODING 8371
SWIDTH 630 0
DWIDTH 7 0
BBX 6 8 0 0
BITMAP
10
30
28
FC
FC
44
44
84
ENDCHAR
STARTCHAR 20B4
ENCODING 8372
SWIDTH 630 0
DWIDTH 7 0
BBX 7 8 0 0
BITMAP
78
44
04
FE
FE
40
44
3C
ENDCHAR
STARTCHAR 20B5
ENCODING 8373
SWIDTH 630 0
DWIDTH 7 0
BBX 5 9 1 -1
BITMAP
20
78
E8
A0
A0
A0
A8
78
20
ENDCHAR
STARTCHAR 20B7
ENCODING 8375
SWIDTH 630 0
DWIDTH 7 0
BBX 7 9 0 -1
BITMAP
1E
20
20
30
0C
64
D4
F8
E0
ENDCHAR
STARTCHAR 20B8
ENCODING 8376
SWIDTH 630 0
DWIDTH 7 0
BBX 6 8 0 0
BITMAP
FC
00
FC
10
10
10
10
10
ENDCHAR
STARTCHAR 20B9
ENCODING 8377
SWIDTH 630 0
DWIDTH 7 0
BBX 5 8 1 0
BITMAP
F8
20
F8
20
C0
20
10
18
ENDCHAR
STARTCHAR 2116
ENCODING 8470
SWIDTH 630 0
DWIDTH 7 0
BBX 6 8 0 0
BITMAP
AC
AC
EC
EC
EC
AC
A0
A0
ENDCHAR
STARTCHAR 2122
ENCODING 8482
SWIDTH 630 0
DWIDTH 7 0
BBX 6 3 0 5
BITMAP
D4
5C
54
ENDCHAR
STARTCHAR 2126
ENCODING 8486
SWIDTH 630 0
DWIDTH 7 0
BBX 6 8 0 0
BITMAP
38
44
44
C4
44
44
48
EC
ENDCHAR
STARTCHAR 2150
ENCODING 8528
SWIDTH 630 0
DWIDTH 7 0
BBX 6 10 0 -2
BITMAP
E0
20
20
74
78
9C
04
08
08
10
ENDCHAR
STARTCHAR 2151
ENCODING 8529
SWIDTH 630 0
DWIDTH 7 0
BBX 6 11 0 -2
BITMAP
60
A0
20
20
70
3C
D8
14
1C
04
18
ENDCHAR
STARTCHAR 2153
ENCODING 8531
SWIDTH 630 0
DWIDTH 7 0
BBX 6 10 0 -2
BITMAP
E0
20
20
74
38
DC
04
08
04
1C
ENDCHAR
STARTCHAR 2154
ENCODING 8532
SWIDTH 630 0
DWIDTH 7 0
BBX 6 11 0 -2
BITMAP
E0
20
20
40
E4
38
DC
04
08
04
1C
ENDCHAR
STARTCHAR 2155
ENCODING 8533
SWIDTH 630 0
DWIDTH 7 0
BBX 6 10 0 -2
BITMAP
E0
20
20
74
78
9C
10
1C
04
18
ENDCHAR
STARTCHAR 2156
ENCODING 8534
SWIDTH 630 0
DWIDTH 7 0
BBX 6 11 0 -2
BITMAP
E0
20
20
40
E4
78
9C
10
1C
04
18
ENDCHAR
STARTCHAR 2157
ENCODING 8535
SWIDTH 630 0
DWIDTH 7 0
BBX 6 11 0 -2
BITMAP
60
10
60
10
E4
78
9C
10
1C
04
18
ENDCHAR
STARTCHAR 2158
ENCODING 8536
SWIDTH 630 0
DWIDTH 7 0
BBX 6 11 0 -2
BITMAP
20
60
A0
F0
24
78
9C
18
04
04
18
ENDCHAR
STARTCHAR 2159
ENCODING 8537
SWIDTH 630 0
DWIDTH 7 0
BBX 6 10 0 -2
BITMAP
E0
20
20
74
38
CC
10
1C
14
1C
ENDCHAR
STARTCHAR 215A
ENCODING 8538
SWIDTH 630 0
DWIDTH 7 0
BBX 6 11 0 -2
BITMAP
60
80
60
10
E4
38
CC
10
1C
14
1C
ENDCHAR
STARTCHAR 215B
ENCODING 8539
SWIDTH 630 0
DWIDTH 7 0
BBX 6 10 0 -2
BITMAP
E0
20
20
74
38
DC
14
08
14
1C
ENDCHAR
STARTCHAR 215C
ENCODING 8540
SWIDTH 630 0
DWIDTH 7 0
BBX 6 11 0 -2
BITMAP
60
10
60
10
E4
38
DC
14
08
14
1C
ENDCHAR
STARTCHAR 215D
ENCODING 8541
SWIDTH 630 0
DWIDTH 7 0
BBX 6 11 0 -2
BITMAP
60
80
60
10
E4
38
DC
14
08
14
1C
ENDCHAR
STARTCHAR 215E
ENCODING 8542
SWIDTH 630 0
DWIDTH 7 0
BBX 6 11 0 -2
BITMAP
E0
20
20
40
44
38
DC
14
08
14
1C
ENDCHAR
STARTCHAR 215F
ENCODING 8543
SWIDTH 630 0
DWIDTH 7 0
BBX 6 6 0 3
BITMAP
C0
20
20
20
74
F8
ENDCHAR
STARTCHAR 2190
ENCODING 8592
SWIDTH 630 0
DWIDTH 7 0
BBX 7 3 0 2
BITMAP
40
FE
40
ENDCHAR
STARTCHAR 2191
ENCODING 8593
SWIDTH 630 0
DWIDTH 7 0
BBX 3 6 2 0
BITMAP
40
E0
40
40
40
40
ENDCHAR
STARTCHAR 2192
ENCODING 8594
SWIDTH 630 0
DWIDTH 7 0
BBX 6 3 0 2
BITMAP
0C
FC
08
ENDCHAR
STARTCHAR 2193
ENCODING 8595
SWIDTH 630 0
DWIDTH 7 0
BBX 3 6 2 0
BITMAP
40
40
40
40
E0
40
ENDCHAR
STARTCHAR 2194
ENCODING 8596
SWIDTH 630 0
DWIDTH 7 0
BBX 6 3 0 1
BITMAP
4C
FC
48
ENDCHAR
STARTCHAR 2195
ENCODING 8597
SWIDTH 630 0
DWIDTH 7 0
BBX 3 6 2 0
BITMAP
40
E0
40
40
E0
40
ENDCHAR
STARTCHAR 2196
ENCODING 8598
SWIDTH 630 0
DWIDTH 7 0
BBX 5 5 1 0
BITMAP
E0
C0
A0
10
08
ENDCHAR
STARTCHAR 2197
ENCODING 8599
SWIDTH 630 0
DWIDTH 7 0
BBX 5 5 1 0
BITMAP
38
18
28
40
80
ENDCHAR
STARTCHAR 2198
ENCODING 8600
SWIDTH 630 0
DWIDTH 7 0
BBX 5 5 1 0
BITMAP
80
C0
68
18
38
ENDCHAR
STARTCHAR 2199
ENCODING 8601
SWIDTH 630 0
DWIDTH 7 0
BBX 5 5 1 0
BITMAP
08
10
A0
C0
E0
ENDCHAR
STARTCHAR 219A
ENCODING 8602
SWIDTH 630 0
DWIDTH 7 0
BBX 6 3 0 1
BITMAP
44
FC
50
ENDCHAR
STARTCHAR 219B
ENCODING 8603
SWIDTH 630 0
DWIDTH 7 0
BBX 6 3 0 1
BITMAP
3C
FC
48
ENDCHAR
STARTCHAR 219C
ENCODING 8604
SWIDTH 630 0
DWIDTH 7 0
BBX 6 3 0 2
BITMAP
EC
D4
B0
ENDCHAR
STARTCHAR 219D
ENCODING 8605
SWIDTH 630 0
DWIDTH 7 0
BBX 6 3 0 2
BITMAP
6C
A4
1C
ENDCHAR
STARTCHAR 219E
ENCODING 8606
SWIDTH 630 0
DWIDTH 7 0
BBX 6 3 0 1
BITMAP
50
FC
50
ENDCHAR
STARTCHAR 219F
ENCODING 8607
SWIDTH 630 0
DWIDTH 7 0
BBX 3 6 2 0
BITMAP
40
E0
C0
E0
40
40
ENDCHAR
STARTCHAR 21A0
ENCODING 8608
SWIDTH 630 0
DWIDTH 7 0
BBX 6 3 0 1
BITMAP
3C
FC
38
ENDCHAR
STARTCHAR 21A1
ENCODING 8609
SWIDTH 630 0
DWIDTH 7 0
BBX 3 6 2 0
BITMAP
40
40
E0
C0
E0
40
ENDCHAR
STARTCHAR 21A2
ENCODING 8610
SWIDTH 630 0
DWIDTH 7 0
BBX 6 3 0 1
BITMAP
44
F8
44
ENDCHAR
STARTCHAR 21A3
ENCODING 8611
SWIDTH 630 0
DWIDTH 7 0
BBX 6 3 0 1
BITMAP
CC
3C
C8
ENDCHAR
STARTCHAR 21A4
ENCODING 8612
SWIDTH 630 0
DWIDTH 7 0
BBX 6 3 0 1
BITMAP
44
FC
44
ENDCHAR
STARTCHAR 21A5
ENCODING 8613
SWIDTH 630 0
DWIDTH 7 0
BBX 3 6 2 0
BITMAP
40
E0
40
40
40
E0
ENDCHAR
STARTCHAR 21A6
ENCODING 8614
SWIDTH 630 0
DWIDTH 7 0
BBX 6 3 0 1
BITMAP
88
FC
88
ENDCHAR
STARTCHAR 21A7
ENCODING 8615
SWIDTH 630 0
DWIDTH 7 0
BBX 3 6 2 0
BITMAP
E0
40
40
40
E0
40
ENDCHAR
STARTCHAR 21A8
ENCODING 8616
SWIDTH 630 0
DWIDTH 7 0
BBX 3 6 2 0
BITMAP
40
E0
40
E0
C0
E0
ENDCHAR
STARTCHAR 21A9
ENCODING 8617
SWIDTH 630 0
DWIDTH 7 0
BBX 6 4 0 1
BITMAP
04
44
FC
40
ENDCHAR
STARTCHAR 21AA
ENCODING 8618
SWIDTH 630 0
DWIDTH 7 0
BBX 6 4 0 1
BITMAP
40
88
7C
08
ENDCHAR
STARTCHAR 21AB
ENCODING 8619
SWIDTH 630 0
DWIDTH 7 0
BBX 6 4 0 1
BITMAP
0C
54
FC
50
ENDCHAR
STARTCHAR 21AC
ENCODING 8620
SWIDTH 630 0
DWIDTH 7 0
BBX 6 4 0 1
BITMAP
60
98
7C
18
ENDCHAR
STARTCHAR 21AD
ENCODING 8621
SWIDTH 630 0
DWIDTH 7 0
BBX 6 4 0 1
BITMAP
48
54
EC
48
ENDCHAR
STARTCHAR 21AE
ENCODING 8622
SWIDTH 630 0
DWIDTH 7 0
BBX 6 3 0 1
BITMAP
5C
FC
58
ENDCHAR
STARTCHAR 21AF
ENCODING 8623
SWIDTH 630 0
DWIDTH 7 0
BBX 5 8 1 0
BITMAP
80
88
B0
D0
90
10
38
10
ENDCHAR
STARTCHAR 21B0
ENCODING 8624
SWIDTH 630 0
DWIDTH 7 0
BBX 5 7 1 0
BITMAP
40
F8
48
08
08
08
08
ENDCHAR
STARTCHAR 21B1
ENCODING 8625
SWIDTH 630 0
DWIDTH 7 0
BBX 5 7 1 0
BITMAP
10
F8
90
80
80
80
80
ENDCHAR
STARTCHAR 21B2
ENCODING 8626
SWIDTH 630 0
DWIDTH 7 0
BBX 5 7 1 0
BITMAP
08
08
08
08
48
F8
40
ENDCHAR
STARTCHAR 21B3
ENCODING 8627
SWIDTH 630 0
DWIDTH 7 0
BBX 5 7 1 0
BITMAP
80
80
80
80
90
F8
10
ENDCHAR
STARTCHAR 21B4
ENCODING 8628
SWIDTH 630 0
DWIDTH 7 0
BBX 5 6 1 0
BITMAP
E0
20
20
20
68
30
ENDCHAR
STARTCHAR 21B5
ENCODING 8629
SWIDTH 630 0
DWIDTH 7 0
BBX 6 4 0 0
BITMAP
04
44
FC
40
ENDCHAR
STARTCHAR 21B6
ENCODING 8630
SWIDTH 630 0
DWIDTH 7 0
BBX 6 3 0 2
BITMAP
18
A4
70
ENDCHAR
STARTCHAR 21B7
ENCODING 8631
SWIDTH 630 0
DWIDTH 7 0
BBX 6 3 0 2
BITMAP
70
C8
1C
ENDCHAR
STARTCHAR 21B8
ENCODING 8632
SWIDTH 630 0
DWIDTH 7 0
BBX 6 6 0 0
BITMAP
FC
70
60
50
08
04
ENDCHAR
STARTCHAR 21B9
ENCODING 8633
SWIDTH 630 0
DWIDTH 7 0
BBX 6 6 0 0
BITMAP
A0
FC
A0
1C
FC
14
ENDCHAR
STARTCHAR 21BA
ENCODING 8634
SWIDTH 630 0
DWIDTH 7 0
BBX 6 6 0 0
BITMAP
0C
48
54
84
44
38
ENDCHAR
STARTCHAR 21BB
ENCODING 8635
SWIDTH 630 0
DWIDTH 7 0
BBX 6 6 0 0
BITMAP
E0
64
64
44
44
38
ENDCHAR
STARTCHAR 21BC
ENCODING 8636
SWIDTH 630 0
DWIDTH 7 0
BBX 6 2 0 2
BITMAP
40
FC
ENDCHAR
STARTCHAR 21BD
ENCODING 8637
SWIDTH 630 0
DWIDTH 7 0
BBX 6 2 0 1
BITMAP
FC
40
ENDCHAR
STARTCHAR 21BE
ENCODING 8638
SWIDTH 630 0
DWIDTH 7 0
BBX 2 6 3 0
BITMAP
80
C0
80
80
80
80
ENDCHAR
STARTCHAR 21BF
ENCODING 8639
SWIDTH 630 0
DWIDTH 7 0
BBX 2 6 2 0
BITMAP
40
C0
40
40
40
40
ENDCHAR
STARTCHAR 21C0
ENCODING 8640
SWIDTH 630 0
DWIDTH 7 0
BBX 6 2 0 2
BITMAP
0C
FC
ENDCHAR
STARTCHAR 21C1
ENCODING 8641
SWIDTH 630 0
DWIDTH 7 0
BBX 6 2 0 1
BITMAP
FC
08
ENDCHAR
STARTCHAR 21C2
ENCODING 8642
SWIDTH 630 0
DWIDTH 7 0
BBX 2 6 3 0
BITMAP
80
80
80
80
C0
80
ENDCHAR
STARTCHAR 21C3
ENCODING 8643
SWIDTH 630 0
DWIDTH 7 0
BBX 2 6 2 0
BITMAP
40
40
40
40
C0
40
ENDCHAR
STARTCHAR 21C4
ENCODING 8644
SWIDTH 630 0
DWIDTH 7 0
BBX 6 6 0 0
BITMAP
0C
FC
44
48
FC
40
ENDCHAR
STARTCHAR 21C5
ENCODING 8645
SWIDTH 630 0
DWIDTH 7 0
BBX 6 6 0 0
BITMAP
68
B8
28
28
3C
28
ENDCHAR
STARTCHAR 21C6
ENCODING 8646
SWIDTH 630 0
DWIDTH 7 0
BBX 6 6 0 0
BITMAP
40
FC
48
44
FC
0C
ENDCHAR
STARTCHAR 21C7
ENCODING 8647
SWIDTH 630 0
DWIDTH 7 0
BBX 6 6 0 0
BITMAP
40
FC
40
40
FC
40
ENDCHAR
STARTCHAR 21C8
ENCODING 8648
SWIDTH 630 0
DWIDTH 7 0
BBX 6 6 0 0
BITMAP
68
BC
28
28
28
28
ENDCHAR
STARTCHAR 21C9
ENCODING 8649
SWIDTH 630 0
DWIDTH 7 0
BBX 6 6 0 0
BITMAP
0C
FC
0C
04
FC
0C
ENDCHAR
STARTCHAR 21CA
ENCODING 8650
SWIDTH 630 0
DWIDTH 7 0
BBX 6 6 0 0
BITMAP
28
28
28
28
BC
68
ENDCHAR
STARTCHAR 21CB
ENCODING 8651
SWIDTH 630 0
DWIDTH 7 0
BBX 6 5 0 1
BITMAP
40
FC
00
FC
08
ENDCHAR
STARTCHAR 21CC
ENCODING 8652
SWIDTH 630 0
DWIDTH 7 0
BBX 6 5 0 1
BITMAP
0C
FC
00
FC
40
ENDCHAR
STARTCHAR 21CD
ENCODING 8653
SWIDTH 630 0
DWIDTH 7 0
BBX 6 4 0 1
BITMAP
48
FC
7C
50
ENDCHAR
STARTCHAR 21CE
ENCODING 8654
SWIDTH 630 0
DWIDTH 7 0
BBX 6 4 0 1
BITMAP
58
FC
7C
68
ENDCHAR
STARTCHAR 21CF
ENCODING 8655
SWIDTH 630 0
DWIDTH 7 0
BBX 6 4 0 1
BITMAP
18
FC
FC
48
ENDCHAR
STARTCHAR 21D0
ENCODING 8656
SWIDTH 630 0
DWIDTH 7 0
BBX 6 4 0 1
BITMAP
40
FC
7C
40
ENDCHAR
STARTCHAR 21D1
ENCODING 8657
SWIDTH 630 0
DWIDTH 7 0
BBX 3 6 2 0
BITMAP
40
A0
A0
A0
A0
A0
ENDCHAR
STARTCHAR 21D2
ENCODING 8658
SWIDTH 630 0
DWIDTH 7 0
BBX 6 4 0 1
BITMAP
08
FC
FC
08
ENDCHAR
STARTCHAR 21D3
ENCODING 8659
SWIDTH 630 0
DWIDTH 7 0
BBX 3 6 2 0
BITMAP
A0
A0
A0
A0
A0
40
ENDCHAR
STARTCHAR 21D4
ENCODING 8660
SWIDTH 630 0
DWIDTH 7 0
BBX 6 4 0 1
BITMAP
48
FC
7C
48
ENDCHAR
STARTCHAR 21D5
ENCODING 8661
SWIDTH 630 0
DWIDTH 7 0
BBX 3 6 2 0
BITMAP
40
A0
A0
A0
A0
40
ENDCHAR
STARTCHAR 21D6
ENCODING 8662
SWIDTH 630 0
DWIDTH 7 0
BBX 5 5 1 0
BITMAP
C0
A0
D0
30
18
ENDCHAR
STARTCHAR 21D7
ENCODING 8663
SWIDTH 630 0
DWIDTH 7 0
BBX 5 5 1 0
BITMAP
38
28
58
A0
40
ENDCHAR
STARTCHAR 21D8
ENCODING 8664
SWIDTH 630 0
DWIDTH 7 0
BBX 5 5 1 0
BITMAP
40
A0
58
28
38
ENDCHAR
STARTCHAR 21D9
ENCODING 8665
SWIDTH 630 0
DWIDTH 7 0
BBX 5 5 1 0
BITMAP
10
28
D0
A0
C0
ENDCHAR
STARTCHAR 21DA
ENCODING 8666
SWIDTH 630 0
DWIDTH 7 0
BBX 6 3 0 1
BITMAP
7C
FC
7C
ENDCHAR
STARTCHAR 21DB
ENCODING 8667
SWIDTH 630 0
DWIDTH 7 0
BBX 6 3 0 1
BITMAP
FC
FC
FC
ENDCHAR
STARTCHAR 21DC
ENCODING 8668
SWIDTH 630 0
DWIDTH 7 0
BBX 6 3 0 1
BITMAP
40
FC
40
ENDCHAR
STARTCHAR 21DD
ENCODING 8669
SWIDTH 630 0
DWIDTH 7 0
BBX 6 3 0 1
BITMAP
0C
FC
08
ENDCHAR
STARTCHAR 21E0
ENCODING 8672
SWIDTH 630 0
DWIDTH 7 0
BBX 6 3 0 1
BITMAP
40
EC
40
ENDCHAR
STARTCHAR 21E1
ENCODING 8673
SWIDTH 630 0
DWIDTH 7 0
BBX 3 6 2 0
BITMAP
40
E0
40
40
00
40
ENDCHAR
STARTCHAR 21E2
ENCODING 8674
SWIDTH 630 0
DWIDTH 7 0
BBX 6 3 0 1
BITMAP
0C
AC
08
ENDCHAR
STARTCHAR 21E3
ENCODING 8675
SWIDTH 630 0
DWIDTH 7 0
BBX 3 6 2 0
BITMAP
40
00
40
40
E0
40
ENDCHAR
STARTCHAR 21E4
ENCODING 8676
SWIDTH 630 0
DWIDTH 7 0
BBX 6 3 0 1
BITMAP
A0
FC
A0
ENDCHAR
STARTCHAR 21E5
ENCODING 8677
SWIDTH 630 0
DWIDTH 7 0
BBX 6 3 0 1
BITMAP
14
FC
14
ENDCHAR
STARTCHAR 21E6
ENCODING 8678
SWIDTH 630 0
DWIDTH 7 0
BBX 6 4 0 1
BITMAP
40
BC
BC
40
ENDCHAR
STARTCHAR 21E7
ENCODING 8679
SWIDTH 630 0
DWIDTH 7 0
BBX 4 6 1 0
BITMAP
60
D0
50
50
50
60
ENDCHAR
STARTCHAR 21E8
ENCODING 8680
SWIDTH 630 0
DWIDTH 7 0
BBX 7 4 0 1
BITMAP
08
FC
FE
08
ENDCHAR
STARTCHAR 21E9
ENCODING 8681
SWIDTH 630 0
DWIDTH 7 0
BBX 4 6 1 0
BITMAP
60
50
50
50
D0
60
ENDCHAR
STARTCHAR 21EB
ENCODING 8683
SWIDTH 630 0
DWIDTH 7 0
BBX 4 6 1 0
BITMAP
60
D0
50
50
D0
F0
ENDCHAR
STARTCHAR 21EC
ENCODING 8684
SWIDTH 630 0
DWIDTH 7 0
BBX 4 6 1 0
BITMAP
20
D0
50
50
D0
F0
ENDCHAR
STARTCHAR 21ED
ENCODING 8685
SWIDTH 630 0
DWIDTH 7 0
BBX 4 6 1 0
BITMAP
20
F0
60
60
F0
F0
ENDCHAR
STARTCHAR 21EE
ENCODING 8686
SWIDTH 630 0
DWIDTH 7 0
BBX 4 6 1 0
BITMAP
60
50
D0
50
50
60
ENDCHAR
STARTCHAR 21EF
ENCODING 8687
SWIDTH 630 0
DWIDTH 7 0
BBX 4 6 1 0
BITMAP
60
50
D0
50
D0
F0
ENDCHAR
STARTCHAR 21F0
ENCODING 8688
SWIDTH 630 0
DWIDTH 7 0
BBX 7 4 0 1
BITMAP
C8
FE
FC
C8
ENDCHAR
STARTCHAR 21F1
ENCODING 8689
SWIDTH 630 0
DWIDTH 7 0
BBX 6 6 0 0
BITMAP
FC
B0
B0
D0
88
84
ENDCHAR
STARTCHAR 21F2
ENCODING 8690
SWIDTH 630 0
DWIDTH 7 0
BBX 6 6 0 0
BITMAP
C4
44
2C
1C
1C
FC
ENDCHAR
STARTCHAR 21F3
ENCODING 8691
SWIDTH 630 0
DWIDTH 7 0
BBX 4 5 1 0
BITMAP
60
D0
50
D0
60
ENDCHAR
STARTCHAR 21F4
ENCODING 8692
SWIDTH 630 0
DWIDTH 7 0
BBX 6 3 0 1
BITMAP
68
FC
68
ENDCHAR
STARTCHAR 21F5
ENCODING 8693
SWIDTH 630 0
DWIDTH 7 0
BBX 6 6 0 0
BITMAP
28
3C
28
28
B8
68
ENDCHAR
STARTCHAR 21F6
ENCODING 8694
SWIDTH 630 0
DWIDTH 7 0
BBX 6 8 0 -1
BITMAP
0C
FC
0C
04
FC
08
FC
0C
ENDCHAR
STARTCHAR 21F7
ENCODING 8695
SWIDTH 630 0
DWIDTH 7 0
BBX 6 3 0 1
BITMAP
50
FC
50
ENDCHAR
STARTCHAR 21F8
ENCODING 8696
SWIDTH 630 0
DWIDTH 7 0
BBX 6 3 0 1
BITMAP
28
FC
28
ENDCHAR
STARTCHAR 21F9
ENCODING 8697
SWIDTH 630 0
DWIDTH 7 0
BBX 6 3 0 1
BITMAP
58
FC
58
ENDCHAR
STARTCHAR 21FA
ENCODING 8698
SWIDTH 630 0
DWIDTH 7 0
BBX 6 3 0 1
BITMAP
58
FC
58
ENDCHAR
STARTCHAR 21FB
ENCODING 8699
SWIDTH 630 0
DWIDTH 7 0
BBX 6 3 0 1
BITMAP
58
FC
58
ENDCHAR
STARTCHAR 21FC
ENCODING 8700
SWIDTH 630 0
DWIDTH 7 0
BBX 6 3 0 1
BITMAP
78
FC
78
ENDCHAR
STARTCHAR 21FD
ENCODING 8701
SWIDTH 630 0
DWIDTH 7 0
BBX 6 3 0 1
BITMAP
40
BC
40
ENDCHAR
STARTCHAR 21FE
ENCODING 8702
SWIDTH 630 0
DWIDTH 7 0
BBX 7 3 0 1
BITMAP
04
FA
0C
ENDCHAR
STARTCHAR 21FF
ENCODING 8703
SWIDTH 630 0
DWIDTH 7 0
BBX 7 3 0 1
BITMAP
44
BA
4C
ENDCHAR
STARTCHAR 2200
ENCODING 8704
SWIDTH 630 0
DWIDTH 7 0
BBX 6 8 0 0
BITMAP
84
44
7C
48
28
28
30
10
ENDCHAR
STARTCHAR 2201
ENCODING 8705
SWIDTH 630 0
DWIDTH 7 0
BBX 5 8 1 0
BITMAP
70
88
80
80
80
80
88
70
ENDCHAR
STARTCHAR 2202
ENCODING 8706
SWIDTH 630 0
DWIDTH 7 0
BBX 5 7 1 0
BITMAP
70
08
68
98
98
90
60
ENDCHAR
STARTCHAR 2203
ENCODING 8707
SWIDTH 630 0
DWIDTH 7 0
BBX 5 8 1 0
BITMAP
F8
08
08
08
F8
08
08
F8
ENDCHAR
STARTCHAR 2204
ENCODING 8708
SWIDTH 630 0
DWIDTH 7 0
BBX 5 8 1 0
BITMAP
F8
28
28
28
F8
48
48
F8
ENDCHAR
STARTCHAR 2205
ENCODING 8709
SWIDTH 630 0
DWIDTH 7 0
BBX 6 6 0 0
BITMAP
3C
4C
94
A4
44
B8
ENDCHAR
STARTCHAR 2206
ENCODING 8710
SWIDTH 630 0
DWIDTH 7 0
BBX 7 8 0 0
BITMAP
10
30
28
28
48
44
44
FE
ENDCHAR
STARTCHAR 2207
ENCODING 8711
SWIDTH 630 0
DWIDTH 7 0
BBX 7 8 0 0
BITMAP
FE
C4
44
4C
28
28
30
10
ENDCHAR
STARTCHAR 2208
ENCODING 8712
SWIDTH 630 0
DWIDTH 7 0
BBX 5 8 1 0
BITMAP
78
80
80
80
F8
80
80
78
ENDCHAR
STARTCHAR 2209
ENCODING 8713
SWIDTH 630 0
DWIDTH 7 0
BBX 5 10 1 -1
BITMAP
18
78
90
90
A0
F8
A0
C0
78
40
ENDCHAR
STARTCHAR 220A
ENCODING 8714
SWIDTH 630 0
DWIDTH 7 0
BBX 5 5 1 1
BITMAP
78
80
F8
80
78
ENDCHAR
STARTCHAR 220B
ENCODING 8715
SWIDTH 630 0
DWIDTH 7 0
BBX 5 8 1 0
BITMAP
F0
10
08
08
F8
08
10
F0
ENDCHAR
STARTCHAR 220C
ENCODING 8716
SWIDTH 630 0
DWIDTH 7 0
BBX 5 10 1 -1
BITMAP
10
F0
30
28
28
F8
48
50
F0
80
ENDCHAR
STARTCHAR 220D
ENCODING 8717
SWIDTH 630 0
DWIDTH 7 0
BBX 5 5 1 1
BITMAP
F0
08
F8
08
F0
ENDCHAR
STARTCHAR 220E
ENCODING 8718
SWIDTH 630 0
DWIDTH 7 0
BBX 4 7 1 0
BITMAP
F0
F0
F0
F0
F0
F0
F0
ENDCHAR
STARTCHAR 220F
ENCODING 8719
SWIDTH 630 0
DWIDTH 7 0
BBX 5 10 1 -2
BITMAP
F8
88
88
88
88
88
88
88
88
88
ENDCHAR
STARTCHAR 2210
ENCODING 8720
SWIDTH 630 0
DWIDTH 7 0
BBX 5 10 1 -2
BITMAP
88
88
88
88
88
88
88
88
88
F8
ENDCHAR
STARTCHAR 2211
ENCODING 8721
SWIDTH 630 0
DWIDTH 7 0
BBX 5 10 1 -2
BITMAP
F8
80
40
20
30
20
20
40
80
F8
ENDCHAR
STARTCHAR 2212
ENCODING 8722
SWIDTH 630 0
DWIDTH 7 0
BBX 6 1 0 3
BITMAP
FC
ENDCHAR
STARTCHAR 2213
ENCODING 8723
SWIDTH 630 0
DWIDTH 7 0
BBX 6 6 0 0
BITMAP
FC
00
10
FC
10
10
ENDCHAR
STARTCHAR 2215
ENCODING 8725
SWIDTH 630 0
DWIDTH 7 0
BBX 5 9 1 -1
BITMAP
08
10
10
20
20
40
40
80
80
ENDCHAR
STARTCHAR 2217
ENCODING 8727
SWIDTH 630 0
DWIDTH 7 0
BBX 5 5 1 1
BITMAP
20
B8
60
F8
20
ENDCHAR
STARTCHAR 2218
ENCODING 8728
SWIDTH 630 0
DWIDTH 7 0
BBX 3 4 2 2
BITMAP
C0
A0
A0
C0
ENDCHAR
STARTCHAR 2219
ENCODING 8729
SWIDTH 630 0
DWIDTH 7 0
BBX 1 2 3 3
BITMAP
80
80
ENDCHAR
STARTCHAR 221A
ENCODING 8730
SWIDTH 630 0
DWIDTH 7 0
BBX 6 9 0 0
BITMAP
04
04
04
08
C8
28
30
30
10
ENDCHAR
STARTCHAR 221B
ENCODING 8731
SWIDTH 630 0
DWIDTH 7 0
BBX 6 10 0 0
BITMAP
70
14
34
14
78
C8
48
30
30
10
ENDCHAR
STARTCHAR 221C
ENCODING 8732
SWIDTH 630 0
DWIDTH 7 0
BBX 6 10 0 0
BITMAP
20
54
74
14
48
C8
28
30
30
10
ENDCHAR
STARTCHAR 221D
ENCODING 8733
SWIDTH 630 0
DWIDTH 7 0
BBX 5 4 1 1
BITMAP
68
B0
B0
68
ENDCHAR
STARTCHAR 221E
ENCODING 8734
SWIDTH 630 0
DWIDTH 7 0
BBX 6 4 0 1
BITMAP
6C
94
94
6C
ENDCHAR
STARTCHAR 221F
ENCODING 8735
SWIDTH 630 0
DWIDTH 7 0
BBX 5 5 1 1
BITMAP
80
80
80
80
F8
ENDCHAR
STARTCHAR 2220
ENCODING 8736
SWIDTH 630 0
DWIDTH 7 0
BBX 5 5 1 1
BITMAP
18
10
20
40
F8
ENDCHAR
STARTCHAR 2223
ENCODING 8739
SWIDTH 630 0
DWIDTH 7 0
BBX 1 11 3 -3
BITMAP
80
80
80
80
80
80
80
80
80
80
80
ENDCHAR
STARTCHAR 2227
ENCODING 8743
SWIDTH 630 0
DWIDTH 7 0
BBX 5 6 1 0
BITMAP
20
60
50
50
90
88
ENDCHAR
STARTCHAR 2228
ENCODING 8744
SWIDTH 630 0
DWIDTH 7 0
BBX 5 6 1 0
BITMAP
88
90
50
50
60
20
ENDCHAR
STARTCHAR 2229
ENCODING 8745
SWIDTH 630 0
DWIDTH 7 0
BBX 5 6 1 0
BITMAP
70
88
88
88
88
88
ENDCHAR
STARTCHAR 222A
ENCODING 8746
SWIDTH 630 0
DWIDTH 7 0
BBX 5 6 1 0
BITMAP
88
88
88
88
88
70
ENDCHAR
STARTCHAR 222B
ENCODING 8747
SWIDTH 630 0
DWIDTH 7 0
BBX 5 11 1 -3
BITMAP
18
28
20
20
20
20
20
20
20
C0
C0
ENDCHAR
STARTCHAR 222C
ENCODING 8748
SWIDTH 630 0
DWIDTH 7 0
BBX 6 12 0 -2
BITMAP
3C
28
28
28
28
28
28
28
28
28
28
D8
ENDCHAR
STARTCHAR 222D
ENCODING 8749
SWIDTH 630 0
DWIDTH 7 0
BBX 6 11 0 -2
BITMAP
7C
54
54
54
54
54
54
54
54
54
F8
ENDCHAR
STARTCHAR 2234
ENCODING 8756
SWIDTH 630 0
DWIDTH 7 0
BBX 5 6 1 0
BITMAP
20
20
00
00
98
98
ENDCHAR
STARTCHAR 2235
ENCODING 8757
SWIDTH 630 0
DWIDTH 7 0
BBX 5 6 1 0
BITMAP
98
98
00
00
20
20
ENDCHAR
STARTCHAR 2236
ENCODING 8758
SWIDTH 630 0
DWIDTH 7 0
BBX 1 6 3 0
BITMAP
80
80
00
00
80
80
ENDCHAR
STARTCHAR 2237
ENCODING 8759
SWIDTH 630 0
DWIDTH 7 0
BBX 5 6 1 0
BITMAP
98
98
00
00
98
98
ENDCHAR
STARTCHAR 2238
ENCODING 8760
SWIDTH 630 0
DWIDTH 7 0
BBX 6 3 0 3
BITMAP
10
10
FC
ENDCHAR
STARTCHAR 2239
ENCODING 8761
SWIDTH 630 0
DWIDTH 7 0
BBX 6 6 0 0
BITMAP
04
04
F0
00
04
04
ENDCHAR
STARTCHAR 223A
ENCODING 8762
SWIDTH 630 0
DWIDTH 7 0
BBX 6 6 0 0
BITMAP
C4
C4
FC
00
C4
C4
ENDCHAR
STARTCHAR 223B
ENCODING 8763
SWIDTH 630 0
DWIDTH 7 0
BBX 6 6 0 0
BITMAP
10
10
64
9C
10
10
ENDCHAR
STARTCHAR 223C
ENCODING 8764
SWIDTH 630 0
DWIDTH 7 0
BBX 6 2 0 3
BITMAP
64
9C
ENDCHAR
STARTCHAR 223D
ENCODING 8765
SWIDTH 630 0
DWIDTH 7 0
BBX 6 2 0 3
BITMAP
9C
64
ENDCHAR
STARTCHAR 2241
ENCODING 8769
SWIDTH 630 0
DWIDTH 7 0
BBX 6 6 0 1
BITMAP
10
10
74
9C
10
20
ENDCHAR
STARTCHAR 2242
ENCODING 8770
SWIDTH 630 0
DWIDTH 7 0
BBX 6 3 0 2
BITMAP
FC
64
9C
ENDCHAR
STARTCHAR 2243
ENCODING 8771
SWIDTH 630 0
DWIDTH 7 0
BBX 6 3 0 2
BITMAP
FC
00
FC
ENDCHAR
STARTCHAR 2244
ENCODING 8772
SWIDTH 630 0
DWIDTH 7 0
BBX 6 5 0 1
BITMAP
08
FC
10
FC
40
ENDCHAR
STARTCHAR 2245
ENCODING 8773
SWIDTH 630 0
DWIDTH 7 0
BBX 6 5 0 1
BITMAP
64
9C
FC
00
FC
ENDCHAR
STARTCHAR 2246
ENCODING 8774
SWIDTH 630 0
DWIDTH 7 0
BBX 6 6 0 0
BITMAP
64
9C
FC
10
FC
20
ENDCHAR
STARTCHAR 2247
ENCODING 8775
SWIDTH 630 0
DWIDTH 7 0
BBX 6 7 0 0
BITMAP
08
6C
9C
FC
20
FC
20
ENDCHAR
STARTCHAR 2248
ENCODING 8776
SWIDTH 630 0
DWIDTH 7 0
BBX 6 4 0 2
BITMAP
64
9C
64
9C
ENDCHAR
STARTCHAR 2249
ENCODING 8777
SWIDTH 630 0
DWIDTH 7 0
BBX 6 6 0 1
BITMAP
08
74
9C
74
BC
20
ENDCHAR
STARTCHAR 224A
ENCODING 8778
SWIDTH 630 0
DWIDTH 7 0
BBX 6 5 0 1
BITMAP
64
9C
FC
00
FC
ENDCHAR
STARTCHAR 224B
ENCODING 8779
SWIDTH 630 0
DWIDTH 7 0
BBX 6 5 0 1
BITMAP
64
9C
FC
00
FC
ENDCHAR
STARTCHAR 224C
ENCODING 8780
SWIDTH 630 0
DWIDTH 7 0
BBX 6 5 0 1
BITMAP
9C
64
FC
00
FC
ENDCHAR
STARTCHAR 224D
ENCODING 8781
SWIDTH 630 0
DWIDTH 7 0
BBX 6 5 0 1
BITMAP
84
78
00
78
84
ENDCHAR
STARTCHAR 224E
ENCODING 8782
SWIDTH 630 0
DWIDTH 7 0
BBX 6 6 0 0
BITMAP
38
CC
00
CC
28
30
ENDCHAR
STARTCHAR 224F
ENCODING 8783
SWIDTH 630 0
DWIDTH 7 0
BBX 6 5 0 2
BITMAP
30
28
CC
00
FC
ENDCHAR
STARTCHAR 2250
ENCODING 8784
SWIDTH 630 0
DWIDTH 7 0
BBX 6 5 0 2
BITMAP
10
10
FC
00
FC
ENDCHAR
STARTCHAR 2251
ENCODING 8785
SWIDTH 630 0
DWIDTH 7 0
BBX 6 6 0 1
BITMAP
28
FC
00
FC
10
10
ENDCHAR
STARTCHAR 2252
ENCODING 8786
SWIDTH 630 0
DWIDTH 7 0
BBX 6 7 0 0
BITMAP
C0
C0
FC
00
FC
04
04
ENDCHAR
STARTCHAR 2253
ENCODING 8787
SWIDTH 630 0
DWIDTH 7 0
BBX 6 7 0 0
BITMAP
04
04
FC
00
FC
C0
C0
ENDCHAR
STARTCHAR 2254
ENCODING 8788
SWIDTH 630 0
DWIDTH 7 0
BBX 6 3 0 2
BITMAP
FC
00
FC
ENDCHAR
STARTCHAR 2255
ENCODING 8789
SWIDTH 630 0
DWIDTH 7 0
BBX 6 3 0 2
BITMAP
FC
00
FC
ENDCHAR
STARTCHAR 2256
ENCODING 8790
SWIDTH 630 0
DWIDTH 7 0
BBX 6 3 0 2
BITMAP
FC
28
FC
ENDCHAR
STARTCHAR 2257
ENCODING 8791
SWIDTH 630 0
DWIDTH 7 0
BBX 6 6 0 2
BITMAP
38
28
30
FC
00
FC
ENDCHAR
STARTCHAR 2258
ENCODING 8792
SWIDTH 630 0
DWIDTH 7 0
BBX 6 5 0 2
BITMAP
38
44
FC
00
FC
ENDCHAR
STARTCHAR 2259
ENCODING 8793
SWIDTH 630 0
DWIDTH 7 0
BBX 6 7 0 1
BITMAP
10
28
28
FC
00
00
FC
ENDCHAR
STARTCHAR 225A
ENCODING 8794
SWIDTH 630 0
DWIDTH 7 0
BBX 6 7 0 1
BITMAP
28
30
10
FC
00
00
FC
ENDCHAR
STARTCHAR 225B
ENCODING 8795
SWIDTH 630 0
DWIDTH 7 0
BBX 6 7 0 2
BITMAP
10
78
30
08
FC
00
FC
ENDCHAR
STARTCHAR 225C
ENCODING 8796
SWIDTH 630 0
DWIDTH 7 0
BBX 6 8 0 1
BITMAP
10
30
28
38
FC
00
00
FC
ENDCHAR
STARTCHAR 225D
ENCODING 8797
SWIDTH 630 0
DWIDTH 7 0
BBX 6 7 0 1
BITMAP
24
54
BC
5C
FC
00
FC
ENDCHAR
STARTCHAR 225E
ENCODING 8798
SWIDTH 630 0
DWIDTH 7 0
BBX 6 6 0 2
BITMAP
68
54
54
FC
00
FC
ENDCHAR
STARTCHAR 225F
ENCODING 8799
SWIDTH 630 0
DWIDTH 7 0
BBX 6 7 0 2
BITMAP
30
10
10
10
FC
00
FC
ENDCHAR
STARTCHAR 2260
ENCODING 8800
SWIDTH 630 0
DWIDTH 7 0
BBX 6 7 0 0
BITMAP
04
0C
FC
10
FC
40
40
ENDCHAR
STARTCHAR 2261
ENCODING 8801
SWIDTH 630 0
DWIDTH 7 0
BBX 6 5 0 1
BITMAP
FC
00
FC
00
FC
ENDCHAR
STARTCHAR 2262
ENCODING 8802
SWIDTH 630 0
DWIDTH 7 0
BBX 6 7 0 0
BITMAP
08
FC
10
FC
20
FC
40
ENDCHAR
STARTCHAR 2263
ENCODING 8803
SWIDTH 630 0
DWIDTH 7 0
BBX 6 7 0 0
BITMAP
FC
00
FC
00
FC
00
FC
ENDCHAR
STARTCHAR 2264
ENCODING 8804
SWIDTH 630 0
DWIDTH 7 0
BBX 6 6 0 0
BITMAP
04
3C
C0
38
04
FC
ENDCHAR
STARTCHAR 2265
ENCODING 8805
SWIDTH 630 0
DWIDTH 7 0
BBX 6 6 0 0
BITMAP
80
70
0C
78
80
FC
ENDCHAR
STARTCHAR 2266
ENCODING 8806
SWIDTH 630 0
DWIDTH 7 0
BBX 6 7 0 -1
BITMAP
04
38
C0
3C
04
FC
FC
ENDCHAR
STARTCHAR 2267
ENCODING 8807
SWIDTH 630 0
DWIDTH 7 0
BBX 6 7 0 -1
BITMAP
80
78
0C
70
80
FC
FC
ENDCHAR
STARTCHAR 2268
ENCODING 8808
SWIDTH 630 0
DWIDTH 7 0
BBX 6 8 0 -2
BITMAP
04
38
C0
3C
0C
FC
FC
40
ENDCHAR
STARTCHAR 2269
ENCODING 8809
SWIDTH 630 0
DWIDTH 7 0
BBX 6 8 0 -2
BITMAP
80
78
0C
70
88
FC
FC
40
ENDCHAR
STARTCHAR 226D
ENCODING 8813
SWIDTH 630 0
DWIDTH 7 0
BBX 6 7 0 0
BITMAP
08
8C
7C
10
78
A4
40
ENDCHAR
STARTCHAR 226E
ENCODING 8814
SWIDTH 630 0
DWIDTH 7 0
BBX 6 7 0 0
BITMAP
08
0C
30
D0
30
2C
20
ENDCHAR
STARTCHAR 226F
ENCODING 8815
SWIDTH 630 0
DWIDTH 7 0
BBX 6 7 0 0
BITMAP
08
D0
38
14
38
E0
20
ENDCHAR
STARTCHAR 2270
ENCODING 8816
SWIDTH 630 0
DWIDTH 7 0
BBX 6 8 0 -1
BITMAP
08
0C
3C
D0
38
24
FC
20
ENDCHAR
STARTCHAR 2271
ENCODING 8817
SWIDTH 630 0
DWIDTH 7 0
BBX 6 8 0 -1
BITMAP
08
90
70
1C
78
A0
FC
40
ENDCHAR
STARTCHAR 2272
ENCODING 8818
SWIDTH 630 0
DWIDTH 7 0
BBX 6 6 0 0
BITMAP
1C
E0
70
0C
64
9C
ENDCHAR
STARTCHAR 2273
ENCODING 8819
SWIDTH 630 0
DWIDTH 7 0
BBX 6 6 0 0
BITMAP
E0
1C
3C
C0
64
9C
ENDCHAR
STARTCHAR 2274
ENCODING 8820
SWIDTH 630 0
DWIDTH 7 0
BBX 6 8 0 -1
BITMAP
08
1C
F0
70
1C
64
BC
20
ENDCHAR
STARTCHAR 2275
ENCODING 8821
SWIDTH 630 0
DWIDTH 7 0
BBX 6 8 0 -1
BITMAP
08
D0
38
1C
F0
20
FC
40
ENDCHAR
STARTCHAR 2276
ENCODING 8822
SWIDTH 630 0
DWIDTH 7 0
BBX 6 8 0 -1
BITMAP
04
38
C0
B8
74
0C
38
C0
ENDCHAR
STARTCHAR 2277
ENCODING 8823
SWIDTH 630 0
DWIDTH 7 0
BBX 6 8 0 -1
BITMAP
80
70
0C
3C
DC
E0
78
04
ENDCHAR
STARTCHAR 2278
ENCODING 8824
SWIDTH 630 0
DWIDTH 7 0
BBX 6 10 0 -2
BITMAP
08
0C
3C
D0
B8
74
2C
38
E0
60
ENDCHAR
STARTCHAR 2279
ENCODING 8825
SWIDTH 630 0
DWIDTH 7 0
BBX 6 10 0 -2
BITMAP
08
88
78
14
3C
DC
E0
78
24
60
ENDCHAR
STARTCHAR 227A
ENCODING 8826
SWIDTH 630 0
DWIDTH 7 0
BBX 6 7 0 0
BITMAP
04
0C
38
C0
30
0C
04
ENDCHAR
STARTCHAR 227B
ENCODING 8827
SWIDTH 630 0
DWIDTH 7 0
BBX 6 7 0 0
BITMAP
80
40
30
0C
30
40
80
ENDCHAR
STARTCHAR 227C
ENCODING 8828
SWIDTH 630 0
DWIDTH 7 0
BBX 6 9 0 -1
BITMAP
04
04
18
E0
18
E4
3C
0C
04
ENDCHAR
STARTCHAR 227D
ENCODING 8829
SWIDTH 630 0
DWIDTH 7 0
BBX 6 9 0 -1
BITMAP
80
40
30
0C
30
4C
B0
60
80
ENDCHAR
STARTCHAR 227E
ENCODING 8830
SWIDTH 630 0
DWIDTH 7 0
BBX 6 9 0 -1
BITMAP
04
04
18
E0
38
0C
04
64
9C
ENDCHAR
STARTCHAR 227F
ENCODING 8831
SWIDTH 630 0
DWIDTH 7 0
BBX 6 9 0 -1
BITMAP
80
C0
60
1C
38
40
80
64
9C
ENDCHAR
STARTCHAR 2280
ENCODING 8832
SWIDTH 630 0
DWIDTH 7 0
BBX 6 9 0 -1
BITMAP
08
0C
0C
38
D0
30
2C
24
20
ENDCHAR
STARTCHAR 2281
ENCODING 8833
SWIDTH 630 0
DWIDTH 7 0
BBX 6 9 0 -1
BITMAP
08
90
50
30
1C
30
60
A0
40
ENDCHAR
STARTCHAR 2282
ENCODING 8834
SWIDTH 630 0
DWIDTH 7 0
BBX 6 5 0 1
BITMAP
7C
40
80
40
3C
ENDCHAR
STARTCHAR 2283
ENCODING 8835
SWIDTH 630 0
DWIDTH 7 0
BBX 6 5 0 1
BITMAP
F8
04
04
04
F8
ENDCHAR
STARTCHAR 2284
ENCODING 8836
SWIDTH 630 0
DWIDTH 7 0
BBX 6 7 0 0
BITMAP
08
7C
50
90
60
3C
20
ENDCHAR
STARTCHAR 2285
ENCODING 8837
SWIDTH 630 0
DWIDTH 7 0
BBX 6 7 0 0
BITMAP
08
F8
14
14
24
F8
20
ENDCHAR
STARTCHAR 2286
ENCODING 8838
SWIDTH 630 0
DWIDTH 7 0
BBX 6 7 0 0
BITMAP
3C
40
80
40
3C
00
FC
ENDCHAR
STARTCHAR 2287
ENCODING 8839
SWIDTH 630 0
DWIDTH 7 0
BBX 6 7 0 0
BITMAP
F8
04
04
04
F8
00
FC
ENDCHAR
STARTCHAR 2288
ENCODING 8840
SWIDTH 630 0
DWIDTH 7 0
BBX 6 9 0 -1
BITMAP
08
3C
48
90
50
3C
20
FC
60
ENDCHAR
STARTCHAR 2289
ENCODING 8841
SWIDTH 630 0
DWIDTH 7 0
BBX 6 9 0 -1
BITMAP
08
F8
0C
14
14
F8
20
FC
60
ENDCHAR
STARTCHAR 228A
ENCODING 8842
SWIDTH 630 0
DWIDTH 7 0
BBX 6 8 0 -1
BITMAP
3C
40
80
40
3C
18
FC
20
ENDCHAR
STARTCHAR 228B
ENCODING 8843
SWIDTH 630 0
DWIDTH 7 0
BBX 6 8 0 -1
BITMAP
F8
04
04
04
F8
18
FC
20
ENDCHAR
STARTCHAR 228D
ENCODING 8845
SWIDTH 630 0
DWIDTH 7 0
BBX 5 7 1 0
BITMAP
88
88
88
A8
88
88
F0
ENDCHAR
STARTCHAR 228E
ENCODING 8846
SWIDTH 630 0
DWIDTH 7 0
BBX 5 7 1 0
BITMAP
88
88
88
F8
A8
88
F0
ENDCHAR
STARTCHAR 228F
ENCODING 8847
SWIDTH 630 0
DWIDTH 7 0
BBX 6 5 0 1
BITMAP
FC
80
80
80
FC
ENDCHAR
STARTCHAR 2290
ENCODING 8848
SWIDTH 630 0
DWIDTH 7 0
BBX 6 5 0 1
BITMAP
FC
04
04
04
FC
ENDCHAR
STARTCHAR 2291
ENCODING 8849
SWIDTH 630 0
DWIDTH 7 0
BBX 6 7 0 0
BITMAP
FC
80
80
80
FC
00
FC
ENDCHAR
STARTCHAR 2292
ENCODING 8850
SWIDTH 630 0
DWIDTH 7 0
BBX 6 7 0 0
BITMAP
FC
04
04
04
FC
00
FC
ENDCHAR
STARTCHAR 2293
ENCODING 8851
SWIDTH 630 0
DWIDTH 7 0
BBX 5 7 1 0
BITMAP
F8
88
88
88
88
88
88
ENDCHAR
STARTCHAR 2294
ENCODING 8852
SWIDTH 630 0
DWIDTH 7 0
BBX 5 7 1 0
BITMAP
88
88
88
88
88
88
F8
ENDCHAR
STARTCHAR 2295
ENCODING 8853
SWIDTH 630 0
DWIDTH 7 0
BBX 6 6 0 0
BITMAP
38
54
FC
94
54
38
ENDCHAR
STARTCHAR 2296
ENCODING 8854
SWIDTH 630 0
DWIDTH 7 0
BBX 6 6 0 0
BITMAP
38
44
FC
84
44
38
ENDCHAR
STARTCHAR 2297
ENCODING 8855
SWIDTH 630 0
DWIDTH 7 0
BBX 6 6 0 0
BITMAP
38
4C
B4
B4
4C
38
ENDCHAR
STARTCHAR 2298
ENCODING 8856
SWIDTH 630 0
DWIDTH 7 0
BBX 6 6 0 0
BITMAP
38
4C
94
A4
44
38
ENDCHAR
STARTCHAR 2299
ENCODING 8857
SWIDTH 630 0
DWIDTH 7 0
BBX 6 6 0 0
BITMAP
38
44
94
94
44
38
ENDCHAR
STARTCHAR 229A
ENCODING 8858
SWIDTH 630 0
DWIDTH 7 0
BBX 6 6 0 0
BITMAP
38
74
AC
B4
44
38
ENDCHAR
STARTCHAR 229B
ENCODING 8859
SWIDTH 630 0
DWIDTH 7 0
BBX 6 5 0 1
BITMAP
38
5C
B4
5C
38
ENDCHAR
STARTCHAR 229C
ENCODING 8860
SWIDTH 630 0
DWIDTH 7 0
BBX 6 6 0 0
BITMAP
38
44
BC
BC
44
38
ENDCHAR
STARTCHAR 229D
ENCODING 8861
SWIDTH 630 0
DWIDTH 7 0
BBX 6 6 0 0
BITMAP
38
44
B4
84
44
38
ENDCHAR
STARTCHAR 229E
ENCODING 8862
SWIDTH 630 0
DWIDTH 7 0
BBX 6 6 0 0
BITMAP
FC
94
94
FC
94
FC
ENDCHAR
STARTCHAR 229F
ENCODING 8863
SWIDTH 630 0
DWIDTH 7 0
BBX 6 6 0 0
BITMAP
FC
84
84
FC
84
FC
ENDCHAR
STARTCHAR 22A0
ENCODING 8864
SWIDTH 630 0
DWIDTH 7 0
BBX 6 6 0 0
BITMAP
FC
CC
B4
B4
CC
FC
ENDCHAR
STARTCHAR 22A1
ENCODING 8865
SWIDTH 630 0
DWIDTH 7 0
BBX 6 6 0 0
BITMAP
FC
84
94
94
84
FC
ENDCHAR
STARTCHAR 22A2
ENCODING 8866
SWIDTH 630 0
DWIDTH 7 0
BBX 6 7 0 0
BITMAP
80
80
80
FC
80
80
80
ENDCHAR
STARTCHAR 22A3
ENCODING 8867
SWIDTH 630 0
DWIDTH 7 0
BBX 6 7 0 0
BITMAP
04
04
04
FC
04
04
04
ENDCHAR
STARTCHAR 22A4
ENCODING 8868
SWIDTH 630 0
DWIDTH 7 0
BBX 6 7 0 0
BITMAP
FC
10
10
10
10
10
10
ENDCHAR
STARTCHAR 22B2
ENCODING 8882
SWIDTH 630 0
DWIDTH 7 0
BBX 6 5 0 1
BITMAP
0C
34
C4
34
0C
ENDCHAR
STARTCHAR 22B3
ENCODING 8883
SWIDTH 630 0
DWIDTH 7 0
BBX 6 5 0 1
BITMAP
C0
B8
84
B8
C0
ENDCHAR
STARTCHAR 22B4
ENCODING 8884
SWIDTH 630 0
DWIDTH 7 0
BBX 6 6 0 0
BITMAP
04
3C
C4
3C
04
FC
ENDCHAR
STARTCHAR 22B5
ENCODING 8885
SWIDTH 630 0
DWIDTH 7 0
BBX 6 6 0 0
BITMAP
80
F0
8C
F8
80
FC
ENDCHAR
STARTCHAR 22B8
ENCODING 8888
SWIDTH 630 0
DWIDTH 7 0
BBX 7 3 0 2
BITMAP
0C
F2
0C
ENDCHAR
STARTCHAR 22C2
ENCODING 8898
SWIDTH 630 0
DWIDTH 7 0
BBX 5 10 1 -2
BITMAP
F0
88
88
88
88
88
88
88
88
88
ENDCHAR
STARTCHAR 22C3
ENCODING 8899
SWIDTH 630 0
DWIDTH 7 0
BBX 5 11 1 -3
BITMAP
88
88
88
88
88
88
88
88
88
88
F0
ENDCHAR
STARTCHAR 22C4
ENCODING 8900
SWIDTH 630 0
DWIDTH 7 0
BBX 5 5 1 1
BITMAP
20
50
88
50
20
ENDCHAR
STARTCHAR 22C5
ENCODING 8901
SWIDTH 630 0
DWIDTH 7 0
BBX 1 2 3 3
BITMAP
80
80
ENDCHAR
STARTCHAR 22C6
ENCODING 8902
SWIDTH 630 0
DWIDTH 7 0
BBX 4 3 1 2
BITMAP
20
F0
70
ENDCHAR
STARTCHAR 22CD
ENCODING 8909
SWIDTH 630 0
DWIDTH 7 0
BBX 6 3 0 2
BITMAP
FC
00
FC
ENDCHAR
STARTCHAR 22CE
ENCODING 8910
SWIDTH 630 0
DWIDTH 7 0
BBX 7 7 0 0
BITMAP
86
4C
28
30
10
10
10
ENDCHAR
STARTCHAR 22CF
ENCODING 8911
SWIDTH 630 0
DWIDTH 7 0
BBX 7 7 0 0
BITMAP
10
10
10
30
38
28
C6
ENDCHAR
STARTCHAR 22D0
ENCODING 8912
SWIDTH 630 0
DWIDTH 7 0
BBX 6 7 0 0
BITMAP
3C
40
5C
A0
5C
40
3C
ENDCHAR
STARTCHAR 22D1
ENCODING 8913
SWIDTH 630 0
DWIDTH 7 0
BBX 6 7 0 0
BITMAP
F0
0C
F4
14
F4
0C
F8
ENDCHAR
STARTCHAR 22DA
ENCODING 8922
SWIDTH 630 0
DWIDTH 7 0
BBX 6 11 0 -3
BITMAP
04
38
C0
3C
04
FC
80
70
0C
78
80
ENDCHAR
STARTCHAR 22DB
ENCODING 8923
SWIDTH 630 0
DWIDTH 7 0
BBX 6 11 0 -3
BITMAP
80
78
0C
70
80
FC
04
3C
C0
38
04
ENDCHAR
STARTCHAR 22DC
ENCODING 8924
SWIDTH 630 0
DWIDTH 7 0
BBX 6 6 0 0
BITMAP
FC
04
38
C0
3C
04
ENDCHAR
STARTCHAR 22DD
ENCODING 8925
SWIDTH 630 0
DWIDTH 7 0
BBX 6 6 0 0
BITMAP
FC
80
78
0C
70
80
ENDCHAR
STARTCHAR 22DE
ENCODING 8926
SWIDTH 630 0
DWIDTH 7 0
BBX 6 9 0 -1
BITMAP
04
04
18
F4
8C
F0
70
0C
04
ENDCHAR
STARTCHAR 22DF
ENCODING 8927
SWIDTH 630 0
DWIDTH 7 0
BBX 6 9 0 -1
BITMAP
80
C0
20
9C
64
1C
1C
60
80
ENDCHAR
STARTCHAR 22E0
ENCODING 8928
SWIDTH 630 0
DWIDTH 7 0
BBX 6 11 0 -2
BITMAP
08
0C
0C
18
F0
18
F4
3C
2C
24
60
ENDCHAR
STARTCHAR 22E1
ENCODING 8929
SWIDTH 630 0
DWIDTH 7 0
BBX 6 11 0 -2
BITMAP
08
88
48
30
1C
30
6C
B0
60
C0
40
ENDCHAR
STARTCHAR 22E2
ENCODING 8930
SWIDTH 630 0
DWIDTH 7 0
BBX 6 7 0 0
BITMAP
08
FC
90
90
A0
FC
40
ENDCHAR
STARTCHAR 22E3
ENCODING 8931
SWIDTH 630 0
DWIDTH 7 0
BBX 6 7 0 0
BITMAP
08
FC
14
14
24
FC
40
ENDCHAR
STARTCHAR 22E4
ENCODING 8932
SWIDTH 630 0
DWIDTH 7 0
BBX 6 8 0 -1
BITMAP
FC
80
80
80
FC
18
FC
20
ENDCHAR
STARTCHAR 22E5
ENCODING 8933
SWIDTH 630 0
DWIDTH 7 0
BBX 6 8 0 -1
BITMAP
FC
04
04
04
FC
18
FC
20
ENDCHAR
STARTCHAR 22E6
ENCODING 8934
SWIDTH 630 0
DWIDTH 7 0
BBX 6 7 0 -1
BITMAP
1C
E0
70
1C
74
9C
10
ENDCHAR
STARTCHAR 22E7
ENCODING 8935
SWIDTH 630 0
DWIDTH 7 0
BBX 6 7 0 -1
BITMAP
E0
1C
3C
D0
74
9C
10
ENDCHAR
STARTCHAR 22E8
ENCODING 8936
SWIDTH 630 0
DWIDTH 7 0
BBX 6 11 0 -3
BITMAP
04
04
18
E0
38
0C
14
74
9C
10
20
ENDCHAR
STARTCHAR 22E9
ENCODING 8937
SWIDTH 630 0
DWIDTH 7 0
BBX 6 11 0 -3
BITMAP
80
C0
60
1C
38
40
90
74
9C
10
20
ENDCHAR
STARTCHAR 22EF
ENCODING 8943
SWIDTH 630 0
DWIDTH 7 0
BBX 6 2 0 3
BITMAP
D4
D4
ENDCHAR
STARTCHAR 2304
ENCODING 8964
SWIDTH 630 0
DWIDTH 7 0
BBX 5 4 1 -2
BITMAP
88
50
20
20
ENDCHAR
STARTCHAR 2308
ENCODING 8968
SWIDTH 630 0
DWIDTH 7 0
BBX 2 10 3 -2
BITMAP
C0
80
80
80
80
80
80
80
80
80
ENDCHAR
STARTCHAR 2309
ENCODING 8969
SWIDTH 630 0
DWIDTH 7 0
BBX 2 10 2 -2
BITMAP
C0
40
40
40
40
40
40
40
40
40
ENDCHAR
STARTCHAR 230A
ENCODING 8970
SWIDTH 630 0
DWIDTH 7 0
BBX 2 10 3 -2
BITMAP
80
80
80
80
80
80
80
80
80
C0
ENDCHAR
STARTCHAR 230B
ENCODING 8971
SWIDTH 630 0
DWIDTH 7 0
BBX 2 10 2 -2
BITMAP
40
40
40
40
40
40
40
40
40
C0
ENDCHAR
STARTCHAR 2310
ENCODING 8976
SWIDTH 630 0
DWIDTH 7 0
BBX 6 2 0 3
BITMAP
FC
80
ENDCHAR
STARTCHAR 2320
ENCODING 8992
SWIDTH 630 0
DWIDTH 7 0
BBX 3 13 3 -3
BITMAP
60
A0
80
80
80
80
80
80
80
80
80
80
80
ENDCHAR
STARTCHAR 2321
ENCODING 8993
SWIDTH 630 0
DWIDTH 7 0
BBX 3 13 1 -3
BITMAP
20
20
20
20
20
20
20
20
20
20
20
40
C0
ENDCHAR
STARTCHAR 239B
ENCODING 9115
SWIDTH 630 0
DWIDTH 7 0
BBX 3 13 2 -3
BITMAP
20
40
40
40
80
80
80
80
80
80
80
80
80
ENDCHAR
STARTCHAR 239C
ENCODING 9116
SWIDTH 630 0
DWIDTH 7 0
BBX 1 13 2 -3
BITMAP
80
80
80
80
80
80
80
80
80
80
80
80
80
ENDCHAR
STARTCHAR 239D
ENCODING 9117
SWIDTH 630 0
DWIDTH 7 0
BBX 3 13 2 -3
BITMAP
80
80
80
80
80
80
80
80
80
40
40
40
20
ENDCHAR
STARTCHAR 239E
ENCODING 9118
SWIDTH 630 0
DWIDTH 7 0
BBX 3 13 2 -3
BITMAP
80
80
40
40
40
20
20
20
20
20
20
20
20
ENDCHAR
STARTCHAR 239F
ENCODING 9119
SWIDTH 630 0
DWIDTH 7 0
BBX 1 13 4 -3
BITMAP
80
80
80
80
80
80
80
80
80
80
80
80
80
ENDCHAR
STARTCHAR 23A0
ENCODING 9120
SWIDTH 630 0
DWIDTH 7 0
BBX 3 13 2 -3
BITMAP
20
20
20
20
20
20
20
20
40
40
40
80
80
ENDCHAR
STARTCHAR 23A1
ENCODING 9121
SWIDTH 630 0
DWIDTH 7 0
BBX 3 13 2 -3
BITMAP
E0
80
80
80
80
80
80
80
80
80
80
80
80
ENDCHAR
STARTCHAR 23A2
ENCODING 9122
SWIDTH 630 0
DWIDTH 7 0
BBX 1 13 2 -3
BITMAP
80
80
80
80
80
80
80
80
80
80
80
80
80
ENDCHAR
STARTCHAR 23A3
ENCODING 9123
SWIDTH 630 0
DWIDTH 7 0
BBX 3 13 2 -3
BITMAP
80
80
80
80
80
80
80
80
80
80
80
80
E0
ENDCHAR
STARTCHAR 23A4
ENCODING 9124
SWIDTH 630 0
DWIDTH 7 0
BBX 3 13 2 -3
BITMAP
E0
20
20
20
20
20
20
20
20
20
20
20
20
ENDCHAR
STARTCHAR 23A5
ENCODING 9125
SWIDTH 630 0
DWIDTH 7 0
BBX 1 13 4 -3
BITMAP
80
80
80
80
80
80
80
80
80
80
80
80
80
ENDCHAR
STARTCHAR 23A6
ENCODING 9126
SWIDTH 630 0
DWIDTH 7 0
BBX 3 13 2 -3
BITMAP
20
20
20
20
20
20
20
20
20
20
20
20
E0
ENDCHAR
STARTCHAR 23A7
ENCODING 9127
SWIDTH 630 0
DWIDTH 7 0
BBX 4 13 3 -3
BITMAP
70
80
80
80
80
80
80
80
80
80
80
80
80
ENDCHAR
STARTCHAR 23A8
ENCODING 9128
SWIDTH 630 0
DWIDTH 7 0
BBX 4 13 0 -3
BITMAP
10
10
10
10
10
30
E0
30
10
10
10
10
10
ENDCHAR
STARTCHAR 23A9
ENCODING 9129
SWIDTH 630 0
DWIDTH 7 0
BBX 4 13 3 -3
BITMAP
80
80
80
80
80
80
80
80
80
80
80
80
70
ENDCHAR
STARTCHAR 23AA
ENCODING 9130
SWIDTH 630 0
DWIDTH 7 0
BBX 1 13 3 -3
BITMAP
80
80
80
80
80
80
80
80
80
80
80
80
80
ENDCHAR
STARTCHAR 23AB
ENCODING 9131
SWIDTH 630 0
DWIDTH 7 0
BBX 4 13 0 -3
BITMAP
E0
10
10
10
10
10
10
10
10
10
10
10
10
ENDCHAR
STARTCHAR 23AC
ENCODING 9132
SWIDTH 630 0
DWIDTH 7 0
BBX 4 13 3 -3
BITMAP
80
80
80
80
80
80
70
80
80
80
80
80
80
ENDCHAR
STARTCHAR 23AD
ENCODING 9133
SWIDTH 630 0
DWIDTH 7 0
BBX 4 13 0 -3
BITMAP
10
10
10
10
10
10
10
10
10
10
10
10
E0
ENDCHAR
STARTCHAR 23AE
ENCODING 9134
SWIDTH 630 0
DWIDTH 7 0
BBX 1 13 3 -3
BITMAP
80
80
80
80
80
80
80
80
80
80
80
80
80
ENDCHAR
STARTCHAR 2500
ENCODING 9472
SWIDTH 630 0
DWIDTH 7 0
BBX 7 1 0 3
BITMAP
FE
ENDCHAR
STARTCHAR 2501
ENCODING 9473
SWIDTH 630 0
DWIDTH 7 0
BBX 7 2 0 3
BITMAP
FE
FE
ENDCHAR
STARTCHAR 2502
ENCODING 9474
SWIDTH 630 0
DWIDTH 7 0
BBX 1 13 3 -3
BITMAP
80
80
80
80
80
80
80
80
80
80
80
80
80
ENDCHAR
STARTCHAR 2503
ENCODING 9475
SWIDTH 630 0
DWIDTH 7 0
BBX 2 13 2 -3
BITMAP
C0
C0
C0
C0
C0
C0
C0
C0
C0
C0
C0
C0
C0
ENDCHAR
STARTCHAR 2504
ENCODING 9476
SWIDTH 630 0
DWIDTH 7 0
BBX 6 1 0 3
BITMAP
D4
ENDCHAR
STARTCHAR 2505
ENCODING 9477
SWIDTH 630 0
DWIDTH 7 0
BBX 6 2 0 3
BITMAP
D4
D4
ENDCHAR
STARTCHAR 2506
ENCODING 9478
SWIDTH 630 0
DWIDTH 7 0
BBX 1 11 3 -2
BITMAP
80
80
80
00
80
80
80
00
80
80
80
ENDCHAR
STARTCHAR 2507
ENCODING 9479
SWIDTH 630 0
DWIDTH 7 0
BBX 2 11 2 -2
BITMAP
C0
C0
C0
00
C0
C0
C0
00
C0
C0
C0
ENDCHAR
STARTCHAR 2508
ENCODING 9480
SWIDTH 630 0
DWIDTH 7 0
BBX 6 1 0 3
BITMAP
AC
ENDCHAR
STARTCHAR 2509
ENCODING 9481
SWIDTH 630 0
DWIDTH 7 0
BBX 6 2 0 3
BITMAP
AC
AC
ENDCHAR
STARTCHAR 250A
ENCODING 9482
SWIDTH 630 0
DWIDTH 7 0
BBX 1 11 3 -2
BITMAP
80
80
00
80
80
00
80
80
00
80
80
ENDCHAR
STARTCHAR 250B
ENCODING 9483
SWIDTH 630 0
DWIDTH 7 0
BBX 2 11 2 -2
BITMAP
C0
C0
00
C0
C0
00
C0
C0
00
C0
C0
ENDCHAR
STARTCHAR 250C
ENCODING 9484
SWIDTH 630 0
DWIDTH 7 0
BBX 4 7 3 -3
BITMAP
F0
80
80
80
80
80
80
ENDCHAR
STARTCHAR 250D
ENCODING 9485
SWIDTH 630 0
DWIDTH 7 0
BBX 4 7 3 -3
BITMAP
F0
F0
80
80
80
80
80
ENDCHAR
STARTCHAR 250E
ENCODING 9486
SWIDTH 630 0
DWIDTH 7 0
BBX 5 7 2 -3
BITMAP
F8
C0
C0
C0
C0
C0
C0
ENDCHAR
STARTCHAR 250F
ENCODING 9487
SWIDTH 630 0
DWIDTH 7 0
BBX 5 7 2 -3
BITMAP
F8
F8
C0
C0
C0
C0
C0
ENDCHAR
STARTCHAR 2510
ENCODING 9488
SWIDTH 630 0
DWIDTH 7 0
BBX 4 7 0 -3
BITMAP
F0
10
10
10
10
10
10
ENDCHAR
STARTCHAR 2511
ENCODING 9489
SWIDTH 630 0
DWIDTH 7 0
BBX 4 7 0 -3
BITMAP
F0
F0
10
10
10
10
10
ENDCHAR
STARTCHAR 2512
ENCODING 9490
SWIDTH 630 0
DWIDTH 7 0
BBX 4 7 0 -3
BITMAP
F0
30
30
30
30
30
30
ENDCHAR
STARTCHAR 2513
ENCODING 9491
SWIDTH 630 0
DWIDTH 7 0
BBX 4 7 0 -3
BITMAP
F0
F0
30
30
30
30
30
ENDCHAR
STARTCHAR 2514
ENCODING 9492
SWIDTH 630 0
DWIDTH 7 0
BBX 4 7 3 3
BITMAP
80
80
80
80
80
80
F0
ENDCHAR
STARTCHAR 2515
ENCODING 9493
SWIDTH 630 0
DWIDTH 7 0
BBX 4 8 3 2
BITMAP
80
80
80
80
80
80
F0
F0
ENDCHAR
STARTCHAR 2516
ENCODING 9494
SWIDTH 630 0
DWIDTH 7 0
BBX 5 7 2 3
BITMAP
C0
C0
C0
C0
C0
C0
F8
ENDCHAR
STARTCHAR 2517
ENCODING 9495
SWIDTH 630 0
DWIDTH 7 0
BBX 5 8 2 2
BITMAP
C0
C0
C0
C0
C0
C0
F8
F8
ENDCHAR
STARTCHAR 2518
ENCODING 9496
SWIDTH 630 0
DWIDTH 7 0
BBX 4 7 0 3
BITMAP
10
10
10
10
10
10
F0
ENDCHAR
STARTCHAR 2519
ENCODING 9497
SWIDTH 630 0
DWIDTH 7 0
BBX 4 8 0 2
BITMAP
10
10
10
10
10
10
F0
F0
ENDCHAR
STARTCHAR 251A
ENCODING 9498
SWIDTH 630 0
DWIDTH 7 0
BBX 4 7 0 3
BITMAP
30
30
30
30
30
30
F0
ENDCHAR
STARTCHAR 251B
ENCODING 9499
SWIDTH 630 0
DWIDTH 7 0
BBX 4 8 0 2
BITMAP
30
30
30
30
30
30
F0
F0
ENDCHAR
STARTCHAR 251C
ENCODING 9500
SWIDTH 630 0
DWIDTH 7 0
BBX 4 13 3 -3
BITMAP
80
80
80
80
80
80
F0
80
80
80
80
80
80
ENDCHAR
STARTCHAR 251D
ENCODING 9501
SWIDTH 630 0
DWIDTH 7 0
BBX 4 13 3 -3
BITMAP
80
80
80
80
80
80
F0
F0
80
80
80
80
80
ENDCHAR
STARTCHAR 251E
ENCODING 9502
SWIDTH 630 0
DWIDTH 7 0
BBX 5 13 2 -3
BITMAP
C0
C0
C0
C0
C0
C0
F8
40
40
40
40
40
40
ENDCHAR
STARTCHAR 251F
ENCODING 9503
SWIDTH 630 0
DWIDTH 7 0
BBX 5 13 2 -3
BITMAP
40
40
40
40
40
40
F8
C0
C0
C0
C0
C0
C0
ENDCHAR
STARTCHAR 2520
ENCODING 9504
SWIDTH 630 0
DWIDTH 7 0
BBX 5 13 2 -3
BITMAP
C0
C0
C0
C0
C0
C0
F8
C0
C0
C0
C0
C0
C0
ENDCHAR
STARTCHAR 2521
ENCODING 9505
SWIDTH 630 0
DWIDTH 7 0
BBX 5 13 2 -3
BITMAP
C0
C0
C0
C0
C0
F8
F8
40
40
40
40
40
40
ENDCHAR
STARTCHAR 2522
ENCODING 9506
SWIDTH 630 0
DWIDTH 7 0
BBX 5 13 2 -3
BITMAP
40
40
40
40
40
40
F8
F8
C0
C0
C0
C0
C0
ENDCHAR
STARTCHAR 2523
ENCODING 9507
SWIDTH 630 0
DWIDTH 7 0
BBX 5 13 2 -3
BITMAP
C0
C0
C0
C0
C0
C0
F8
F8
C0
C0
C0
C0
C0
ENDCHAR
STARTCHAR 2524
ENCODING 9508
SWIDTH 630 0
DWIDTH 7 0
BBX 4 13 0 -3
BITMAP
10
10
10
10
10
10
F0
10
10
10
10
10
10
ENDCHAR
STARTCHAR 2525
ENCODING 9509
SWIDTH 630 0
DWIDTH 7 0
BBX 4 13 0 -3
BITMAP
10
10
10
10
10
10
F0
F0
10
10
10
10
10
ENDCHAR
STARTCHAR 2526
ENCODING 9510
SWIDTH 630 0
DWIDTH 7 0
BBX 4 13 0 -3
BITMAP
30
30
30
30
30
30
F0
10
10
10
10
10
10
ENDCHAR
STARTCHAR 2527
ENCODING 9511
SWIDTH 630 0
DWIDTH 7 0
BBX 4 13 0 -3
BITMAP
10
10
10
10
10
10
F0
30
30
30
30
30
30
ENDCHAR
STARTCHAR 2528
ENCODING 9512
SWIDTH 630 0
DWIDTH 7 0
BBX 4 13 0 -3
BITMAP
30
30
30
30
30
30
F0
30
30
30
30
30
30
ENDCHAR
STARTCHAR 2529
ENCODING 9513
SWIDTH 630 0
DWIDTH 7 0
BBX 4 13 0 -3
BITMAP
30
30
30
30
30
30
F0
F0
10
10
10
10
10
ENDCHAR
STARTCHAR 252A
ENCODING 9514
SWIDTH 630 0
DWIDTH 7 0
BBX 4 13 0 -3
BITMAP
10
10
10
10
10
10
F0
F0
30
30
30
30
30
ENDCHAR
STARTCHAR 252B
ENCODING 9515
SWIDTH 630 0
DWIDTH 7 0
BBX 4 13 0 -3
BITMAP
30
30
30
30
30
30
F0
F0
30
30
30
30
30
ENDCHAR
STARTCHAR 252C
ENCODING 9516
SWIDTH 630 0
DWIDTH 7 0
BBX 7 7 0 -3
BITMAP
FE
10
10
10
10
10
10
ENDCHAR
STARTCHAR 252D
ENCODING 9517
SWIDTH 630 0
DWIDTH 7 0
BBX 7 7 0 -3
BITMAP
FE
F0
10
10
10
10
10
ENDCHAR
STARTCHAR 252E
ENCODING 9518
SWIDTH 630 0
DWIDTH 7 0
BBX 7 7 0 -3
BITMAP
FE
1E
10
10
10
10
10
ENDCHAR
STARTCHAR 252F
ENCODING 9519
SWIDTH 630 0
DWIDTH 7 0
BBX 7 7 0 -3
BITMAP
FE
FE
10
10
10
10
10
ENDCHAR
STARTCHAR 2530
ENCODING 9520
SWIDTH 630 0
DWIDTH 7 0
BBX 7 7 0 -3
BITMAP
FE
30
30
30
30
30
30
ENDCHAR
STARTCHAR 2531
ENCODING 9521
SWIDTH 630 0
DWIDTH 7 0
BBX 7 7 0 -3
BITMAP
FE
F0
30
30
30
30
30
ENDCHAR
STARTCHAR 2532
ENCODING 9522
SWIDTH 630 0
DWIDTH 7 0
BBX 7 7 0 -3
BITMAP
FE
3E
30
30
30
30
30
ENDCHAR
STARTCHAR 2533
ENCODING 9523
SWIDTH 630 0
DWIDTH 7 0
BBX 7 7 0 -3
BITMAP
FE
FE
30
30
30
30
30
ENDCHAR
STARTCHAR 2534
ENCODING 9524
SWIDTH 630 0
DWIDTH 7 0
BBX 7 7 0 3
BITMAP
10
10
10
10
10
10
FE
ENDCHAR
STARTCHAR 2535
ENCODING 9525
SWIDTH 630 0
DWIDTH 7 0
BBX 7 8 0 2
BITMAP
10
10
10
10
10
10
FE
F0
ENDCHAR
STARTCHAR 2536
ENCODING 9526
SWIDTH 630 0
DWIDTH 7 0
BBX 7 8 0 2
BITMAP
10
10
10
10
10
10
FE
1E
ENDCHAR
STARTCHAR 2537
ENCODING 9527
SWIDTH 630 0
DWIDTH 7 0
BBX 7 8 0 2
BITMAP
10
10
10
10
10
10
FE
FE
ENDCHAR
STARTCHAR 2538
ENCODING 9528
SWIDTH 630 0
DWIDTH 7 0
BBX 7 7 0 3
BITMAP
30
30
30
30
30
30
FE
ENDCHAR
STARTCHAR 2539
ENCODING 9529
SWIDTH 630 0
DWIDTH 7 0
BBX 7 8 0 2
BITMAP
30
30
30
30
30
30
FE
F0
ENDCHAR
STARTCHAR 253A
ENCODING 9530
SWIDTH 630 0
DWIDTH 7 0
BBX 7 8 0 2
BITMAP
30
30
30
30
30
30
FE
3E
ENDCHAR
STARTCHAR 253B
ENCODING 9531
SWIDTH 630 0
DWIDTH 7 0
BBX 7 8 0 2
BITMAP
30
30
30
30
30
30
FE
FE
ENDCHAR
STARTCHAR 253C
ENCODING 9532
SWIDTH 630 0
DWIDTH 7 0
BBX 7 13 0 -3
BITMAP
10
10
10
10
10
10
FE
10
10
10
10
10
10
ENDCHAR
STARTCHAR 253D
ENCODING 9533
SWIDTH 630 0
DWIDTH 7 0
BBX 7 13 0 -3
BITMAP
10
10
10
10
10
10
FE
F0
10
10
10
10
10
ENDCHAR
STARTCHAR 253E
ENCODING 9534
SWIDTH 630 0
DWIDTH 7 0
BBX 7 13 0 -3
BITMAP
10
10
10
10
10
10
FE
1E
10
10
10
10
10
ENDCHAR
STARTCHAR 253F
ENCODING 9535
SWIDTH 630 0
DWIDTH 7 0
BBX 7 13 0 -3
BITMAP
10
10
10
10
10
10
FE
FE
10
10
10
10
10
ENDCHAR
STARTCHAR 2540
ENCODING 9536
SWIDTH 630 0
DWIDTH 7 0
BBX 7 13 0 -3
BITMAP
30
30
30
30
30
30
FE
10
10
10
10
10
10
ENDCHAR
STARTCHAR 2541
ENCODING 9537
SWIDTH 630 0
DWIDTH 7 0
BBX 7 13 0 -3
BITMAP
10
10
10
10
10
10
FE
30
30
30
30
30
30
ENDCHAR
STARTCHAR 2542
ENCODING 9538
SWIDTH 630 0
DWIDTH 7 0
BBX 7 13 0 -3
BITMAP
30
30
30
30
30
30
FE
30
30
30
30
30
30
ENDCHAR
STARTCHAR 2543
ENCODING 9539
SWIDTH 630 0
DWIDTH 7 0
BBX 7 13 0 -3
BITMAP
30
30
30
30
30
30
FE
F0
10
10
10
10
10
ENDCHAR
STARTCHAR 2544
ENCODING 9540
SWIDTH 630 0
DWIDTH 7 0
BBX 7 13 0 -3
BITMAP
30
30
30
30
30
3E
FE
10
10
10
10
10
10
ENDCHAR
STARTCHAR 2545
ENCODING 9541
SWIDTH 630 0
DWIDTH 7 0
BBX 7 13 0 -3
BITMAP
10
10
10
10
10
10
FE
F0
30
30
30
30
30
ENDCHAR
STARTCHAR 2546
ENCODING 9542
SWIDTH 630 0
DWIDTH 7 0
BBX 7 13 0 -3
BITMAP
10
10
10
10
10
10
FE
3E
30
30
30
30
30
ENDCHAR
STARTCHAR 2547
ENCODING 9543
SWIDTH 630 0
DWIDTH 7 0
BBX 7 13 0 -3
BITMAP
30
30
30
30
30
30
FE
FE
10
10
10
10
10
ENDCHAR
STARTCHAR 2548
ENCODING 9544
SWIDTH 630 0
DWIDTH 7 0
BBX 7 13 0 -3
BITMAP
10
10
10
10
10
10
FE
FE
30
30
30
30
30
ENDCHAR
STARTCHAR 2549
ENCODING 9545
SWIDTH 630 0
DWIDTH 7 0
BBX 7 13 0 -3
BITMAP
30
30
30
30
30
30
FE
F0
30
30
30
30
30
ENDCHAR
STARTCHAR 254A
ENCODING 9546
SWIDTH 630 0
DWIDTH 7 0
BBX 7 13 0 -3
BITMAP
30
30
30
30
30
30
FE
3E
30
30
30
30
30
ENDCHAR
STARTCHAR 254B
ENCODING 9547
SWIDTH 630 0
DWIDTH 7 0
BBX 7 13 0 -3
BITMAP
30
30
30
30
30
30
FE
FE
30
30
30
30
30
ENDCHAR
STARTCHAR 254C
ENCODING 9548
SWIDTH 630 0
DWIDTH 7 0
BBX 6 1 0 3
BITMAP
EC
ENDCHAR
STARTCHAR 254D
ENCODING 9549
SWIDTH 630 0
DWIDTH 7 0
BBX 6 2 0 3
BITMAP
EC
EC
ENDCHAR
STARTCHAR 254E
ENCODING 9550
SWIDTH 630 0
DWIDTH 7 0
BBX 1 10 3 -2
BITMAP
80
80
80
80
00
00
80
80
80
80
ENDCHAR
STARTCHAR 254F
ENCODING 9551
SWIDTH 630 0
DWIDTH 7 0
BBX 2 10 2 -2
BITMAP
C0
C0
C0
C0
00
00
C0
C0
C0
C0
ENDCHAR
STARTCHAR 2550
ENCODING 9552
SWIDTH 630 0
DWIDTH 7 0
BBX 7 3 0 2
BITMAP
FE
00
FE
ENDCHAR
STARTCHAR 2551
ENCODING 9553
SWIDTH 630 0
DWIDTH 7 0
BBX 3 13 2 -3
BITMAP
A0
A0
A0
A0
A0
A0
A0
A0
A0
A0
A0
A0
A0
ENDCHAR
STARTCHAR 2552
ENCODING 9554
SWIDTH 630 0
DWIDTH 7 0
BBX 4 8 3 -3
BITMAP
F0
80
F0
80
80
80
80
80
ENDCHAR
STARTCHAR 2553
ENCODING 9555
SWIDTH 630 0
DWIDTH 7 0
BBX 5 7 2 -3
BITMAP
F8
A0
A0
A0
A0
A0
A0
ENDCHAR
STARTCHAR 2554
ENCODING 9556
SWIDTH 630 0
DWIDTH 7 0
BBX 5 8 2 -3
BITMAP
F8
80
B8
A0
A0
A0
A0
A0
ENDCHAR
STARTCHAR 2555
ENCODING 9557
SWIDTH 630 0
DWIDTH 7 0
BBX 4 8 0 -3
BITMAP
F0
10
F0
10
10
10
10
10
ENDCHAR
STARTCHAR 2556
ENCODING 9558
SWIDTH 630 0
DWIDTH 7 0
BBX 5 7 0 -3
BITMAP
F8
28
28
28
28
28
28
ENDCHAR
STARTCHAR 2557
ENCODING 9559
SWIDTH 630 0
DWIDTH 7 0
BBX 5 8 0 -3
BITMAP
F8
08
E8
28
28
28
28
28
ENDCHAR
STARTCHAR 2558
ENCODING 9560
SWIDTH 630 0
DWIDTH 7 0
BBX 4 8 3 2
BITMAP
80
80
80
80
80
F0
80
F0
ENDCHAR
STARTCHAR 2559
ENCODING 9561
SWIDTH 630 0
DWIDTH 7 0
BBX 5 7 2 3
BITMAP
A0
A0
A0
A0
A0
A0
F8
ENDCHAR
STARTCHAR 255A
ENCODING 9562
SWIDTH 630 0
DWIDTH 7 0
BBX 5 8 2 2
BITMAP
A0
A0
A0
A0
A0
B8
80
F8
ENDCHAR
STARTCHAR 255B
ENCODING 9563
SWIDTH 630 0
DWIDTH 7 0
BBX 4 8 0 2
BITMAP
10
10
10
10
10
F0
10
F0
ENDCHAR
STARTCHAR 255C
ENCODING 9564
SWIDTH 630 0
DWIDTH 7 0
BBX 5 7 0 3
BITMAP
28
28
28
28
28
28
F8
ENDCHAR
STARTCHAR 255D
ENCODING 9565
SWIDTH 630 0
DWIDTH 7 0
BBX 5 8 0 2
BITMAP
28
28
28
28
28
E8
08
F8
ENDCHAR
STARTCHAR 255E
ENCODING 9566
SWIDTH 630 0
DWIDTH 7 0
BBX 4 13 3 -3
BITMAP
80
80
80
80
80
F0
80
F0
80
80
80
80
80
ENDCHAR
STARTCHAR 255F
ENCODING 9567
SWIDTH 630 0
DWIDTH 7 0
BBX 5 13 2 -3
BITMAP
A0
A0
A0
A0
A0
A0
B8
A0
A0
A0
A0
A0
A0
ENDCHAR
STARTCHAR 2560
ENCODING 9568
SWIDTH 630 0
DWIDTH 7 0
BBX 5 13 2 -3
BITMAP
A0
A0
A0
A0
A0
B8
80
B8
A0
A0
A0
A0
A0
ENDCHAR
STARTCHAR 2561
ENCODING 9569
SWIDTH 630 0
DWIDTH 7 0
BBX 4 13 0 -3
BITMAP
10
10
10
10
10
F0
10
F0
10
10
10
10
10
ENDCHAR
STARTCHAR 2562
ENCODING 9570
SWIDTH 630 0
DWIDTH 7 0
BBX 5 13 0 -3
BITMAP
28
28
28
28
28
28
E8
28
28
28
28
28
28
ENDCHAR
STARTCHAR 2563
ENCODING 9571
SWIDTH 630 0
DWIDTH 7 0
BBX 5 13 0 -3
BITMAP
28
28
28
28
28
E8
08
E8
28
28
28
28
28
ENDCHAR
STARTCHAR 2564
ENCODING 9572
SWIDTH 630 0
DWIDTH 7 0
BBX 7 8 0 -3
BITMAP
FE
00
FE
10
10
10
10
10
ENDCHAR
STARTCHAR 2565
ENCODING 9573
SWIDTH 630 0
DWIDTH 7 0
BBX 7 7 0 -3
BITMAP
FE
28
28
28
28
28
28
ENDCHAR
STARTCHAR 2566
ENCODING 9574
SWIDTH 630 0
DWIDTH 7 0
BBX 7 8 0 -3
BITMAP
FE
00
EE
28
28
28
28
28
ENDCHAR
STARTCHAR 2567
ENCODING 9575
SWIDTH 630 0
DWIDTH 7 0
BBX 7 8 0 2
BITMAP
10
10
10
10
10
FE
00
FE
ENDCHAR
STARTCHAR 2568
ENCODING 9576
SWIDTH 630 0
DWIDTH 7 0
BBX 7 7 0 3
BITMAP
28
28
28
28
28
28
FE
ENDCHAR
STARTCHAR 2569
ENCODING 9577
SWIDTH 630 0
DWIDTH 7 0
BBX 7 8 0 2
BITMAP
28
28
28
28
28
EE
00
FE
ENDCHAR
STARTCHAR 256A
ENCODING 9578
SWIDTH 630 0
DWIDTH 7 0
BBX 7 13 0 -3
BITMAP
10
10
10
10
10
FE
10
FE
10
10
10
10
10
ENDCHAR
STARTCHAR 256B
ENCODING 9579
SWIDTH 630 0
DWIDTH 7 0
BBX 7 13 0 -3
BITMAP
28
28
28
28
28
28
FE
28
28
28
28
28
28
ENDCHAR
STARTCHAR 256C
ENCODING 9580
SWIDTH 630 0
DWIDTH 7 0
BBX 7 13 0 -3
BITMAP
28
28
28
28
28
EE
00
EE
28
28
28
28
28
ENDCHAR
STARTCHAR 256D
ENCODING 9581
SWIDTH 630 0
DWIDTH 7 0
BBX 4 7 3 -3
BITMAP
70
80
80
80
80
80
80
ENDCHAR
STARTCHAR 256E
ENCODING 9582
SWIDTH 630 0
DWIDTH 7 0
BBX 4 7 0 -3
BITMAP
E0
10
10
10
10
10
10
ENDCHAR
STARTCHAR 256F
ENCODING 9583
SWIDTH 630 0
DWIDTH 7 0
BBX 4 7 0 3
BITMAP
10
10
10
10
10
10
E0
ENDCHAR
STARTCHAR 2570
ENCODING 9584
SWIDTH 630 0
DWIDTH 7 0
BBX 4 7 3 3
BITMAP
80
80
80
80
80
80
70
ENDCHAR
STARTCHAR 2571
ENCODING 9585
SWIDTH 630 0
DWIDTH 7 0
BBX 7 13 0 -3
BITMAP
02
04
04
08
08
10
10
20
20
40
40
80
80
ENDCHAR
STARTCHAR 2572
ENCODING 9586
SWIDTH 630 0
DWIDTH 7 0
BBX 7 13 0 -3
BITMAP
80
80
40
40
20
20
10
10
08
08
04
04
02
ENDCHAR
STARTCHAR 2573
ENCODING 9587
SWIDTH 630 0
DWIDTH 7 0
BBX 7 13 0 -3
BITMAP
82
84
44
48
28
30
10
30
28
48
44
84
82
ENDCHAR
STARTCHAR 2574
ENCODING 9588
SWIDTH 630 0
DWIDTH 7 0
BBX 3 1 0 3
BITMAP
E0
ENDCHAR
STARTCHAR 2575
ENCODING 9589
SWIDTH 630 0
DWIDTH 7 0
BBX 1 6 3 4
BITMAP
80
80
80
80
80
80
ENDCHAR
STARTCHAR 2576
ENCODING 9590
SWIDTH 630 0
DWIDTH 7 0
BBX 4 1 3 3
BITMAP
F0
ENDCHAR
STARTCHAR 2577
ENCODING 9591
SWIDTH 630 0
DWIDTH 7 0
BBX 1 6 3 -3
BITMAP
80
80
80
80
80
80
ENDCHAR
STARTCHAR 2578
ENCODING 9592
SWIDTH 630 0
DWIDTH 7 0
BBX 3 2 0 3
BITMAP
E0
E0
ENDCHAR
STARTCHAR 2579
ENCODING 9593
SWIDTH 630 0
DWIDTH 7 0
BBX 2 6 2 4
BITMAP
C0
C0
C0
C0
C0
C0
ENDCHAR
STARTCHAR 257A
ENCODING 9594
SWIDTH 630 0
DWIDTH 7 0
BBX 4 2 3 3
BITMAP
F0
F0
ENDCHAR
STARTCHAR 257B
ENCODING 9595
SWIDTH 630 0
DWIDTH 7 0
BBX 2 6 2 -3
BITMAP
C0
C0
C0
C0
C0
C0
ENDCHAR
STARTCHAR 257C
ENCODING 9596
SWIDTH 630 0
DWIDTH 7 0
BBX 7 2 0 3
BITMAP
1E
FE
ENDCHAR
STARTCHAR 257D
ENCODING 9597
SWIDTH 630 0
DWIDTH 7 0
BBX 2 13 2 -3
BITMAP
40
40
40
40
40
40
40
C0
C0
C0
C0
C0
C0
ENDCHAR
STARTCHAR 257E
ENCODING 9598
SWIDTH 630 0
DWIDTH 7 0
BBX 7 2 0 3
BITMAP
E0
FE
ENDCHAR
STARTCHAR 257F
ENCODING 9599
SWIDTH 630 0
DWIDTH 7 0
BBX 2 13 2 -3
BITMAP
C0
C0
C0
C0
C0
C0
40
40
40
40
40
40
40
ENDCHAR
STARTCHAR 2580
ENCODING 9600
SWIDTH 630 0
DWIDTH 7 0
BBX 7 6 0 4
BITMAP
FE
FE
FE
FE
FE
FE
ENDCHAR
STARTCHAR 2581
ENCODING 9601
SWIDTH 630 0
DWIDTH 7 0
BBX 7 2 0 -3
BITMAP
FE
FE
ENDCHAR
STARTCHAR 2582
ENCODING 9602
SWIDTH 630 0
DWIDTH 7 0
BBX 7 3 0 -3
BITMAP
FE
FE
FE
ENDCHAR
STARTCHAR 2583
ENCODING 9603
SWIDTH 630 0
DWIDTH 7 0
BBX 7 5 0 -3
BITMAP
FE
FE
FE
FE
FE
ENDCHAR
STARTCHAR 2584
ENCODING 9604
SWIDTH 630 0
DWIDTH 7 0
BBX 7 6 0 -3
BITMAP
FE
FE
FE
FE
FE
FE
ENDCHAR
STARTCHAR 2585
ENCODING 9605
SWIDTH 630 0
DWIDTH 7 0
BBX 7 8 0 -3
BITMAP
FE
FE
FE
FE
FE
FE
FE
FE
ENDCHAR
STARTCHAR 2586
ENCODING 9606
SWIDTH 630 0
DWIDTH 7 0
BBX 7 10 0 -3
BITMAP
FE
FE
FE
FE
FE
FE
FE
FE
FE
FE
ENDCHAR
STARTCHAR 2587
ENCODING 9607
SWIDTH 630 0
DWIDTH 7 0
BBX 7 11 0 -3
BITMAP
FE
FE
FE
FE
FE
FE
FE
FE
FE
FE
FE
ENDCHAR
STARTCHAR 2588
ENCODING 9608
SWIDTH 630 0
DWIDTH 7 0
BBX 7 13 0 -3
BITMAP
FE
FE
FE
FE
FE
FE
FE
FE
FE
FE
FE
FE
FE
ENDCHAR
STARTCHAR 2589
ENCODING 9609
SWIDTH 630 0
DWIDTH 7 0
BBX 6 13 0 -3
BITMAP
FC
FC
FC
FC
FC
FC
FC
FC
FC
FC
FC
FC
FC
ENDCHAR
STARTCHAR 258A
ENCODING 9610
SWIDTH 630 0
DWIDTH 7 0
BBX 5 13 0 -3
BITMAP
F8
F8
F8
F8
F8
F8
F8
F8
F8
F8
F8
F8
F8
ENDCHAR
STARTCHAR 258B
ENCODING 9611
SWIDTH 630 0
DWIDTH 7 0
BBX 4 13 0 -3
BITMAP
F0
F0
F0
F0
F0
F0
F0
F0
F0
F0
F0
F0
F0
ENDCHAR
STARTCHAR 258C
ENCODING 9612
SWIDTH 630 0
DWIDTH 7 0
BBX 3 13 0 -3
BITMAP
E0
E0
E0
E0
E0
E0
E0
E0
E0
E0
E0
E0
E0
ENDCHAR
STARTCHAR 258D
ENCODING 9613
SWIDTH 630 0
DWIDTH 7 0
BBX 2 13 0 -3
BITMAP
C0
C0
C0
C0
C0
C0
C0
C0
C0
C0
C0
C0
C0
ENDCHAR
STARTCHAR 258E
ENCODING 9614
SWIDTH 630 0
DWIDTH 7 0
BBX 2 13 0 -3
BITMAP
C0
C0
C0
C0
C0
C0
C0
C0
C0
C0
C0
C0
C0
ENDCHAR
STARTCHAR 258F
ENCODING 9615
SWIDTH 630 0
DWIDTH 7 0
BBX 1 13 0 -3
BITMAP
80
80
80
80
80
80
80
80
80
80
80
80
80
ENDCHAR
STARTCHAR 2590
ENCODING 9616
SWIDTH 630 0
DWIDTH 7 0
BBX 4 13 3 -3
BITMAP
F0
F0
F0
F0
F0
F0
F0
F0
F0
F0
F0
F0
F0
ENDCHAR
STARTCHAR 2591
ENCODING 9617
SWIDTH 630 0
DWIDTH 7 0
BBX 6 13 0 -3
BITMAP
90
00
24
00
90
24
00
90
00
24
90
00
24
ENDCHAR
STARTCHAR 2592
ENCODING 9618
SWIDTH 630 0
DWIDTH 7 0
BBX 7 13 0 -3
BITMAP
AC
00
52
AC
52
00
AC
52
AC
52
00
AC
52
ENDCHAR
STARTCHAR 2593
ENCODING 9619
SWIDTH 630 0
DWIDTH 7 0
BBX 7 13 0 -3
BITMAP
6E
6E
FA
FE
6E
FA
FA
6E
FE
FA
6E
FE
FA
ENDCHAR
STARTCHAR 2594
ENCODING 9620
SWIDTH 630 0
DWIDTH 7 0
BBX 7 2 0 8
BITMAP
FE
FE
ENDCHAR
STARTCHAR 2595
ENCODING 9621
SWIDTH 630 0
DWIDTH 7 0
BBX 1 13 6 -3
BITMAP
80
80
80
80
80
80
80
80
80
80
80
80
80
ENDCHAR
STARTCHAR 2596
ENCODING 9622
SWIDTH 630 0
DWIDTH 7 0
BBX 3 6 0 -3
BITMAP
E0
E0
E0
E0
E0
E0
ENDCHAR
STARTCHAR 2597
ENCODING 9623
SWIDTH 630 0
DWIDTH 7 0
BBX 4 6 3 -3
BITMAP
F0
F0
F0
F0
F0
F0
ENDCHAR
STARTCHAR 2598
ENCODING 9624
SWIDTH 630 0
DWIDTH 7 0
BBX 3 6 0 4
BITMAP
E0
E0
E0
E0
E0
E0
ENDCHAR
STARTCHAR 2599
ENCODING 9625
SWIDTH 630 0
DWIDTH 7 0
BBX 7 13 0 -3
BITMAP
E0
E0
E0
E0
E0
E0
E0
FE
FE
FE
FE
FE
FE
ENDCHAR
STARTCHAR 259A
ENCODING 9626
SWIDTH 630 0
DWIDTH 7 0
BBX 7 13 0 -3
BITMAP
E0
E0
E0
E0
E0
E0
00
1E
1E
1E
1E
1E
1E
ENDCHAR
STARTCHAR 259B
ENCODING 9627
SWIDTH 630 0
DWIDTH 7 0
BBX 7 13 0 -3
BITMAP
FE
FE
FE
FE
FE
FE
E0
E0
E0
E0
E0
E0
E0
ENDCHAR
STARTCHAR 259C
ENCODING 9628
SWIDTH 630 0
DWIDTH 7 0
BBX 7 13 0 -3
BITMAP
FE
FE
FE
FE
FE
FE
1E
1E
1E
1E
1E
1E
1E
ENDCHAR
STARTCHAR 259D
ENCODING 9629
SWIDTH 630 0
DWIDTH 7 0
BBX 4 6 3 4
BITMAP
F0
F0
F0
F0
F0
F0
ENDCHAR
STARTCHAR 259E
ENCODING 9630
SWIDTH 630 0
DWIDTH 7 0
BBX 7 13 0 -3
BITMAP
1E
1E
1E
1E
1E
1E
00
E0
E0
E0
E0
E0
E0
ENDCHAR
STARTCHAR 259F
ENCODING 9631
SWIDTH 630 0
DWIDTH 7 0
BBX 7 13 0 -3
BITMAP
1E
1E
1E
1E
1E
1E
1E
FE
FE
FE
FE
FE
FE
ENDCHAR
STARTCHAR 25A0
ENCODING 9632
SWIDTH 630 0
DWIDTH 7 0
BBX 7 6 0 0
BITMAP
FE
FE
FE
FE
FE
FE
ENDCHAR
STARTCHAR 25A1
ENCODING 9633
SWIDTH 630 0
DWIDTH 7 0
BBX 7 7 0 -1
BITMAP
FE
82
82
82
82
82
FE
ENDCHAR
STARTCHAR 25A2
ENCODING 9634
SWIDTH 630 0
DWIDTH 7 0
BBX 7 7 0 -1
BITMAP
FC
82
82
82
82
82
7C
ENDCHAR
STARTCHAR 25A3
ENCODING 9635
SWIDTH 630 0
DWIDTH 7 0
BBX 7 7 0 -1
BITMAP
FE
FE
FE
FE
FE
82
FE
ENDCHAR
STARTCHAR 25A4
ENCODING 9636
SWIDTH 630 0
DWIDTH 7 0
BBX 7 7 0 -1
BITMAP
FE
FE
FE
FE
82
FE
FE
ENDCHAR
STARTCHAR 25A5
ENCODING 9637
SWIDTH 630 0
DWIDTH 7 0
BBX 7 7 0 -1
BITMAP
FE
F6
F6
F6
F6
F6
FE
ENDCHAR
STARTCHAR 25A6
ENCODING 9638
SWIDTH 630 0
DWIDTH 7 0
BBX 7 7 0 -1
BITMAP
FE
FE
FE
FE
F6
FE
FE
ENDCHAR
STARTCHAR 25A7
ENCODING 9639
SWIDTH 630 0
DWIDTH 7 0
BBX 7 7 0 -1
BITMAP
FE
B6
DA
AE
D6
EA
FE
ENDCHAR
STARTCHAR 25A8
ENCODING 9640
SWIDTH 630 0
DWIDTH 7 0
BBX 7 7 0 -1
BITMAP
FE
EA
D6
AE
DA
B6
FE
ENDCHAR
STARTCHAR 25A9
ENCODING 9641
SWIDTH 630 0
DWIDTH 7 0
BBX 7 7 0 -1
BITMAP
FE
FE
DE
AE
DE
FE
FE
ENDCHAR
STARTCHAR 25AA
ENCODING 9642
SWIDTH 630 0
DWIDTH 7 0
BBX 5 4 1 1
BITMAP
F8
F8
F8
F8
ENDCHAR
STARTCHAR 25AB
ENCODING 9643
SWIDTH 630 0
DWIDTH 7 0
BBX 5 4 1 1
BITMAP
F8
88
88
F8
ENDCHAR
STARTCHAR 25AC
ENCODING 9644
SWIDTH 630 0
DWIDTH 7 0
BBX 7 3 0 1
BITMAP
FE
FE
FE
ENDCHAR
STARTCHAR 25AD
ENCODING 9645
SWIDTH 630 0
DWIDTH 7 0
BBX 7 3 0 1
BITMAP
FE
82
FE
ENDCHAR
STARTCHAR 25AE
ENCODING 9646
SWIDTH 630 0
DWIDTH 7 0
BBX 3 6 2 0
BITMAP
E0
E0
E0
E0
E0
E0
ENDCHAR
STARTCHAR 25AF
ENCODING 9647
SWIDTH 630 0
DWIDTH 7 0
BBX 3 7 2 -1
BITMAP
E0
A0
A0
A0
A0
A0
E0
ENDCHAR
STARTCHAR 25B0
ENCODING 9648
SWIDTH 630 0
DWIDTH 7 0
BBX 7 3 0 1
BITMAP
7E
7C
F8
ENDCHAR
STARTCHAR 25B1
ENCODING 9649
SWIDTH 630 0
DWIDTH 7 0
BBX 7 3 0 1
BITMAP
7E
44
F8
ENDCHAR
STARTCHAR 25B2
ENCODING 9650
SWIDTH 630 0
DWIDTH 7 0
BBX 7 7 0 0
BITMAP
10
10
30
38
78
7C
FE
ENDCHAR
STARTCHAR 25B3
ENCODING 9651
SWIDTH 630 0
DWIDTH 7 0
BBX 7 7 0 -1
BITMAP
10
10
28
28
44
84
FE
ENDCHAR
STARTCHAR 25B4
ENCODING 9652
SWIDTH 630 0
DWIDTH 7 0
BBX 5 4 1 1
BITMAP
20
60
70
F8
ENDCHAR
STARTCHAR 25B5
ENCODING 9653
SWIDTH 630 0
DWIDTH 7 0
BBX 5 4 1 1
BITMAP
20
50
50
F8
ENDCHAR
STARTCHAR 25B6
ENCODING 9654
SWIDTH 630 0
DWIDTH 7 0
BBX 7 6 0 0
BITMAP
80
E0
F8
FE
F0
C0
ENDCHAR
STARTCHAR 25B7
ENCODING 9655
SWIDTH 630 0
DWIDTH 7 0
BBX 7 6 0 0
BITMAP
C0
B0
88
8E
B0
C0
ENDCHAR
STARTCHAR 25B8
ENCODING 9656
SWIDTH 630 0
DWIDTH 7 0
BBX 5 4 1 1
BITMAP
80
E0
F8
C0
ENDCHAR
STARTCHAR 25B9
ENCODING 9657
SWIDTH 630 0
DWIDTH 7 0
BBX 5 4 1 1
BITMAP
C0
A0
B8
C0
ENDCHAR
STARTCHAR 25BA
ENCODING 9658
SWIDTH 630 0
DWIDTH 7 0
BBX 7 4 0 1
BITMAP
C0
F8
FE
C0
ENDCHAR
STARTCHAR 25BB
ENCODING 9659
SWIDTH 630 0
DWIDTH 7 0
BBX 7 4 0 1
BITMAP
C0
B8
9E
E0
ENDCHAR
STARTCHAR 25BC
ENCODING 9660
SWIDTH 630 0
DWIDTH 7 0
BBX 7 6 0 0
BITMAP
FE
7C
78
38
30
10
ENDCHAR
STARTCHAR 25BD
ENCODING 9661
SWIDTH 630 0
DWIDTH 7 0
BBX 7 7 0 -1
BITMAP
FE
44
44
28
28
10
10
ENDCHAR
STARTCHAR 25BE
ENCODING 9662
SWIDTH 630 0
DWIDTH 7 0
BBX 5 4 1 1
BITMAP
F8
70
60
20
ENDCHAR
STARTCHAR 25BF
ENCODING 9663
SWIDTH 630 0
DWIDTH 7 0
BBX 5 4 1 1
BITMAP
F8
50
50
20
ENDCHAR
STARTCHAR 25C0
ENCODING 9664
SWIDTH 630 0
DWIDTH 7 0
BBX 7 6 0 0
BITMAP
06
1E
7E
FE
1E
06
ENDCHAR
STARTCHAR 25C1
ENCODING 9665
SWIDTH 630 0
DWIDTH 7 0
BBX 7 6 0 0
BITMAP
06
1A
62
C2
32
0E
ENDCHAR
STARTCHAR 25C2
ENCODING 9666
SWIDTH 630 0
DWIDTH 7 0
BBX 5 4 1 1
BITMAP
18
78
F8
18
ENDCHAR
STARTCHAR 25C3
ENCODING 9667
SWIDTH 630 0
DWIDTH 7 0
BBX 5 4 1 1
BITMAP
18
68
E8
18
ENDCHAR
STARTCHAR 25C4
ENCODING 9668
SWIDTH 630 0
DWIDTH 7 0
BBX 7 4 0 1
BITMAP
06
3E
FE
0E
ENDCHAR
STARTCHAR 25C5
ENCODING 9669
SWIDTH 630 0
DWIDTH 7 0
BBX 7 4 0 1
BITMAP
0E
32
F2
0E
ENDCHAR
STARTCHAR 25C6
ENCODING 9670
SWIDTH 630 0
DWIDTH 7 0
BBX 7 6 0 0
BITMAP
10
38
7C
FE
78
30
ENDCHAR
STARTCHAR 25C7
ENCODING 9671
SWIDTH 630 0
DWIDTH 7 0
BBX 7 6 0 0
BITMAP
10
28
44
86
48
30
ENDCHAR
STARTCHAR 25C8
ENCODING 9672
SWIDTH 630 0
DWIDTH 7 0
BBX 7 6 0 0
BITMAP
10
38
7C
BE
58
30
ENDCHAR
STARTCHAR 25C9
ENCODING 9673
SWIDTH 630 0
DWIDTH 7 0
BBX 7 7 0 -1
BITMAP
38
7C
FA
FE
BA
44
38
ENDCHAR
STARTCHAR 25CA
ENCODING 9674
SWIDTH 630 0
DWIDTH 7 0
BBX 5 12 1 -3
BITMAP
20
20
50
50
88
88
88
90
50
50
20
20
ENDCHAR
STARTCHAR 25CB
ENCODING 9675
SWIDTH 630 0
DWIDTH 7 0
BBX 7 7 0 -1
BITMAP
38
44
82
82
82
44
38
ENDCHAR
STARTCHAR 25CC
ENCODING 9676
SWIDTH 630 0
DWIDTH 7 0
BBX 7 7 0 -1
BITMAP
10
44
00
82
00
44
10
ENDCHAR
STARTCHAR 25CD
ENCODING 9677
SWIDTH 630 0
DWIDTH 7 0
BBX 7 7 0 -1
BITMAP
38
74
F6
F6
F6
74
38
ENDCHAR
STARTCHAR 25CE
ENCODING 9678
SWIDTH 630 0
DWIDTH 7 0
BBX 7 7 0 -1
BITMAP
38
44
B2
AA
B2
44
38
ENDCHAR
STARTCHAR 25CF
ENCODING 9679
SWIDTH 630 0
DWIDTH 7 0
BBX 7 6 0 0
BITMAP
38
FC
FE
FE
FC
38
ENDCHAR
STARTCHAR 25D0
ENCODING 9680
SWIDTH 630 0
DWIDTH 7 0
BBX 7 7 0 -1
BITMAP
38
64
E2
E2
E2
64
38
ENDCHAR
STARTCHAR 25D1
ENCODING 9681
SWIDTH 630 0
DWIDTH 7 0
BBX 7 7 0 -1
BITMAP
38
5C
9E
9E
9E
5C
38
ENDCHAR
STARTCHAR 25D2
ENCODING 9682
SWIDTH 630 0
DWIDTH 7 0
BBX 7 7 0 -1
BITMAP
38
44
82
82
FE
7C
38
ENDCHAR
STARTCHAR 25D3
ENCODING 9683
SWIDTH 630 0
DWIDTH 7 0
BBX 7 6 0 0
BITMAP
38
FC
FE
82
44
38
ENDCHAR
STARTCHAR 25D4
ENCODING 9684
SWIDTH 630 0
DWIDTH 7 0
BBX 7 7 0 -1
BITMAP
38
5C
9E
82
82
44
38
ENDCHAR
STARTCHAR 25D5
ENCODING 9685
SWIDTH 630 0
DWIDTH 7 0
BBX 7 7 0 -1
BITMAP
38
5C
9E
9E
FE
7C
38
ENDCHAR
STARTCHAR 25D6
ENCODING 9686
SWIDTH 630 0
DWIDTH 7 0
BBX 3 6 2 0
BITMAP
60
E0
E0
E0
E0
60
ENDCHAR
STARTCHAR 25D7
ENCODING 9687
SWIDTH 630 0
DWIDTH 7 0
BBX 3 6 2 0
BITMAP
80
E0
E0
E0
E0
80
ENDCHAR
STARTCHAR 25D8
ENCODING 9688
SWIDTH 630 0
DWIDTH 7 0
BBX 7 8 0 0
BITMAP
FE
FE
FE
C6
C6
FE
FE
FE
ENDCHAR
STARTCHAR 25D9
ENCODING 9689
SWIDTH 630 0
DWIDTH 7 0
BBX 7 11 0 -3
BITMAP
FE
FE
C6
BA
FE
FE
FE
BA
C6
FE
FE
ENDCHAR
STARTCHAR 25DA
ENCODING 9690
SWIDTH 630 0
DWIDTH 7 0
BBX 7 6 0 2
BITMAP
FE
FE
C6
BA
FE
FE
ENDCHAR
STARTCHAR 25DB
ENCODING 9691
SWIDTH 630 0
DWIDTH 7 0
BBX 7 6 0 -3
BITMAP
FE
FE
BA
C6
FE
FE
ENDCHAR
STARTCHAR 25DC
ENCODING 9692
SWIDTH 630 0
DWIDTH 7 0
BBX 3 3 2 3
BITMAP
60
80
80
ENDCHAR
STARTCHAR 25DD
ENCODING 9693
SWIDTH 630 0
DWIDTH 7 0
BBX 3 3 2 3
BITMAP
80
40
20
ENDCHAR
STARTCHAR 25DE
ENCODING 9694
SWIDTH 630 0
DWIDTH 7 0
BBX 3 3 2 -1
BITMAP
20
60
80
ENDCHAR
STARTCHAR 25DF
ENCODING 9695
SWIDTH 630 0
DWIDTH 7 0
BBX 3 3 2 -1
BITMAP
80
80
60
ENDCHAR
STARTCHAR 25E0
ENCODING 9696
SWIDTH 630 0
DWIDTH 7 0
BBX 7 3 0 3
BITMAP
38
44
82
ENDCHAR
STARTCHAR 25E1
ENCODING 9697
SWIDTH 630 0
DWIDTH 7 0
BBX 7 3 0 -1
BITMAP
82
44
38
ENDCHAR
STARTCHAR 25E2
ENCODING 9698
SWIDTH 630 0
DWIDTH 7 0
BBX 7 6 0 0
BITMAP
02
06
0E
1E
3E
FE
ENDCHAR
STARTCHAR 25E3
ENCODING 9699
SWIDTH 630 0
DWIDTH 7 0
BBX 7 6 0 0
BITMAP
80
C0
E0
F0
F8
FE
ENDCHAR
STARTCHAR 25E4
ENCODING 9700
SWIDTH 630 0
DWIDTH 7 0
BBX 7 6 0 0
BITMAP
FE
F8
F0
E0
C0
80
ENDCHAR
STARTCHAR 25E5
ENCODING 9701
SWIDTH 630 0
DWIDTH 7 0
BBX 7 6 0 0
BITMAP
FE
3E
1E
0E
06
02
ENDCHAR
STARTCHAR 25E6
ENCODING 9702
SWIDTH 630 0
DWIDTH 7 0
BBX 3 4 2 2
BITMAP
C0
A0
A0
C0
ENDCHAR
STARTCHAR 25E7
ENCODING 9703
SWIDTH 630 0
DWIDTH 7 0
BBX 7 7 0 -1
BITMAP
FE
E2
E2
E2
E2
E2
FE
ENDCHAR
STARTCHAR 25E8
ENCODING 9704
SWIDTH 630 0
DWIDTH 7 0
BBX 7 7 0 -1
BITMAP
FE
9E
9E
9E
9E
9E
FE
ENDCHAR
STARTCHAR 25E9
ENCODING 9705
SWIDTH 630 0
DWIDTH 7 0
BBX 7 7 0 -1
BITMAP
FE
FA
F2
E2
C2
82
FE
ENDCHAR
STARTCHAR 25EA
ENCODING 9706
SWIDTH 630 0
DWIDTH 7 0
BBX 7 7 0 -1
BITMAP
FE
86
8E
9E
BE
FE
FE
ENDCHAR
STARTCHAR 25EB
ENCODING 9707
SWIDTH 630 0
DWIDTH 7 0
BBX 7 7 0 -1
BITMAP
FE
92
92
92
92
92
FE
ENDCHAR
STARTCHAR 25EC
ENCODING 9708
SWIDTH 630 0
DWIDTH 7 0
BBX 7 7 0 -1
BITMAP
10
10
28
28
54
44
FE
ENDCHAR
STARTCHAR 25ED
ENCODING 9709
SWIDTH 630 0
DWIDTH 7 0
BBX 7 7 0 -1
BITMAP
10
10
28
28
64
64
FE
ENDCHAR
STARTCHAR 25EE
ENCODING 9710
SWIDTH 630 0
DWIDTH 7 0
BBX 7 7 0 -1
BITMAP
10
10
30
38
58
9C
FE
ENDCHAR
STARTCHAR 25EF
ENCODING 9711
SWIDTH 630 0
DWIDTH 7 0
BBX 7 7 0 -1
BITMAP
38
C4
82
82
82
44
38
ENDCHAR
STARTCHAR 25F0
ENCODING 9712
SWIDTH 630 0
DWIDTH 7 0
BBX 7 7 0 -1
BITMAP
FE
92
92
F2
82
82
FE
ENDCHAR
STARTCHAR 25F1
ENCODING 9713
SWIDTH 630 0
DWIDTH 7 0
BBX 7 7 0 -1
BITMAP
FE
82
82
F2
92
92
FE
ENDCHAR
STARTCHAR 25F2
ENCODING 9714
SWIDTH 630 0
DWIDTH 7 0
BBX 7 7 0 -1
BITMAP
FE
82
82
9E
92
92
FE
ENDCHAR
STARTCHAR 25F3
ENCODING 9715
SWIDTH 630 0
DWIDTH 7 0
BBX 7 7 0 -1
BITMAP
FE
92
92
9E
82
82
FE
ENDCHAR
STARTCHAR 25F4
ENCODING 9716
SWIDTH 630 0
DWIDTH 7 0
BBX 7 7 0 -1
BITMAP
38
54
92
F2
82
44
38
ENDCHAR
STARTCHAR 25F5
ENCODING 9717
SWIDTH 630 0
DWIDTH 7 0
BBX 7 7 0 -1
BITMAP
38
44
82
F2
92
54
38
ENDCHAR
STARTCHAR 25F6
ENCODING 9718
SWIDTH 630 0
DWIDTH 7 0
BBX 7 7 0 -1
BITMAP
38
44
82
9E
92
54
38
ENDCHAR
STARTCHAR 25F7
ENCODING 9719
SWIDTH 630 0
DWIDTH 7 0
BBX 7 7 0 -1
BITMAP
38
54
92
9E
82
44
38
ENDCHAR
STARTCHAR 25F8
ENCODING 9720
SWIDTH 630 0
DWIDTH 7 0
BBX 7 7 0 -1
BITMAP
FE
88
90
A0
C0
80
80
ENDCHAR
STARTCHAR 25F9
ENCODING 9721
SWIDTH 630 0
DWIDTH 7 0
BBX 7 7 0 -1
BITMAP
FE
42
22
12
0A
06
02
ENDCHAR
STARTCHAR 25FA
ENCODING 9722
SWIDTH 630 0
DWIDTH 7 0
BBX 7 7 0 -1
BITMAP
80
80
C0
A0
90
88
FE
ENDCHAR
STARTCHAR 25FB
ENCODING 9723
SWIDTH 630 0
DWIDTH 7 0
BBX 5 6 1 0
BITMAP
F8
88
88
88
88
F8
ENDCHAR
STARTCHAR 25FC
ENCODING 9724
SWIDTH 630 0
DWIDTH 7 0
BBX 5 5 1 0
BITMAP
F8
F8
F8
F8
F8
ENDCHAR
STARTCHAR 25FD
ENCODING 9725
SWIDTH 630 0
DWIDTH 7 0
BBX 5 5 1 0
BITMAP
F8
88
88
88
F8
ENDCHAR
STARTCHAR 25FE
ENCODING 9726
SWIDTH 630 0
DWIDTH 7 0
BBX 5 5 1 0
BITMAP
F8
F8
F8
F8
F8
ENDCHAR
STARTCHAR 25FF
ENCODING 9727
SWIDTH 630 0
DWIDTH 7 0
BBX 7 7 0 -1
BITMAP
02
06
0A
12
22
42
FE
ENDCHAR
STARTCHAR 266A
ENCODING 9834
SWIDTH 630 0
DWIDTH 7 0
BBX 6 9 0 -1
BITMAP
08
0C
0C
0C
08
08
68
F0
70
ENDCHAR
STARTCHAR 2756
ENCODING 10070
SWIDTH 630 0
DWIDTH 7 0
BBX 6 6 0 0
BITMAP
10
38
FC
5C
38
10
ENDCHAR
STARTCHAR 2768
ENCODING 10088
SWIDTH 630 0
DWIDTH 7 0
BBX 4 8 1 -1
BITMAP
10
60
40
C0
C0
40
60
10
ENDCHAR
STARTCHAR 2769
ENCODING 10089
SWIDTH 630 0
DWIDTH 7 0
BBX 4 8 1 0
BITMAP
C0
20
30
10
10
10
30
E0
ENDCHAR
STARTCHAR 276A
ENCODING 10090
SWIDTH 630 0
DWIDTH 7 0
BBX 3 8 2 -1
BITMAP
60
C0
C0
C0
C0
C0
C0
60
ENDCHAR
STARTCHAR 276B
ENCODING 10091
SWIDTH 630 0
DWIDTH 7 0
BBX 3 8 2 -1
BITMAP
C0
40
60
60
60
60
40
C0
ENDCHAR
STARTCHAR 276C
ENCODING 10092
SWIDTH 630 0
DWIDTH 7 0
BBX 3 8 2 -1
BITMAP
20
40
40
80
80
40
40
20
ENDCHAR
STARTCHAR 276D
ENCODING 10093
SWIDTH 630 0
DWIDTH 7 0
BBX 3 8 2 -1
BITMAP
80
40
40
20
20
40
40
80
ENDCHAR
STARTCHAR 276E
ENCODING 10094
SWIDTH 630 0
DWIDTH 7 0
BBX 5 8 1 -1
BITMAP
38
30
60
C0
C0
60
30
38
ENDCHAR
STARTCHAR 276F
ENCODING 10095
SWIDTH 630 0
DWIDTH 7 0
BBX 5 8 1 -1
BITMAP
C0
60
30
30
38
30
60
C0
ENDCHAR
STARTCHAR 2770
ENCODING 10096
SWIDTH 630 0
DWIDTH 7 0
BBX 5 9 1 -1
BITMAP
38
30
60
60
C0
60
60
30
38
ENDCHAR
STARTCHAR 2771
ENCODING 10097
SWIDTH 630 0
DWIDTH 7 0
BBX 5 9 1 -1
BITMAP
E0
60
70
30
38
30
70
60
E0
ENDCHAR
STARTCHAR 2772
ENCODING 10098
SWIDTH 630 0
DWIDTH 7 0
BBX 2 10 2 -2
BITMAP
40
40
80
80
80
80
80
80
40
40
ENDCHAR
STARTCHAR 2773
ENCODING 10099
SWIDTH 630 0
DWIDTH 7 0
BBX 2 9 2 -1
BITMAP
80
40
40
40
40
40
40
40
C0
ENDCHAR
STARTCHAR 2774
ENCODING 10100
SWIDTH 630 0
DWIDTH 7 0
BBX 3 9 2 -2
BITMAP
60
40
40
40
80
40
40
40
60
ENDCHAR
STARTCHAR 2775
ENCODING 10101
SWIDTH 630 0
DWIDTH 7 0
BBX 4 9 1 -2
BITMAP
E0
20
20
20
30
20
20
20
E0
ENDCHAR
STARTCHAR 2794
ENCODING 10132
SWIDTH 630 0
DWIDTH 7 0
BBX 6 4 0 2
BITMAP
10
08
FC
18
ENDCHAR
STARTCHAR 2798
ENCODING 10136
SWIDTH 630 0
DWIDTH 7 0
BBX 5 5 1 1
BITMAP
80
40
28
18
38
ENDCHAR
STARTCHAR 2799
ENCODING 10137
SWIDTH 630 0
DWIDTH 7 0
BBX 6 3 0 2
BITMAP
08
FC
08
ENDCHAR
STARTCHAR 279A
ENCODING 10138
SWIDTH 630 0
DWIDTH 7 0
BBX 5 5 1 1
BITMAP
38
18
68
C0
80
ENDCHAR
STARTCHAR 279B
ENCODING 10139
SWIDTH 630 0
DWIDTH 7 0
BBX 6 3 0 2
BITMAP
30
FC
30
ENDCHAR
STARTCHAR 279C
ENCODING 10140
SWIDTH 630 0
DWIDTH 7 0
BBX 6 4 0 2
BITMAP
08
0C
FC
08
ENDCHAR
STARTCHAR 279D
ENCODING 10141
SWIDTH 630 0
DWIDTH 7 0
BBX 6 3 0 2
BITMAP
08
FC
08
ENDCHAR
STARTCHAR 279E
ENCODING 10142
SWIDTH 630 0
DWIDTH 7 0
BBX 6 3 0 2
BITMAP
04
FC
08
ENDCHAR
STARTCHAR 279F
ENCODING 10143
SWIDTH 630 0
DWIDTH 7 0
BBX 6 4 0 2
BITMAP
08
BC
BC
08
ENDCHAR
STARTCHAR 27A0
ENCODING 10144
SWIDTH 630 0
DWIDTH 7 0
BBX 6 4 0 2
BITMAP
08
BC
B8
08
ENDCHAR
STARTCHAR 27A1
ENCODING 10145
SWIDTH 630 0
DWIDTH 7 0
BBX 6 3 0 2
BITMAP
08
FC
08
ENDCHAR
STARTCHAR 27A2
ENCODING 10146
SWIDTH 630 0
DWIDTH 7 0
BBX 5 4 1 2
BITMAP
80
78
70
80
ENDCHAR
STARTCHAR 27A3
ENCODING 10147
SWIDTH 630 0
DWIDTH 7 0
BBX 5 4 1 2
BITMAP
80
68
70
80
ENDCHAR
STARTCHAR 27A4
ENCODING 10148
SWIDTH 630 0
DWIDTH 7 0
BBX 5 5 1 2
BITMAP
80
C0
78
70
C0
ENDCHAR
STARTCHAR 27A5
ENCODING 10149
SWIDTH 630 0
DWIDTH 7 0
BBX 6 4 0 2
BITMAP
88
FC
FC
08
ENDCHAR
STARTCHAR 27A6
ENCODING 10150
SWIDTH 630 0
DWIDTH 7 0
BBX 6 4 0 2
BITMAP
08
FC
FC
88
ENDCHAR
STARTCHAR 27A7
ENCODING 10151
SWIDTH 630 0
DWIDTH 7 0
BBX 3 5 2 2
BITMAP
40
40
E0
E0
40
ENDCHAR
STARTCHAR 27A8
ENCODING 10152
SWIDTH 630 0
DWIDTH 7 0
BBX 6 4 0 2
BITMAP
08
FC
F8
08
ENDCHAR
STARTCHAR 27A9
ENCODING 10153
SWIDTH 630 0
DWIDTH 7 0
BBX 5 4 1 1
BITMAP
20
F8
E8
30
ENDCHAR
STARTCHAR 27AA
ENCODING 10154
SWIDTH 630 0
DWIDTH 7 0
BBX 5 4 1 1
BITMAP
30
E8
E8
30
ENDCHAR
STARTCHAR 27AB
ENCODING 10155
SWIDTH 630 0
DWIDTH 7 0
BBX 6 5 0 1
BITMAP
04
7C
84
FC
10
ENDCHAR
STARTCHAR 27AC
ENCODING 10156
SWIDTH 630 0
DWIDTH 7 0
BBX 5 3 1 2
BITMAP
20
F8
F8
ENDCHAR
STARTCHAR 27AD
ENCODING 10157
SWIDTH 630 0
DWIDTH 7 0
BBX 5 4 1 2
BITMAP
E0
90
88
F0
ENDCHAR
STARTCHAR 27AE
ENCODING 10158
SWIDTH 630 0
DWIDTH 7 0
BBX 6 5 0 1
BITMAP
18
7C
84
84
F8
ENDCHAR
STARTCHAR 27AF
ENCODING 10159
SWIDTH 630 0
DWIDTH 7 0
BBX 6 5 0 1
BITMAP
F8
84
84
F8
08
ENDCHAR
STARTCHAR 27B1
ENCODING 10161
SWIDTH 630 0
DWIDTH 7 0
BBX 6 5 0 1
BITMAP
F8
84
84
F8
08
ENDCHAR
STARTCHAR 27B2
ENCODING 10162
SWIDTH 630 0
DWIDTH 7 0
BBX 5 5 1 1
BITMAP
F0
18
08
18
F0
ENDCHAR
STARTCHAR 27B3
ENCODING 10163
SWIDTH 630 0
DWIDTH 7 0
BBX 6 3 0 1
BITMAP
E8
7C
E8
ENDCHAR
STARTCHAR 27B4
ENCODING 10164
SWIDTH 630 0
DWIDTH 7 0
BBX 5 5 1 1
BITMAP
40
E0
60
18
18
ENDCHAR
STARTCHAR 27B5
ENCODING 10165
SWIDTH 630 0
DWIDTH 7 0
BBX 6 2 0 2
BITMAP
FC
F4
ENDCHAR
STARTCHAR 27B6
ENCODING 10166
SWIDTH 630 0
DWIDTH 7 0
BBX 5 5 1 1
BITMAP
18
18
60
E0
40
ENDCHAR
STARTCHAR 27B7
ENCODING 10167
SWIDTH 630 0
DWIDTH 7 0
BBX 6 5 0 1
BITMAP
20
F0
30
0C
0C
ENDCHAR
STARTCHAR 27B8
ENCODING 10168
SWIDTH 630 0
DWIDTH 7 0
BBX 6 2 0 2
BITMAP
FC
E4
ENDCHAR
STARTCHAR 27B9
ENCODING 10169
SWIDTH 630 0
DWIDTH 7 0
BBX 5 6 1 0
BITMAP
18
18
60
E0
40
40
ENDCHAR
STARTCHAR 27BA
ENCODING 10170
SWIDTH 630 0
DWIDTH 7 0
BBX 6 4 0 2
BITMAP
08
FC
C4
08
ENDCHAR
STARTCHAR 27BB
ENCODING 10171
SWIDTH 630 0
DWIDTH 7 0
BBX 7 3 0 2
BITMAP
08
FE
64
ENDCHAR
STARTCHAR 27BC
ENCODING 10172
SWIDTH 630 0
DWIDTH 7 0
BBX 6 3 0 2
BITMAP
E4
7C
E4
ENDCHAR
STARTCHAR 27BD
ENCODING 10173
SWIDTH 630 0
DWIDTH 7 0
BBX 6 3 0 2
BITMAP
FC
7C
FC
ENDCHAR
STARTCHAR 27BE
ENCODING 10174
SWIDTH 630 0
DWIDTH 7 0
BBX 6 4 0 1
BITMAP
18
F4
F4
18
ENDCHAR
STARTCHAR 27C2
ENCODING 10178
SWIDTH 630 0
DWIDTH 7 0
BBX 6 7 0 0
BITMAP
10
10
10
10
10
10
FC
ENDCHAR
STARTCHAR 27C5
ENCODING 10181
SWIDTH 630 0
DWIDTH 7 0
BBX 3 10 2 -2
BITMAP
C0
A0
40
40
40
80
80
80
80
60
ENDCHAR
STARTCHAR 27C6
ENCODING 10182
SWIDTH 630 0
DWIDTH 7 0
BBX 3 10 2 -2
BITMAP
C0
A0
80
40
40
20
20
20
20
C0
ENDCHAR
STARTCHAR 27DC
ENCODING 10204
SWIDTH 630 0
DWIDTH 7 0
BBX 7 3 0 2
BITMAP
60
BE
60
ENDCHAR
STARTCHAR 27E0
ENCODING 10208
SWIDTH 630 0
DWIDTH 7 0
BBX 5 11 1 -2
BITMAP
20
60
50
90
88
F8
88
90
50
60
20
ENDCHAR
STARTCHAR 27E6
ENCODING 10214
SWIDTH 630 0
DWIDTH 7 0
BBX 3 10 2 -2
BITMAP
E0
C0
C0
C0
C0
C0
C0
C0
C0
E0
ENDCHAR
STARTCHAR 27E7
ENCODING 10215
SWIDTH 630 0
DWIDTH 7 0
BBX 3 10 2 -2
BITMAP
E0
60
60
60
60
60
60
60
60
E0
ENDCHAR
STARTCHAR 27E8
ENCODING 10216
SWIDTH 630 0
DWIDTH 7 0
BBX 3 9 2 -1
BITMAP
60
40
40
80
80
80
40
40
60
ENDCHAR
STARTCHAR 27E9
ENCODING 10217
SWIDTH 630 0
DWIDTH 7 0
BBX 3 9 2 -1
BITMAP
80
40
40
40
20
40
40
40
80
ENDCHAR
STARTCHAR 27EA
ENCODING 10218
SWIDTH 630 0
DWIDTH 7 0
BBX 5 9 1 -1
BITMAP
58
50
50
90
A0
A0
50
50
58
ENDCHAR
STARTCHAR 27EB
ENCODING 10219
SWIDTH 630 0
DWIDTH 7 0
BBX 5 9 1 -1
BITMAP
A0
90
50
50
48
50
50
50
A0
ENDCHAR
STARTCHAR 27F5
ENCODING 10229
SWIDTH 630 0
DWIDTH 7 0
BBX 8 3 -1 1
BITMAP
60
FF
60
ENDCHAR
STARTCHAR 27F6
ENCODING 10230
SWIDTH 630 0
DWIDTH 7 0
BBX 8 3 -1 1
BITMAP
02
FF
02
ENDCHAR
STARTCHAR 27F7
ENCODING 10231
SWIDTH 630 0
DWIDTH 7 0
BBX 8 3 -1 1
BITMAP
62
FF
62
ENDCHAR
STARTCHAR 2987
ENCODING 10631
SWIDTH 630 0
DWIDTH 7 0
BBX 3 9 2 -1
BITMAP
60
A0
A0
A0
A0
A0
A0
A0
60
ENDCHAR
STARTCHAR 2988
ENCODING 10632
SWIDTH 630 0
DWIDTH 7 0
BBX 3 9 2 -1
BITMAP
80
C0
A0
A0
A0
A0
A0
C0
C0
ENDCHAR
STARTCHAR 2997
ENCODING 10647
SWIDTH 630 0
DWIDTH 7 0
BBX 3 11 2 -2
BITMAP
20
20
40
C0
C0
C0
C0
C0
40
20
20
ENDCHAR
STARTCHAR 2998
ENCODING 10648
SWIDTH 630 0
DWIDTH 7 0
BBX 4 11 1 -2
BITMAP
80
40
20
30
30
30
30
30
20
40
80
ENDCHAR
STARTCHAR 29EB
ENCODING 10731
SWIDTH 630 0
DWIDTH 7 0
BBX 5 12 1 -3
BITMAP
20
20
70
70
F0
F8
F8
F0
70
60
20
20
ENDCHAR
STARTCHAR 29FA
ENCODING 10746
SWIDTH 630 0
DWIDTH 7 0
BBX 6 6 0 1
BITMAP
28
28
28
FC
28
28
ENDCHAR
STARTCHAR 29FB
ENCODING 10747
SWIDTH 630 0
DWIDTH 7 0
BBX 6 6 0 1
BITMAP
54
54
54
FC
54
54
ENDCHAR
STARTCHAR 2A00
ENCODING 10752
SWIDTH 630 0
DWIDTH 7 0
BBX 6 11 0 -3
BITMAP
38
44
44
84
84
94
94
84
44
44
38
ENDCHAR
STARTCHAR 2A2F
ENCODING 10799
SWIDTH 630 0
DWIDTH 7 0
BBX 5 5 1 1
BITMAP
88
50
20
50
88
ENDCHAR
STARTCHAR 2A6A
ENCODING 10858
SWIDTH 630 0
DWIDTH 7 0
BBX 6 4 0 2
BITMAP
10
10
64
9C
ENDCHAR
STARTCHAR 2A6B
ENCODING 10859
SWIDTH 630 0
DWIDTH 7 0
BBX 6 6 0 0
BITMAP
08
08
64
9C
60
60
ENDCHAR
STARTCHAR 2B05
ENCODING 11013
SWIDTH 630 0
DWIDTH 7 0
BBX 6 3 0 2
BITMAP
40
FC
40
ENDCHAR
STARTCHAR 2B06
ENCODING 11014
SWIDTH 630 0
DWIDTH 7 0
BBX 3 6 2 1
BITMAP
40
E0
40
40
40
40
ENDCHAR
STARTCHAR 2B07
ENCODING 11015
SWIDTH 630 0
DWIDTH 7 0
BBX 3 6 2 1
BITMAP
40
40
40
40
E0
40
ENDCHAR
STARTCHAR 2B08
ENCODING 11016
SWIDTH 630 0
DWIDTH 7 0
BBX 4 4 1 2
BITMAP
30
30
60
C0
ENDCHAR
STARTCHAR 2B09
ENCODING 11017
SWIDTH 630 0
DWIDTH 7 0
BBX 5 4 1 2
BITMAP
E0
E0
30
18
ENDCHAR
STARTCHAR 2B0A
ENCODING 11018
SWIDTH 630 0
DWIDTH 7 0
BBX 5 4 1 1
BITMAP
C0
60
38
18
ENDCHAR
STARTCHAR 2B0B
ENCODING 11019
SWIDTH 630 0
DWIDTH 7 0
BBX 4 4 1 1
BITMAP
30
60
C0
C0
ENDCHAR
STARTCHAR 2B0C
ENCODING 11020
SWIDTH 630 0
DWIDTH 7 0
BBX 6 3 0 2
BITMAP
48
FC
48
ENDCHAR
STARTCHAR 2B0D
ENCODING 11021
SWIDTH 630 0
DWIDTH 7 0
BBX 3 6 2 1
BITMAP
40
E0
40
40
E0
40
ENDCHAR
STARTCHAR 2B16
ENCODING 11030
SWIDTH 630 0
DWIDTH 7 0
BBX 7 6 0 0
BITMAP
10
28
64
E6
68
30
ENDCHAR
STARTCHAR 2B17
ENCODING 11031
SWIDTH 630 0
DWIDTH 7 0
BBX 7 6 0 0
BITMAP
10
38
5C
9E
58
30
ENDCHAR
STARTCHAR 2B18
ENCODING 11032
SWIDTH 630 0
DWIDTH 7 0
BBX 7 6 0 0
BITMAP
10
38
7C
86
68
10
ENDCHAR
STARTCHAR 2B19
ENCODING 11033
SWIDTH 630 0
DWIDTH 7 0
BBX 7 6 0 0
BITMAP
10
68
84
7E
38
10
ENDCHAR
STARTCHAR 2B1A
ENCODING 11034
SWIDTH 630 0
DWIDTH 7 0
BBX 7 7 0 -1
BITMAP
AA
00
82
00
82
00
AA
ENDCHAR
STARTCHAR 2E18
ENCODING 11800
SWIDTH 630 0
DWIDTH 7 0
BBX 4 8 1 -2
BITMAP
20
20
20
20
60
A0
B0
70
ENDCHAR
STARTCHAR 2E1F
ENCODING 11807
SWIDTH 630 0
DWIDTH 7 0
BBX 6 3 0 1
BITMAP
FC
10
10
ENDCHAR
STARTCHAR 2E22
ENCODING 11810
SWIDTH 630 0
DWIDTH 7 0
BBX 2 4 3 4
BITMAP
C0
80
80
80
ENDCHAR
STARTCHAR 2E23
ENCODING 11811
SWIDTH 630 0
DWIDTH 7 0
BBX 2 4 2 4
BITMAP
C0
40
40
40
ENDCHAR
STARTCHAR 2E24
ENCODING 11812
SWIDTH 630 0
DWIDTH 7 0
BBX 2 4 3 -2
BITMAP
80
80
80
C0
ENDCHAR
STARTCHAR 2E25
ENCODING 11813
SWIDTH 630 0
DWIDTH 7 0
BBX 2 4 2 -2
BITMAP
40
40
40
C0
ENDCHAR
STARTCHAR 2E2E
ENCODING 11822
SWIDTH 630 0
DWIDTH 7 0
BBX 5 8 1 0
BITMAP
70
88
C0
60
20
00
20
20
ENDCHAR
STARTCHAR E0A0
ENCODING 57504
SWIDTH 630 0
DWIDTH 7 0
BBX 4 11 2 -1
BITMAP
80
80
F0
A0
A0
A0
60
80
80
80
80
ENDCHAR
STARTCHAR E0A1
ENCODING 57505
SWIDTH 630 0
DWIDTH 7 0
BBX 4 11 1 -1
BITMAP
80
80
80
80
80
E0
50
70
70
50
50
ENDCHAR
STARTCHAR E0A2
ENCODING 57506
SWIDTH 630 0
DWIDTH 7 0
BBX 5 11 1 -1
BITMAP
60
50
90
90
90
F8
D8
D8
D8
F8
F8
ENDCHAR
STARTCHAR E0B0
ENCODING 57520
SWIDTH 630 0
DWIDTH 7 0
BBX 7 13 0 -3
BITMAP
80
C0
E0
F0
F8
FC
FE
FC
F8
F0
E0
C0
80
ENDCHAR
STARTCHAR E0B1
ENCODING 57521
SWIDTH 630 0
DWIDTH 7 0
BBX 8 14 -1 -3
BITMAP
80
40
20
10
08
04
02
03
04
0C
18
30
60
C0
ENDCHAR
STARTCHAR E0B2
ENCODING 57522
SWIDTH 630 0
DWIDTH 7 0
BBX 7 13 0 -3
BITMAP
02
06
0E
1E
3E
7E
FE
7E
3E
1E
0E
06
02
ENDCHAR
STARTCHAR E0B3
ENCODING 57523
SWIDTH 630 0
DWIDTH 7 0
BBX 7 14 0 -3
BITMAP
02
04
0C
18
10
20
40
80
40
20
10
08
04
02
ENDCHAR
STARTCHAR FEFF
ENCODING 65279
SWIDTH 630 0
DWIDTH 7 0
BBX 0 0 0 0
BITMAP
ENDCHAR
ENDFONT
